<?xml version="1.0" standalone="no"?>
<!DOCTYPE svg PUBLIC "-//W3C//DTD SVG 1.1//EN" "http://www.w3.org/Graphics/SVG/1.1/DTD/svg11.dtd" >
<svg xmlns="http://www.w3.org/2000/svg">
<metadata>
This is a custom SVG webfont generated by Font Squirrel.
Designer    : Dylan Smith and Kienan Smith
Foundry     : Dylan Smith and Kienan Smith. Published by GarageFonts USA - - www.garagefonts.com
Foundry URL : www.garagefonts.com
</metadata>
<defs>
<font id="webfontciAxvMz6" horiz-adv-x="532" >
<font-face units-per-em="1000" ascent="800" descent="-200" />
<missing-glyph horiz-adv-x="284" />
<glyph unicode=" "  horiz-adv-x="284" />
<glyph unicode="&#x09;" horiz-adv-x="284" />
<glyph unicode="&#xa0;" horiz-adv-x="284" />
<glyph unicode="!" horiz-adv-x="239" d="M153 339l-13 -157h-45l-13 157v367h71v-367zM169 39v1q0 -21 -14.5 -35.5t-34.5 -14.5q-21 0 -35.5 14.5t-14.5 34.5q0 21 14.5 35.5t34.5 14.5q21 0 35.5 -14.5t14.5 -35.5z" />
<glyph unicode="&#x22;" horiz-adv-x="335" d="M141 700l-26 -291h-39l-26 292v2v1q0 21 45 21l1 -1q45 0 45 -24zM285 700l-27 -291h-39l-25 292v2v1q0 21 44 21h1l1 -1q45 0 45 -24z" />
<glyph unicode="#" horiz-adv-x="716" d="M646 438h-147l-11 -158h147v-62h-150l-15 -218h-69l16 218h-139l-16 -218h-67l16 217h-141v62h143l12 158h-144v64h148l14 203h70l-15 -203h138l14 203h68l-15 -203h143v-63zM431 438h-137l-12 -159h138z" />
<glyph unicode="$" horiz-adv-x="597" d="M547 203q0 -76 -56 -134t-156 -67v-54h-65v53q-161 13 -220 145l59 47q49 -129 191 -129q83 0 129.5 39t46.5 97q0 22 -14.5 41t-33.5 32t-50 26t-52.5 19.5t-52.5 15t-39 11.5q-73 23 -114.5 65t-41.5 113q0 81 53.5 126.5t137.5 53.5v48h66v-48q17 -1 33 -4.5t28.5 -7 t25.5 -9.5l22 -12q8 -4 20 -13l16 -13q6 -4 16 -15t13 -13.5t12.5 -14t10.5 -12.5l-56 -47q-36 52 -74.5 75.5t-100.5 23.5q-67 0 -109.5 -30t-42.5 -84q0 -50 32.5 -74.5t110.5 -51.5l56 -18q41 -13 60.5 -20.5t51 -23.5t47 -32.5t28 -43.5t12.5 -60z" />
<glyph unicode="%" horiz-adv-x="928" d="M878 213v-3q-1 -95 -43 -157.5t-117 -62.5q-76 0 -117.5 64t-41.5 158q0 56 14 104t51.5 84.5t94.5 36.5q79 0 119 -65t40 -159zM696 725l-399 -745h-63l400 745h62zM369 489v-3q-1 -95 -43.5 -157.5t-116.5 -62.5q-77 0 -118 63.5t-41 158.5q0 56 14 104t51.5 84.5 t94.5 36.5q79 0 119 -65t40 -159zM818 211q0 77 -26 125.5t-73 48.5q-48 0 -74 -48t-26 -123q0 -27 4.5 -53.5t14.5 -55t31 -45.5t50 -17q34 0 57.5 26t32.5 61.5t9 78.5v2zM309 487q0 77 -26 125.5t-73 48.5q-48 0 -74 -48t-26 -123q0 -27 4.5 -53.5t14.5 -55t31 -45.5 t50 -17q34 0 57.5 26t32.5 61.5t9 78.5v2z" />
<glyph unicode="&#x26;" horiz-adv-x="630" d="M590 0h-84l-31 34q-67 -46 -170 -46q-123 0 -189 58t-66 150q0 66 33 106.5t95 67.5l-50 56q-40 43 -40 110q0 90 64.5 136t161.5 46q46 0 82.5 -9.5t64 -29t41 -32t33.5 -35.5q6 -6 8 -9l-56 -48q-37 53 -75.5 76.5t-100.5 23.5q-67 0 -109 -30t-42 -85q0 -41 20 -64 l293 -340q12 27 12 58l72 1q0 -64 -36 -116zM430 85l-214 242q-94 -36 -94 -130q0 -73 53.5 -109.5t128.5 -36.5q79 0 126 34z" />
<glyph unicode="'" horiz-adv-x="191" d="M141 700l-26 -291h-39l-26 292v2v1q0 21 45 21l1 -1q45 0 45 -24z" />
<glyph unicode="(" horiz-adv-x="325" d="M295 -104l-20 -39q-110 80 -167.5 209t-57.5 259q0 129 57.5 258.5t166.5 209.5l21 -39q-170 -178 -170 -432q0 -250 170 -426z" />
<glyph unicode=")" horiz-adv-x="325" d="M275 325q0 -129 -57.5 -258.5t-166.5 -209.5l-21 39q170 176 170 426q0 254 -170 432l20 39q110 -80 167.5 -209t57.5 -259z" />
<glyph unicode="*" horiz-adv-x="397" d="M347 496l-23 -49l-110 71l12 -135h-54l12 135l-111 -69l-23 49l129 46l-129 44l23 49l111 -69l-12 135h54l-12 -135l109 71l24 -48l-123 -48z" />
<glyph unicode="+" horiz-adv-x="625" d="M575 286h-229v-233h-66v232h-230v64h229v232h66v-231h230v-64z" />
<glyph unicode="," horiz-adv-x="203" d="M163 82l-85 -203l-53 11l55 192h83z" />
<glyph unicode="-" horiz-adv-x="350" d="M300 311h-250v69h250v-69z" />
<glyph unicode="." horiz-adv-x="179" d="M139 40q0 -21 -14.5 -35.5t-34.5 -14.5q-21 0 -35.5 14.5t-14.5 34.5q0 21 14.5 35.5t34.5 14.5q21 0 35.5 -14.5t14.5 -34.5z" />
<glyph unicode="/" horiz-adv-x="456" d="M436 748l-341 -793h-75l342 793h74z" />
<glyph unicode="0" horiz-adv-x="612" d="M562 353q0 -167 -67.5 -266t-188.5 -99t-188.5 99t-67.5 265q0 167 67.5 266t188.5 99t188.5 -99t67.5 -265zM490 353q0 137 -48 219.5t-137 82.5t-136 -83t-47 -220q0 -138 47 -220t136 -82t137 83t48 220z" />
<glyph unicode="1" horiz-adv-x="370" d="M270 0h-72v567q-18 -15 -118 -15h-1h-1h-3h-5v52q126 5 136 99h64v-703z" />
<glyph unicode="2" horiz-adv-x="577" d="M512 512q0 -75 -37.5 -130.5t-116.5 -118.5l-64 -50l-58 -45l-42 -35q-23 -20 -35 -35.5t-19 -32.5h364v-65h-454q0 39 17 76.5t50 72t61 59t72.5 58t61.5 47.5q64 53 96 96.5t32 101.5q0 68 -43.5 105.5t-115.5 37.5q-57 0 -98 -35t-53 -75l-57 34q24 59 80 98.5 t130 39.5q106 0 167.5 -55t61.5 -149z" />
<glyph unicode="3" horiz-adv-x="574" d="M514 200q0 -97 -65.5 -154.5t-177.5 -57.5q-85 0 -147 44q-58 40 -84 112l59 38q15 -66 62.5 -98.5t111.5 -32.5q77 0 123 35.5t46 108.5q0 140 -175 140h-73v61h66q162 0 162 128q0 57 -38 93.5t-112 36.5q-60 0 -99.5 -32t-53.5 -78l-60 34l19 32q7 11 28 34.5t41 36.5 t53.5 24t71.5 11q96 0 158 -48t62 -140q0 -65 -31.5 -102.5t-95.5 -56.5q69 -8 109 -52t40 -117z" />
<glyph unicode="4" horiz-adv-x="614" d="M564 172h-103v-172h-66v171h-345v58l336 474h75v-470h103v-61zM394 233l1 374l-268 -374h267z" />
<glyph unicode="5" horiz-adv-x="578" d="M528 237q0 -115 -67.5 -182t-182.5 -67q-74 0 -137 33.5t-91 97.5l52 42q60 -111 177 -111q84 0 131 49.5t47 134.5q0 79 -45 125.5t-123 46.5q-106 0 -149 -91l-65 18l18 371h388v-67h-325l-16 -235q55 65 156 65q108 0 170 -62.5t62 -167.5z" />
<glyph unicode="6" horiz-adv-x="598" d="M548 223q0 -110 -69 -172.5t-180 -62.5q-55 0 -99 19t-71.5 49t-45.5 71.5t-25.5 83.5t-7.5 87q0 76 17 146.5t51 131.5t93.5 98t135.5 37q39 0 77 -11t59 -27l-33 -52q-63 26 -109 27h-4q-50 0 -91 -26q-42 -27 -67 -72t-39 -91t-21 -97q71 90 197 90q105 0 168.5 -62.5 t63.5 -166.5zM428.5 346q-46.5 44 -124.5 44q-80 0 -131 -44.5t-51 -114.5q0 -18 5 -39.5t18.5 -47t33 -46t51.5 -34.5t71 -14q80 0 127 47q47 46 47 124q0 81 -46.5 125z" />
<glyph unicode="7" horiz-adv-x="554" d="M494 637q-116 -151 -172.5 -302.5t-67.5 -334.5h-73q8 164 74.5 331t171.5 305h-387v68h454v-67z" />
<glyph unicode="8" horiz-adv-x="607" d="M557 195q0 -92 -67 -149.5t-185 -57.5q-122 0 -188.5 58t-66.5 150q0 70 36.5 111.5t105.5 68.5q-52 19 -83 58.5t-31 93.5q0 83 60 135.5t166 52.5q107 0 167.5 -51t60.5 -133q0 -58 -31.5 -97.5t-84.5 -57.5q63 -19 102 -66.5t39 -115.5zM414 622q-45 32 -110 32 q-80 0 -118 -37t-38 -88q0 -53 43 -89t114 -36q72 0 115 36q41 35 41 87q0 63 -47 95zM485 196q1 68 -51 107t-131 39q-80 0 -130.5 -39t-50.5 -106q0 -65 48 -105.5t134 -40.5q88 0 134.5 40t46.5 103v2z" />
<glyph unicode="9" horiz-adv-x="598" d="M548 403q0 -77 -15.5 -147t-48 -131.5t-90.5 -98t-134 -36.5q-84 0 -137 38l33 52q2 -1 15 -6.5t19 -7.5l20 -6q13 -4 26.5 -5.5t28.5 -1.5h4q50 0 89 25q41 27 64.5 73t36.5 91t19 97q-69 -90 -197 -90q-105 0 -168 62t-63 167q0 110 69 172.5t179 62.5q69 0 119.5 -28 t78 -74.5t40 -98.5t12.5 -109zM475 470h1q0 23 -9.5 51.5t-28.5 59t-56.5 50.5t-85.5 20q-80 0 -128 -47q-46 -46 -46 -124q0 -80 48 -125q46 -44 123 -44q80 0 131 44.5t51 114.5z" />
<glyph unicode=":" horiz-adv-x="199" d="M149 452q0 -21 -14.5 -35.5t-34.5 -14.5q-21 0 -35.5 14.5t-14.5 34.5q0 21 14.5 35.5t34.5 14.5q21 0 35.5 -14.5t14.5 -34.5zM149 39v1q0 -21 -14.5 -35.5t-34.5 -14.5q-21 0 -35.5 14.5t-14.5 34.5q0 21 14.5 35.5t34.5 14.5q21 0 35.5 -14.5t14.5 -35.5z" />
<glyph unicode=";" horiz-adv-x="214" d="M163 82l-85 -203l-53 11l55 192h83zM164 452q0 -21 -14.5 -35.5t-34.5 -14.5q-21 0 -35.5 14.5t-14.5 34.5q0 21 14.5 35.5t35.5 14.5q20 0 34.5 -14.5t14.5 -34.5z" />
<glyph unicode="&#x37e;" horiz-adv-x="214" d="M163 82l-85 -203l-53 11l55 192h83zM164 452q0 -21 -14.5 -35.5t-34.5 -14.5q-21 0 -35.5 14.5t-14.5 34.5q0 21 14.5 35.5t35.5 14.5q20 0 34.5 -14.5t14.5 -34.5z" />
<glyph unicode="&#x3c;" horiz-adv-x="543" d="M503 30l-463 284v69l463 285v-79l-400 -239l400 -241v-79z" />
<glyph unicode="=" horiz-adv-x="642" d="M592 384l-542 -1v65h542v-64zM592 186h-542v65h542v-65z" />
<glyph unicode="&#x3e;" horiz-adv-x="543" d="M503 315l-463 -286v79l400 240l-400 240v80l463 -284v-69z" />
<glyph unicode="?" horiz-adv-x="513" d="M473 532q0 -47 -17.5 -83t-39 -56.5t-65.5 -54.5q-51 -39 -62 -64t-11 -88l1 -8h-71q0 75 17.5 116t78.5 88q3 2 19 14.5t19 15.5l16 13q13 11 16 16.5t11 17t10.5 20.5t5 22t2.5 28q0 51 -37.5 87.5t-104.5 36.5q-63 0 -98 -22t-64 -87l-59 35q41 76 93 106t130 30 q94 0 152 -50t58 -133zM294 37l1 1q0 -21 -15 -35.5t-35 -14.5t-35 14.5t-15 34.5q0 21 15 35.5t35 14.5t34.5 -14.5t14.5 -35.5z" />
<glyph unicode="@" horiz-adv-x="860" d="M800 392q0 -121 -54.5 -200.5t-133.5 -79.5q-77 0 -93 71q-47 -61 -127 -61q-55 0 -95 46t-40 117q0 90 69 174t156 84q89 0 117 -69l19 50h64q0 -11 -97 -315q-1 -3 -1 -9q0 -16 12.5 -29t27.5 -13l1 1q32 0 58 25.5t40 63.5t21.5 75.5t7.5 68.5q0 123 -78 198.5 t-205 75.5q-152 0 -256.5 -107.5t-104.5 -266.5q0 -145 92.5 -229.5t230.5 -84.5q127 0 238 89l23 -38q-122 -97 -260 -97q-99 0 -182 40.5t-136.5 124t-53.5 195.5q0 174 117.5 297t292.5 123q149 0 239.5 -91t90.5 -229zM563 395q0 37 -20 61.5t-64 24.5 q-54 0 -101.5 -63.5t-47.5 -122.5q0 -113 78 -113q40 0 79 36t59 91q17 45 17 86z" />
<glyph unicode="A" horiz-adv-x="658" d="M628 0h-77l-71 195h-302l-71 -195h-77l265 703h71zM458 258l-128 364l-129 -364h257z" />
<glyph unicode="B" horiz-adv-x="637" d="M582 203q0 -52 -16.5 -90t-41.5 -59.5t-64 -34t-75.5 -16t-84.5 -3.5h-230v703h274q94 0 151.5 -42.5t57.5 -133.5q0 -114 -113 -146q62 -14 102 -58t40 -120zM480 526q0 111 -145 111h-193v-228h184q154 0 154 117zM509 200q0 77 -51.5 111t-130.5 34h-185v-279h179 q41 0 70 4.5t58 17.5t44.5 41t15.5 71z" />
<glyph unicode="C" horiz-adv-x="651" d="M611 537l-70 -27q-59 143 -194 143q-107 0 -165 -87.5t-58 -213.5q0 -124 58 -212.5t165 -88.5q115 0 175 107l62 -40q-81 -133 -236 -133q-60 0 -110 20.5t-84 55.5t-58 82t-35 99.5t-11 108.5q0 159 79.5 263t218.5 104q96 0 162.5 -49t100.5 -132z" />
<glyph unicode="D" horiz-adv-x="651" d="M601 355q0 -355 -333 -355h-198v703h207q159 0 241.5 -87t82.5 -261zM528 352h1q0 145 -63 214.5t-194 69.5l-128 1v-572h123q135 0 198 69t63 218z" />
<glyph unicode="E" horiz-adv-x="562" d="M532 0h-462v703h442v-66h-370v-236h279v-66h-279v-268h390v-67z" />
<glyph unicode="F" horiz-adv-x="527" d="M507 638h-366v-235h275v-65h-274v-338h-72v703h437v-65z" />
<glyph unicode="G" horiz-adv-x="690" d="M640 318q0 -135 -78.5 -234t-213.5 -99q-95 0 -164.5 53t-101.5 134t-32 176q0 163 81.5 266.5t219.5 103.5q97 0 165 -54.5t95 -125.5l-70 -26q-39 67 -68 94q-52 48 -120 48q-77 0 -131 -48t-76 -114t-22 -141q0 -54 13 -105.5t38.5 -96t70 -72t101.5 -27.5 q84 0 149.5 73.5t65.5 157.5l-1 10h-196v67h275v-40z" />
<glyph unicode="H" horiz-adv-x="675" d="M605 0h-72v330h-391v-330h-72v703h72v-308h391v308h72v-703z" />
<glyph unicode="I" horiz-adv-x="213" d="M143 0h-73v703h73v-703z" />
<glyph unicode="J" horiz-adv-x="519" d="M449 259q0 -136 -49 -204.5t-168 -68.5q-97 0 -147.5 46.5t-69.5 143.5l70 20q10 -72 44.5 -108.5t105.5 -36.5q140 0 140 185v467h74v-444z" />
<glyph unicode="K" horiz-adv-x="633" d="M608 0h-86l-235 378l-144 -164v-214h-73v703h73v-397l344 397h89l-241 -271z" />
<glyph unicode="L" d="M512 0h-442v704h74v-637h368v-67z" />
<glyph unicode="M" horiz-adv-x="758" d="M688 0h-74v552l-225 -552h-18l-228 552v-552h-73v703h84l226 -561l223 561h85v-703z" />
<glyph unicode="N" horiz-adv-x="670" d="M600 0h-72l-385 589v-589h-73v703h73l384 -590v590h73v-703z" />
<glyph unicode="O" horiz-adv-x="695" d="M645 355q0 -71 -18 -135.5t-53 -118t-93.5 -85t-132.5 -31.5q-60 0 -110 20.5t-84 55.5t-58 82t-35 99.5t-11 108.5q0 159 79.5 263t218.5 104q98 0 167 -53t99.5 -133t30.5 -177zM569 353h1q0 79 -23.5 145.5t-75.5 110.5t-124 44t-124 -43.5t-75.5 -110t-23.5 -147.5 q0 -124 58 -212.5t165 -88.5q60 0 105.5 30t69.5 78t35.5 97t11.5 97z" />
<glyph unicode="P" horiz-adv-x="599" d="M579 502q0 -58 -21.5 -100t-58.5 -64t-78.5 -31.5t-91.5 -9.5h-186v-297h-73v703h251q46 0 81.5 -4.5t70 -18t57 -35.5t36 -58t13.5 -85zM507 501q0 44 -14.5 73t-43 43t-58.5 18.5t-74 4.5h-175v-279h187q178 0 178 140z" />
<glyph unicode="Q" horiz-adv-x="695" d="M645 355h-1q0 -104 -36.5 -192t-108.5 -135l39 -56l-59 -42l-47 67q-45 -12 -84 -12q-60 0 -110 20.5t-84 55.5t-58 82t-35 99.5t-11 108.5q0 159 79.5 263t218.5 104q97 0 166 -52.5t100 -133t31 -177.5zM569 353h1q0 79 -23.5 145.5t-75.5 110.5t-124 44 q-58 0 -103 -27.5t-70 -72.5t-37.5 -96t-12.5 -105t12.5 -105t38 -96t70 -72.5t102.5 -27.5q16 0 44 4l-42 60l59 42l51 -72q56 41 83 117t27 151z" />
<glyph unicode="R" horiz-adv-x="607" d="M582 0h-87l-186 306h-166v-306h-73v703h264q109 0 176.5 -47t67.5 -153q0 -165 -188 -194zM506 503q0 76 -45.5 105.5t-123.5 29.5h-195v-269h186q37 0 64.5 4.5t55.5 17.5t43 41t15 71z" />
<glyph unicode="S" horiz-adv-x="564" d="M524 185q0 -93 -69.5 -146.5t-169.5 -53.5q-168 0 -235 151l53 42q25 -66 69 -98t114 -32q78 0 123 40.5t45 101.5q0 41 -43.5 78t-156.5 76q-104 37 -149 81t-45 111q0 89 64.5 135t161.5 46q39 0 74 -9t54.5 -17.5t45 -30.5t31 -28.5t26.5 -29.5l-54 -45 q-36 51 -77.5 74t-103.5 23q-67 0 -110 -30t-43 -84q0 -48 32 -75.5t129 -63.5q136 -51 185 -97t49 -119z" />
<glyph unicode="T" horiz-adv-x="541" d="M521 637h-214v-637h-73v637h-214v66h501v-66z" />
<glyph unicode="U" horiz-adv-x="629" d="M574 332q0 -183 -58 -265t-201 -82q-144 0 -202 81.5t-58 264.5v372h73v-417q0 -54 7.5 -93t26.5 -73t57 -51t94 -17q108 0 148 60.5t40 173.5v417h73v-371z" />
<glyph unicode="V" horiz-adv-x="633" d="M603 703l-251 -703h-73l-249 703h78l207 -616l212 616h76z" />
<glyph unicode="W" horiz-adv-x="859" d="M829 703l-171 -703h-71l-157 589l-156 -589h-69l-175 703h75l137 -596l156 596h65l159 -596l134 596h73z" />
<glyph unicode="X" horiz-adv-x="632" d="M602 0h-86l-199 319l-205 -319h-82l243 372l-216 331h87l173 -277l175 277h84l-217 -330z" />
<glyph unicode="Y" horiz-adv-x="611" d="M596 703l-258 -418v-285h-71v284l-252 419h83l205 -351l209 351h84z" />
<glyph unicode="Z" horiz-adv-x="582" d="M547 643l-423 -579h420v-64h-509v56l426 580h-403v67h489v-60z" />
<glyph unicode="[" horiz-adv-x="292" d="M252 -127h-182v902h182v-57h-115v-788h115v-57z" />
<glyph unicode="\" horiz-adv-x="446" d="M431 -45h-74l-342 793h75z" />
<glyph unicode="]" horiz-adv-x="292" d="M222 -127h-182v57h115v788h-115v57h182v-902z" />
<glyph unicode="^" horiz-adv-x="581" d="M511 366h-81l-139 255l-141 -255h-80l192 337h59z" />
<glyph unicode="_" horiz-adv-x="500" d="M505 -139h-510v57h510v-57z" />
<glyph unicode="`" horiz-adv-x="357" d="M287 577l-56 -1l-161 151h109z" />
<glyph unicode="a" d="M482 0h-54q-25 0 -39.5 13t-14.5 34v26q-57 -83 -165 -83q-74 0 -116.5 40.5t-42.5 108.5q0 62 37.5 103t88 56.5t111.5 15.5q59 0 87 -13v41q0 54 -26 82.5t-87 28.5q-51 0 -77.5 -17t-55.5 -61l-48 37q24 49 73.5 75t107.5 26q74 0 128 -40.5t54 -110.5v-295 q0 -22 27 -22h12v-45zM374 163v67q-22 27 -89 27q-68 0 -117.5 -33.5t-49.5 -81.5q0 -43 26 -68.5t73 -25.5q54 0 99.5 34.5t57.5 80.5z" />
<glyph unicode="b" horiz-adv-x="531" d="M481 251q0 -116 -51.5 -189t-145.5 -73q-86 0 -146 80v-69h-68v703h68v-271q55 80 150 80q88 0 140.5 -70.5t52.5 -190.5zM410 253q0 95 -36 146.5t-100 51.5q-54 0 -90.5 -38t-45.5 -95v-169q23 -50 61 -74.5t78 -24.5q133 0 133 203z" />
<glyph unicode="c" horiz-adv-x="492" d="M452 420l-52 -36q-44 67 -127 67q-66 0 -108.5 -53t-42.5 -146q0 -85 37 -144t113 -59q77 0 124 68l55 -32q-67 -97 -181 -97q-100 0 -160 72t-60 188q0 126 65.5 195t161.5 69q57 0 96.5 -22.5t78.5 -69.5z" />
<glyph unicode="d" horiz-adv-x="531" d="M461 0h-68v69q-60 -80 -146 -80q-94 0 -145.5 73t-51.5 189q0 120 52.5 190.5t140.5 70.5q95 0 150 -80v271h68v-703zM393 149v169q-9 57 -45.5 95t-90.5 38q-64 0 -100 -52t-36 -146q0 -203 133 -203q40 0 78 24.5t61 74.5z" />
<glyph unicode="e" horiz-adv-x="526" d="M481 258q0 -8 -2 -22h-357q2 -78 39.5 -132t112.5 -54q90 0 148 75l47 -36q-70 -101 -199 -101q-98 0 -159 70.5t-61 194.5q0 119 62.5 189t155.5 70q104 0 158.5 -73t54.5 -181zM411 293q-7 70 -42 114t-102 44q-59 0 -98 -41.5t-46 -116.5h288z" />
<glyph unicode="f" horiz-adv-x="336" d="M301 442h-116v-442h-68v442h-82v59h82v84q0 60 29.5 94.5t88.5 34.5q42 0 62 -20v-72q-15 33 -50 33q-30 0 -46 -18t-16 -48v-88h116v-59z" />
<glyph unicode="g" horiz-adv-x="541" d="M471 18q0 -101 -62.5 -168.5t-155.5 -67.5q-49 0 -86.5 15.5t-56 33.5t-37.5 46l52 40q18 -32 50.5 -52.5t73.5 -20.5q42 0 74 19t48 48t23.5 56t7.5 52v54q-49 -84 -154 -84q-93 0 -145.5 72.5t-52.5 186.5q0 117 53.5 190.5t149.5 73.5q100 0 149 -81v70h69v-483z M402 142v181q-8 55 -48 92t-94 37q-71 0 -106 -54t-35 -149t36 -147t104 -52q63 0 99 34q11 10 25 30q3 4 9.5 14t9.5 14z" />
<glyph unicode="h" horiz-adv-x="522" d="M457 0h-69v283q0 38 -3.5 63t-14 51t-35.5 39.5t-63 13.5q-42 0 -70 -16.5t-41 -46.5t-17.5 -60t-4.5 -70v-257h-69v703h69v-268q46 77 144 77t136 -58.5t38 -158.5v-295z" />
<glyph unicode="i" horiz-adv-x="232" d="M162 670q0 -19 -13.5 -32.5t-32.5 -13.5t-32.5 13.5t-13.5 32.5t13.5 32.5t32.5 13.5t32.5 -13.5t13.5 -32.5zM151 0h-69v501h69v-501z" />
<glyph unicode="j" horiz-adv-x="225" d="M155 670q0 -19 -13 -32.5t-32 -13.5q-20 0 -33 13t-13 33q0 19 13.5 32.5t32.5 13.5t32 -13.5t13 -32.5zM144 -97q0 -52 -31 -84t-82 -32q-38 0 -71 21l21 55q19 -17 42 -17q52 0 52 73v583h69v-599z" />
<glyph unicode="k" horiz-adv-x="495" d="M470 0h-79l-157 260l-95 -109v-151h-69v703h69v-462l229 260h82l-170 -188z" />
<glyph unicode="l" horiz-adv-x="210" d="M140 0h-70v703h70v-703z" />
<glyph unicode="m" horiz-adv-x="793" d="M723 0h-70v282q0 92 -21.5 130t-78.5 38q-122 0 -122 -197v-253h-69v285q0 85 -22.5 125t-78.5 40q-67 0 -94.5 -50t-27.5 -151v-249h-69v501h69v-75q19 47 57.5 66t77.5 19q51 0 88.5 -25.5t49.5 -75.5q47 101 153 101q86 0 122 -52.5t36 -181.5v-277z" />
<glyph unicode="n" horiz-adv-x="527" d="M457 0h-69v277q0 94 -27.5 133.5t-88.5 39.5q-71 0 -102 -47.5t-31 -144.5v-258h-69v501h69v-71q44 81 145 81q92 0 132.5 -57t40.5 -171v-283z" />
<glyph unicode="o" horiz-adv-x="544" d="M494 253q1 -110 -57.5 -187.5t-165.5 -77.5q-100 0 -160.5 71t-60.5 188q0 116 60 190.5t163 74.5t162 -71.5t59 -187.5zM423 249q0 27 -3.5 53t-14 54t-27 48.5t-43.5 34t-62 13.5q-79 0 -115 -59t-36 -145q0 -98 41 -148.5t109 -50.5q72 0 111.5 53t39.5 147z" />
<glyph unicode="p" horiz-adv-x="531" d="M481 254q0 -119 -54.5 -192.5t-143.5 -73.5q-95 0 -144 77v-265h-69v701h69v-68q53 79 148 79q94 0 144 -73t50 -185zM411 257q0 89 -36 141t-102 52q-32 0 -56.5 -12.5t-40 -36.5t-23 -40.5t-15.5 -41.5v-173q17 -44 55 -69.5t82 -25.5q70 0 103 58t33 148z" />
<glyph unicode="q" horiz-adv-x="531" d="M461 -200h-68v269q-51 -81 -150 -81q-87 0 -140 69.5t-53 189.5q0 48 11 93t33.5 84.5t62.5 63.5t92 24q98 0 144 -75v64h68v-701zM393 184v188q-20 28 -58 52.5t-79 24.5q-66 0 -101 -52.5t-35 -147.5q0 -90 36.5 -144t101.5 -54q54 0 89 38t46 95z" />
<glyph unicode="r" horiz-adv-x="368" d="M353 501l-26 -61q-31 10 -59 10q-45 0 -75.5 -29t-42 -70.5t-11.5 -92.5v-258h-69v501h69v-71q44 81 144 81q40 0 70 -10z" />
<glyph unicode="s" horiz-adv-x="439" d="M399 134q0 -64 -46.5 -104.5t-125.5 -40.5q-118 0 -177 99l51 39q43 -77 127 -77q54 0 79 22.5t25 58.5q0 33 -28.5 56.5t-113.5 50.5q-134 43 -134 141q0 58 44 96t120 38q99 0 173 -83l-51 -36q-50 59 -123 59q-45 0 -70.5 -18.5t-25.5 -52.5q0 -30 22.5 -49t83.5 -39 q93 -31 131.5 -68t38.5 -92z" />
<glyph unicode="t" horiz-adv-x="356" d="M311 442h-116v-331q0 -33 10.5 -46t33.5 -13q27 0 68 24v-65q-41 -21 -87 -21q-25 0 -43 7t-27.5 18t-14.5 29.5t-6.5 34.5t-1.5 41v322h-82v59h82v202h68v-202h116v-59z" />
<glyph unicode="u" horiz-adv-x="517" d="M447 0h-69v71q-47 -82 -146 -82q-93 0 -132.5 58.5t-39.5 176.5v277h69v-277q0 -92 27.5 -132.5t86.5 -40.5q135 0 135 192v258h69v-501z" />
<glyph unicode="v" horiz-adv-x="480" d="M450 501l-185 -501h-59l-176 501h72l135 -408l143 408h70z" />
<glyph unicode="w" horiz-adv-x="702" d="M672 501l-145 -501h-61l-113 404l-113 -404h-60l-150 501h69l111 -398l113 398h61l113 -398l106 398h69z" />
<glyph unicode="x" horiz-adv-x="471" d="M441 0h-78l-128 205l-131 -205h-74l168 259l-156 242h79l116 -185l118 185h73l-156 -241z" />
<glyph unicode="y" horiz-adv-x="492" d="M462 501l-242 -636q-13 -35 -39 -54t-60 -19q-11 0 -40 11v53q21 -8 38 -8q29 0 44 39l43 114l-176 500h70l141 -416l149 416h72z" />
<glyph unicode="z" horiz-adv-x="410" d="M385 0h-360v47l270 396h-248v58h335v-46l-270 -395h273v-60z" />
<glyph unicode="{" horiz-adv-x="366" d="M326 -130q-102 7 -141 52.5t-39 150.5v114q0 92 -76 122v52q75 22 75 117v88q0 106 39 155.5t142 54.5v-48q-67 -12 -90 -46t-23 -108v-95q0 -63 -13.5 -95.5t-56.5 -49.5q44 -17 57.5 -51t13.5 -88v-2l-1 -121q0 -73 23 -106.5t90 -46.5v-49z" />
<glyph unicode="|" horiz-adv-x="178" d="M228 775l-211 -992h-67l211 992h67z" />
<glyph unicode="}" horiz-adv-x="366" d="M296 309q-76 -30 -76 -122v-113q0 -106 -38.5 -151.5t-141.5 -52.5v48q67 14 90 48q22 32 22 100v6v121v2q0 54 13.5 88t57.5 51q-42 17 -56 51.5t-14 93.5v95q0 74 -23 108t-90 46v48q103 -5 141.5 -54.5t38.5 -155.5v-88q0 -94 76 -117v-52z" />
<glyph unicode="~" horiz-adv-x="604" d="M534 362q-27 -51 -59 -76.5t-77 -25.5q-36 0 -95 32q-2 1 -13 7t-13 7q-46 26 -73 26t-43 -15t-41 -58l-50 42q47 104 133 104q39 0 103 -35q3 -1 15.5 -8.5t14.5 -7.5q39 -21 62 -21q29 0 48 17.5t39 53.5z" />
<glyph unicode="&#xa1;" horiz-adv-x="239" d="M169 467q0 -21 -14.5 -35.5t-34.5 -14.5q-21 0 -35.5 14.5t-14.5 34.5q0 21 14.5 35.5t34.5 14.5q21 0 35.5 -14.5t14.5 -34.5zM156 -200h-70v367l13 157h45l12 -157v-367z" />
<glyph unicode="&#xa2;" horiz-adv-x="481" d="M451 494l-50 -35q-44 67 -127 67q-77 0 -115.5 -60t-38.5 -141q0 -86 37.5 -145t114.5 -59q26 0 48.5 7t36 16.5t23 19.5t13.5 17l4 7l53 -31q-2 -3 -6.5 -9t-18.5 -21t-29.5 -27t-40 -23t-49.5 -14v-117h-66v117q-94 12 -142 85t-48 172q0 100 47.5 173.5t142.5 88.5 v121h65v-120q47 -6 80 -27.5t66 -61.5z" />
<glyph unicode="&#xa3;" horiz-adv-x="581" d="M536 157q0 -71 -44 -114t-115 -43h-307v532q0 82 58 132.5t152 50.5q120 0 186 -79l-57 -42q-23 27 -52 37t-74 10q-67 0 -102.5 -35.5t-35.5 -86.5v-74h221v-68h-221v-310h224q40 0 69.5 25t29.5 64q0 29 -19.5 54.5t-44.5 38.5l34 57q35 -13 66.5 -57t31.5 -92z" />
<glyph unicode="&#xa4;" horiz-adv-x="687" d="M657 537l-70 -27q-59 143 -194 143q-86 0 -140.5 -57.5t-72.5 -150.5h262l-22 -64h-249v-29q0 -27 1 -40h270l-22 -64h-238q21 -88 74.5 -142.5t136.5 -54.5q115 0 175 107l62 -40q-81 -133 -236 -133q-118 0 -191.5 73.5t-96.5 189.5h-106l20 64h77q-1 13 -1 39 q0 20 1 29h-97l20 65h84q22 122 97.5 197.5t192.5 75.5q96 0 162.5 -49t100.5 -132z" />
<glyph unicode="&#xa5;" horiz-adv-x="631" d="M606 703l-214 -346h119v-51h-150l-13 -21v-75h163v-51h-163v-159h-72v159h-160v51h160v74l-13 22h-147v51h117l-208 346h83l205 -351l209 351h84z" />
<glyph unicode="&#xa6;" horiz-adv-x="271" d="M171 703v-275h-71v275h71zM171 0h-71v274h71v-274z" />
<glyph unicode="&#xa7;" horiz-adv-x="571" d="M521 312q0 -54 -30.5 -96.5t-84.5 -68.5q68 -45 68 -115q0 -68 -52 -111.5t-137 -43.5q-115 0 -211 85l47 51q80 -70 170 -70q53 0 82.5 24.5t29.5 60.5q0 35 -28.5 57t-104.5 48q-121 41 -170.5 82.5t-49.5 111.5q0 52 31.5 96t88.5 69q-63 43 -63 109q0 61 48.5 103.5 t127.5 42.5q95 0 191 -79l-46 -51q-73 65 -152 65q-44 0 -70.5 -21.5t-26.5 -55.5q0 -18 9 -33t19.5 -24t31.5 -19.5t31 -14t33 -10.5l9 -3q115 -38 162 -77.5t47 -111.5zM450 306h1q0 48 -37 75q-12 9 -29.5 18t-40.5 18l-40 15l-43 16q-27 9 -34 11q-49 -22 -77.5 -55.5 t-28.5 -72.5q0 -22 16.5 -43t48.5 -38.5t56 -28.5t63.5 -26t45.5 -17q40 20 69.5 54.5t29.5 73.5z" />
<glyph unicode="&#xa8;" horiz-adv-x="352" d="M302 639q0 -17 -12 -29t-29 -12t-29 12t-12 29t12 29t29 12t29 -12t12 -29zM132 639q0 -17 -12 -29t-29 -12t-29 12t-12 29t12 29t29 12t29 -12t12 -29z" />
<glyph unicode="&#xa9;" horiz-adv-x="837" d="M777 351q0 -153 -102 -255.5t-257 -102.5q-149 0 -253.5 100.5t-104.5 257.5q0 155 103 257t256 102q152 0 255 -102t103 -257zM736 351l1 -1q0 136 -90.5 228.5t-227.5 92.5q-134 0 -226.5 -91.5t-92.5 -228.5q0 -136 91.5 -227.5t227.5 -91.5q132 0 224.5 90t92.5 229z M584 214l1 1q-64 -83 -164 -83q-83 0 -140.5 61.5t-57.5 157.5q0 94 56.5 157.5t143.5 63.5q96 0 160 -80l-42 -36q-51 63 -117 63q-62 0 -103.5 -47t-41.5 -118q0 -74 42 -121.5t102 -47.5q69 0 121 65z" />
<glyph unicode="&#xaa;" horiz-adv-x="390" d="M340 391h-40q-40 0 -43 32q-38 -38 -97 -38q-47 0 -78.5 25.5t-31.5 72.5q0 54 46.5 81.5t108.5 27.5q29 0 51 -6v17q0 31 -15 44.5t-48 13.5t-50 -10.5t-34 -38.5l-43 31q24 36 54.5 51.5t77.5 15.5q45 0 81 -22t36 -65v-180q0 -10 12 -10h13v-42zM256 491v40 q-10 13 -40 13q-37 0 -72.5 -15.5t-35.5 -47.5q0 -47 54 -47q33 0 61 18t33 39z" />
<glyph unicode="&#xab;" horiz-adv-x="491" d="M446 84l-66 -16l-161 217l161 225l66 -15l-151 -209zM272 84l-66 -16l-161 217l160 225l67 -15l-151 -209z" />
<glyph unicode="&#xac;" horiz-adv-x="642" d="M592 119h-68v162h-484v68h552v-230z" />
<glyph unicode="&#xad;" horiz-adv-x="350" d="M300 311h-250v69h250v-69z" />
<glyph unicode="&#xae;" horiz-adv-x="838" d="M778 351h-1q0 -154 -103 -256t-256 -102q-149 0 -253.5 100.5t-104.5 257.5q0 156 103.5 257.5t254.5 101.5q154 0 257 -102.5t103 -256.5zM737 351q0 137 -90.5 228.5t-226.5 91.5t-228 -91.5t-92 -227.5q0 -137 92 -228.5t226 -91.5q135 0 226.5 91t92.5 228zM582 144 h-68q-6 11 -22 66.5t-37.5 88.5t-54.5 33h-59v-188h-59v423h149q151 0 151 -113q0 -45 -26.5 -73t-70.5 -37q21 -8 39.5 -46t35 -89.5t22.5 -64.5zM522 451q0 40 -26 53.5t-71 13.5h-84v-136h88q93 0 93 69z" />
<glyph unicode="&#xaf;" horiz-adv-x="393" d="M323 600h-253v67h253v-67z" />
<glyph unicode="&#x2c9;" horiz-adv-x="393" d="M323 600h-253v67h253v-67z" />
<glyph unicode="&#xb0;" horiz-adv-x="434" d="M384 561q0 -72 -48 -121.5t-119 -49.5q-70 0 -118.5 49.5t-48.5 120.5t48 120.5t119 49.5t119 -49t48 -120zM321 561v-1q0 46 -29.5 77.5t-74.5 31.5t-74.5 -31t-29.5 -77q0 -47 29.5 -78.5t74.5 -31.5t74.5 31t29.5 79z" />
<glyph unicode="&#xb2;" horiz-adv-x="473" d="M413 202h-352q0 65 52 125t168 142q62 43 62 101q0 34 -28 57t-78 23q-92 0 -118 -76l-57 31q20 51 69.5 78.5t111.5 27.5q71 0 119 -39.5t48 -107.5q0 -50 -29 -89t-98 -85q-47 -32 -84.5 -67.5t-45.5 -57.5h260v-63z" />
<glyph unicode="&#xb3;" horiz-adv-x="486" d="M425 340q0 -60 -46.5 -103.5t-138.5 -43.5q-75 0 -125.5 36t-66.5 86l56 31q33 -90 132 -90q57 0 88 24t31 64q0 41 -28 64.5t-84 23.5h-76v60h64q53 0 80.5 23t27.5 55t-26 56t-70 24q-90 0 -120 -77l-58 30q42 107 179 107q79 0 123 -37t44 -98q0 -35 -16.5 -65 t-47.5 -44q35 -14 56.5 -49.5t21.5 -76.5z" />
<glyph unicode="&#xb4;" horiz-adv-x="317" d="M267 727l-161 -151h-56l107 151h110z" />
<glyph unicode="&#xb5;" horiz-adv-x="527" d="M457 -1h-69v72q-47 -83 -146 -83q-71 0 -105 46v-235h-67v702h69v-277q0 -89 24 -131.5t90 -42.5q55 0 86.5 29.5t40 68t8.5 94.5v259h69v-502z" />
<glyph unicode="&#x3bc;" horiz-adv-x="527" d="M457 -1h-69v72q-47 -83 -146 -83q-71 0 -105 46v-235h-67v702h69v-277q0 -89 24 -131.5t90 -42.5q55 0 86.5 29.5t40 68t8.5 94.5v259h69v-502z" />
<glyph unicode="&#xb6;" horiz-adv-x="618" d="M548 647h-17v-847h-61v847h-124v-847h-62v498h-22q-83 0 -142.5 59.5t-59.5 143.5q0 83 59.5 142.5t142.5 59.5h286v-56z" />
<glyph unicode="&#xb7;" horiz-adv-x="219" d="M159 354q0 -21 -14.5 -35.5t-34.5 -14.5q-21 0 -35.5 14.5t-14.5 34.5q0 21 14.5 35.5t34.5 14.5q21 0 35.5 -14.5t14.5 -34.5z" />
<glyph unicode="&#x22c5;" horiz-adv-x="219" d="M159 354q0 -21 -14.5 -35.5t-34.5 -14.5q-21 0 -35.5 14.5t-14.5 34.5q0 21 14.5 35.5t34.5 14.5q21 0 35.5 -14.5t14.5 -34.5z" />
<glyph unicode="&#xb8;" horiz-adv-x="328" d="M258 -121q0 -41 -31 -63t-79 -22q-32 0 -78 20l9 29q31 -14 62 -14q19 0 32.5 4.5t19 11.5t8 13t2.5 12q0 15 -11 25t-29 10q-23 0 -38 -12q-30 7 -31 7l50 106h35l-35 -70q22 9 45 9q28 0 48.5 -17t20.5 -49z" />
<glyph unicode="&#xb9;" horiz-adv-x="299" d="M216 703l-1 -501h-71v385q-31 -6 -78 -6h-18v54q46 1 72.5 14t31.5 54h64z" />
<glyph unicode="&#xba;" horiz-adv-x="396" d="M346 554q0 -66 -38 -113t-110 -47q-68 0 -108 45t-40 114q0 72 40.5 116t106.5 44q69 0 108.5 -44.5t40.5 -114.5zM286 555q0 46 -21 77.5t-65 31.5q-29 0 -48.5 -12.5t-27.5 -32.5t-11 -36t-3 -33q0 -47 21 -77t65 -30q42 0 66 29.5t24 81.5v1z" />
<glyph unicode="&#xbb;" horiz-adv-x="491" d="M446 293l-160 -225l-67 15l151 209l-151 202l66 16zM271 293l-160 -225l-66 15l151 209l-151 202l66 16z" />
<glyph unicode="&#xbc;" horiz-adv-x="948" d="M216 703l-1 -501h-71v385q-31 -6 -78 -6h-18v54q46 1 72.5 14t31.5 54h64zM902 178v-60h-77l-1 -118h-68v118h-264v47l262 336h71v-323h77zM656 714l-393 -734l-58 9l394 735zM756 395l-170 -217h170v217z" />
<glyph unicode="&#xbd;" horiz-adv-x="990" d="M216 703l-1 -501h-71v385q-31 -6 -78 -6h-18v54q46 1 72.5 14t31.5 54h64zM933 0h-352q0 65 52.5 125.5t167.5 141.5q62 43 62 102q0 34 -28 57t-78 23q-92 0 -119 -77l-56 31q20 51 69.5 79t111.5 28q71 0 119 -40t48 -108q0 -49 -29 -87.5t-98 -85.5q-47 -32 -84.5 -68 t-45.5 -58h260v-63zM656 714l-394 -734l-57 9l394 735z" />
<glyph unicode="&#xbe;" horiz-adv-x="1112" d="M425 340q0 -60 -46.5 -103.5t-138.5 -43.5q-75 0 -125.5 36t-66.5 86l56 31q33 -90 132 -90q57 0 88 24t31 64q0 41 -28 64.5t-84 23.5h-76v60h64q53 0 80.5 23t27.5 55t-26 56t-70 24q-90 0 -120 -77l-58 30q42 107 179 107q79 0 123 -37t44 -98q0 -35 -16.5 -65 t-47.5 -44q35 -14 56.5 -49.5t21.5 -76.5zM1067 178v-60h-77v-118h-69v118h-264v47l262 336h71v-323h77zM821 714l-393 -734l-58 9l394 735zM921 395l-170 -217h170v217z" />
<glyph unicode="&#xbf;" horiz-adv-x="513" d="M318 465q0 -21 -15 -35.5t-35 -14.5t-35 14.5t-15 34.5q0 21 15 35.5t35 14.5t35 -14.5t15 -34.5zM473 -77q-41 -76 -93 -106t-130 -30q-94 0 -152 50t-58 133q0 47 17.5 83t39 56.5t65.5 54.5q51 39 61.5 65.5t10.5 94.5h71q0 -75 -17.5 -116t-78.5 -88q-3 -2 -19 -14.5 t-19 -15.5l-16 -13q-13 -11 -16 -16.5t-11 -17t-10.5 -20.5t-5 -22t-2.5 -28q0 -51 37.5 -87.5t104.5 -36.5q63 0 98 22t64 87z" />
<glyph unicode="&#xc0;" horiz-adv-x="658" d="M628 0h-77l-71 195h-302l-71 -195h-77l265 703h71zM458 258l-128 364l-129 -364h257zM371 764h-56l-161 150h109z" />
<glyph unicode="&#xc1;" horiz-adv-x="658" d="M628 0h-77l-71 195h-302l-71 -195h-77l265 703h71zM458 258l-128 364l-129 -364h257zM510 914l-160 -150h-56l107 150h109z" />
<glyph unicode="&#xc2;" horiz-adv-x="658" d="M628 0h-77l-71 195h-302l-71 -195h-77l265 703h71zM458 258l-128 364l-129 -364h257zM484 780h-59l-99 84l-95 -84h-57l126 149h55z" />
<glyph unicode="&#xc3;" horiz-adv-x="658" d="M628 0h-77l-71 195h-302l-71 -195h-77l265 703h71zM458 258l-128 364l-129 -364h257zM496 886q-7 -50 -33 -80t-65 -30q-35 0 -76 27q-33 21 -43.5 26.5t-22.5 5.5q-30 0 -42 -55l-52 5q4 45 31 76.5t67 31.5q38 0 74 -25q47 -32 67 -32q32 0 44 55z" />
<glyph unicode="&#xc4;" horiz-adv-x="658" d="M628 0h-77l-71 195h-302l-71 -195h-77l265 703h71zM458 258l-128 364l-129 -364h257zM455 811q0 -17 -12 -29t-29 -12q-16 0 -28.5 12t-12.5 29t12 29t29 12t29 -12t12 -29zM285 811q0 -17 -12 -29t-29 -12t-29 12t-12 29t12 29t29 12t29 -12t12 -29z" />
<glyph unicode="&#xc5;" horiz-adv-x="658" d="M628 0h-77l-71 195h-302l-71 -195h-77l265 703h71zM458 258l-128 364l-129 -364h257zM427 834q0 -41 -28 -69.5t-70 -28.5t-70 28.5t-28 69.5t28 69t70 28t70 -28t28 -69zM385 834q0 24 -15.5 40t-40.5 16t-40.5 -16t-15.5 -40q0 -25 15.5 -41t40.5 -16t40.5 16t15.5 41z " />
<glyph unicode="&#xc6;" horiz-adv-x="1009" d="M974 0h-467v192h-269l-123 -192h-85l461 703h466v-66h-380v-237h287v-66h-287v-268h397v-66zM507 616h1l-71 -115l-87 -135l-70 -108h227v358z" />
<glyph unicode="&#xc7;" horiz-adv-x="651" d="M611 537l-70 -27q-59 143 -194 143q-107 0 -165 -87.5t-58 -213.5q0 -124 58 -212.5t165 -88.5q115 0 175 107l62 -40q-77 -128 -227 -132l-14 -35q22 9 42 9q28 0 48.5 -17.5t20.5 -49.5q0 -41 -31.5 -63t-78.5 -22q-31 0 -79 20l10 30q30 -15 62 -15q35 0 48.5 13 t13.5 28q0 16 -11 26t-30 10q-21 0 -35 -11l-30 6l28 72q-132 11 -201.5 116t-69.5 248q0 159 79.5 263t218.5 104q96 0 162.5 -49t100.5 -132z" />
<glyph unicode="&#xc8;" horiz-adv-x="562" d="M532 0h-462v703h442v-66h-370v-236h279v-66h-279v-268h390v-67zM356 764h-56l-161 150h109z" />
<glyph unicode="&#xc9;" horiz-adv-x="562" d="M532 0h-462v703h442v-66h-370v-236h279v-66h-279v-268h390v-67zM475 914l-160 -150h-56l107 150h109z" />
<glyph unicode="&#xca;" horiz-adv-x="562" d="M532 0h-462v703h442v-66h-370v-236h279v-66h-279v-268h390v-67zM459 780h-59l-99 84l-95 -84h-57l126 149h55z" />
<glyph unicode="&#xcb;" horiz-adv-x="562" d="M440 811q0 -17 -12 -29t-29 -12t-29 12t-12 29t12 29t29 12t29 -12t12 -29zM270 811q0 -17 -12 -29t-29 -12t-29 12t-12 29t12 29t29 12t29 -12t12 -29zM532 0h-462v703h442v-66h-370v-236h279v-66h-279v-268h390v-67z" />
<glyph unicode="&#xcc;" horiz-adv-x="213" d="M143 0h-73v703h73v-703zM145 764h-56l-160 150h109z" />
<glyph unicode="&#xcd;" horiz-adv-x="213" d="M143 0h-73v703h73v-703zM282 914l-160 -150h-56l107 150h109z" />
<glyph unicode="&#xce;" horiz-adv-x="213" d="M261 780h-58l-100 84l-95 -84h-56l125 149h55zM142 0h-72v703h72v-703z" />
<glyph unicode="&#xcf;" horiz-adv-x="213" d="M143 0h-73v703h73v-703zM233 811q0 -17 -12.5 -29t-28.5 -12q-17 0 -29 12t-12 29t12 29t29 12t29 -12t12 -29zM62 811q0 -17 -12 -29t-29 -12t-29 12t-12 29t12 29t29 12t29 -12t12 -29z" />
<glyph unicode="&#xd0;" horiz-adv-x="678" d="M622 355q0 -200 -118 -294q-44 -35 -98 -48t-137 -13h-177v341h-72v62h71v300h187q115 0 180 -30q75 -35 119.5 -118t44.5 -200zM549 351q0 91 -31.5 160.5t-89.5 99.5q-49 26 -151 26h-114v-234h182v-62h-182v-276h106q114 0 169 32q50 29 80.5 94.5t30.5 159.5z" />
<glyph unicode="&#xd1;" horiz-adv-x="670" d="M600 0h-72l-385 589v-589h-73v703h73l384 -590v590h73v-703zM500 886q-7 -50 -33 -80t-65 -30q-35 0 -76 27q-33 21 -43.5 26.5t-22.5 5.5q-30 0 -42 -55l-52 5q4 45 30.5 76.5t67.5 31.5q38 0 74 -25q47 -32 67 -32q33 0 43 55z" />
<glyph unicode="&#xd2;" horiz-adv-x="695" d="M397 764h-56l-161 150h109zM645 354l-1 1q0 -71 -18 -135.5t-52.5 -118t-93 -85t-132.5 -31.5q-60 0 -110 20.5t-84 55.5t-58 82t-35 99.5t-11 108.5q0 159 79.5 263t218.5 104q74 0 132 -30.5t93.5 -82t53.5 -115.5t18 -136zM569 353h1q0 79 -23.5 145.5t-75.5 110.5 t-124 44t-124 -43.5t-75.5 -110t-23.5 -147.5q0 -124 58 -212.5t165 -88.5q60 0 105.5 30t69.5 78t35.5 97t11.5 97z" />
<glyph unicode="&#xd3;" horiz-adv-x="695" d="M516 914l-160 -150h-57l108 150h109zM645 354v1q0 -71 -18 -135.5t-53 -118t-93.5 -85t-132.5 -31.5q-60 0 -110 20.5t-84 55.5t-58 82t-35 99.5t-11 108.5q0 159 79.5 263t218.5 104q98 0 167 -53t99.5 -133.5t30.5 -177.5zM569 353h1q0 79 -23.5 145.5t-75.5 110.5 t-124 44t-124 -43.5t-75.5 -110t-23.5 -147.5q0 -124 58 -212.5t165 -88.5q60 0 105.5 30t69.5 78t35.5 97t11.5 97z" />
<glyph unicode="&#xd4;" horiz-adv-x="695" d="M502 780h-58l-100 84l-95 -84h-57l126 149h55zM645 354v1q0 -71 -18 -135.5t-53 -118t-93.5 -85t-132.5 -31.5q-60 0 -110 20.5t-84 55.5t-58 82t-35 99.5t-11 108.5q0 159 79.5 263t218.5 104q98 0 167 -53t99.5 -133.5t30.5 -177.5zM569 353h1q0 79 -23.5 145.5 t-75.5 110.5t-124 44t-124 -43.5t-75.5 -110t-23.5 -147.5q0 -124 58 -212.5t165 -88.5q60 0 105.5 30t69.5 78t35.5 97t11.5 97z" />
<glyph unicode="&#xd5;" horiz-adv-x="695" d="M514 886q-7 -50 -33 -80t-65 -30q-33 0 -76 27q-33 21 -43.5 26.5t-22.5 5.5q-30 0 -42 -55l-52 5q4 45 31 76.5t67 31.5q38 0 74 -25q48 -32 67 -32q32 0 44 55zM645 354l-1 1q0 -71 -18 -135.5t-52.5 -118t-93 -85t-132.5 -31.5q-60 0 -110 20.5t-84 55.5t-58 82 t-35 99.5t-11 108.5q0 159 79.5 263t218.5 104q74 0 132 -30.5t93.5 -82t53.5 -115.5t18 -136zM569 353h1q0 79 -23.5 145.5t-75.5 110.5t-124 44t-124 -43.5t-75.5 -110t-23.5 -147.5q0 -124 58 -212.5t165 -88.5q60 0 105.5 30t69.5 78t35.5 97t11.5 97z" />
<glyph unicode="&#xd6;" horiz-adv-x="695" d="M473 811q0 -17 -12 -29t-29 -12q-16 0 -28.5 12t-12.5 29t12 29t29 12t29 -12t12 -29zM303 811q0 -17 -12 -29t-29 -12q-16 0 -28.5 12t-12.5 29t12 29t29 12t29 -12t12 -29zM645 354v1q0 -71 -18 -135.5t-53 -118t-93.5 -85t-132.5 -31.5q-60 0 -110 20.5t-84 55.5 t-58 82t-35 99.5t-11 108.5q0 159 79.5 263t218.5 104q98 0 167 -53t99.5 -133.5t30.5 -177.5zM569 353h1q0 79 -23.5 145.5t-75.5 110.5t-124 44t-124 -43.5t-75.5 -110t-23.5 -147.5q0 -124 58 -212.5t165 -88.5q60 0 105.5 30t69.5 78t35.5 97t11.5 97z" />
<glyph unicode="&#xd7;" horiz-adv-x="581" d="M521 66l-46 -45l-185 187l-184 -187l-46 45l185 187l-185 187l46 46l184 -187l185 187l46 -46l-185 -187z" />
<glyph unicode="&#xd8;" horiz-adv-x="694" d="M644 354q0 -71 -18 -135.5t-52.5 -117.5t-93 -84.5t-133.5 -31.5q-96 0 -165 53l-59 -95l-50 18l70 112q-93 103 -93 278q0 158 79.5 262t218.5 104q96 0 166 -51l58 93l49 -18l-69 -110q92 -101 92 -270v-7zM569 353v8q0 120 -58 204l-292 -467q53 -47 128 -47 q60 0 105.5 30t69.5 78t35.5 97t11.5 97zM476 605q-54 48 -129 48q-107 0 -165 -88t-58 -213q0 -130 60 -214z" />
<glyph unicode="&#xd9;" horiz-adv-x="629" d="M380 764h-56l-160 150h109zM574 331v1q0 -183 -58 -265t-201 -82q-144 0 -202 81.5t-58 264.5v372h73v-417q0 -54 7.5 -93t26.5 -73t57 -51t94 -17q108 0 148 60.5t40 173.5v417h73v-372z" />
<glyph unicode="&#xda;" horiz-adv-x="629" d="M490 914l-161 -150h-56l108 150h109zM574 331v1q0 -183 -58 -265t-201 -82q-144 0 -202 81.5t-58 264.5v372h73v-417q0 -54 7.5 -93t26.5 -73t57 -51t94 -17q108 0 148 60.5t40 173.5v417h73v-372z" />
<glyph unicode="&#xdb;" horiz-adv-x="629" d="M469 780h-58l-100 84l-95 -84h-56l125 149h55zM574 331v1q0 -183 -58 -265t-201 -82q-144 0 -202 81.5t-58 264.5v372h73v-417q0 -54 7.5 -93t26.5 -73t57 -51t94 -17q108 0 148 60.5t40 173.5v417h73v-372z" />
<glyph unicode="&#xdc;" horiz-adv-x="629" d="M440 811q0 -17 -12 -29t-29 -12t-29 12t-12 29t12 29t29 12t29 -12t12 -29zM270 811q0 -17 -12 -29t-29 -12t-29 12t-12 29t12 29t29 12t29 -12t12 -29zM574 331v1q0 -183 -58 -265t-201 -82q-144 0 -202 81.5t-58 264.5v372h73v-417q0 -54 7.5 -93t26.5 -73t57 -51 t94 -17q108 0 148 60.5t40 173.5v417h73v-372z" />
<glyph unicode="&#xdd;" horiz-adv-x="611" d="M596 703l-258 -418v-285h-71v284l-252 419h83l205 -351l209 351h84zM469 914l-161 -150h-56l107 150h110z" />
<glyph unicode="&#xde;" horiz-adv-x="613" d="M587 385q0 -62 -22.5 -105t-63.5 -64t-85.5 -29t-102.5 -8h-164v-179h-70v703h70v-117h181q45 0 80.5 -4.5t70 -18t57 -35.5t36 -58t13.5 -85zM516 383q0 44 -14.5 73t-43.5 43t-59 18.5t-74 4.5h-176v-278h161q36 0 61 2t54.5 10t47.5 22.5t30.5 41t12.5 63.5z" />
<glyph unicode="&#xdf;" horiz-adv-x="530" d="M480 197q0 -102 -58 -153.5t-152 -51.5q-31 0 -63 16v70q33 -23 64 -23q137 0 137 139q0 74 -59 119t-148 45v63h12q60 0 104.5 31t44.5 89q0 48 -29.5 78t-80.5 30q-30 0 -51.5 -11.5t-33 -28.5t-18 -44t-8 -48t-1.5 -52v-540l-70 -22v567q0 52 8 91.5t27.5 75.5 t58.5 55.5t95 19.5q85 0 129.5 -50t44.5 -121q0 -54 -26.5 -92t-74.5 -53q73 -18 110.5 -72t37.5 -127z" />
<glyph unicode="&#xe0;" d="M482 0h-54q-25 0 -39.5 13t-14.5 34v26q-57 -83 -165 -83q-74 0 -116.5 40.5t-42.5 108.5q0 62 37.5 103t88 56.5t111.5 15.5q59 0 87 -13v41q0 54 -26 82.5t-87 28.5q-51 0 -77.5 -17t-55.5 -61l-48 37q24 49 73.5 75t107.5 26q74 0 128 -40.5t54 -110.5v-295 q0 -22 27 -22h12v-45zM374 163v67q-22 27 -89 27q-68 0 -117.5 -33.5t-49.5 -81.5q0 -43 26 -68.5t73 -25.5q54 0 99.5 34.5t57.5 80.5zM306 577l-56 -1l-160 151h109z" />
<glyph unicode="&#xe1;" d="M482 0h-54q-25 0 -39.5 13t-14.5 34v26q-57 -83 -165 -83q-74 0 -116.5 40.5t-42.5 108.5q0 62 37.5 103t88 56.5t111.5 15.5q59 0 87 -13v41q0 54 -26 82.5t-87 28.5q-51 0 -77.5 -17t-55.5 -61l-48 37q24 49 73.5 75t107.5 26q74 0 128 -40.5t54 -110.5v-295 q0 -22 27 -22h12v-45zM374 163v67q-22 27 -89 27q-68 0 -117.5 -33.5t-49.5 -81.5q0 -43 26 -68.5t73 -25.5q54 0 99.5 34.5t57.5 80.5zM437 727l-161 -151h-56l108 151h109z" />
<glyph unicode="&#xe2;" d="M482 0h-54q-25 0 -39.5 13t-14.5 34v26q-57 -83 -165 -83q-74 0 -116.5 40.5t-42.5 108.5q0 62 37.5 103t88 56.5t111.5 15.5q59 0 87 -13v41q0 54 -26 82.5t-87 28.5q-51 0 -77.5 -17t-55.5 -61l-48 37q24 49 73.5 75t107.5 26q74 0 128 -40.5t54 -110.5v-295 q0 -22 27 -22h12v-45zM374 163v67q-22 27 -89 27q-68 0 -117.5 -33.5t-49.5 -81.5q0 -43 26 -68.5t73 -25.5q54 0 99.5 34.5t57.5 80.5zM420 574h-58l-100 84l-95 -84h-56l125 149h55z" />
<glyph unicode="&#xe3;" d="M482 0h-54q-25 0 -39.5 13t-14.5 34v26q-57 -83 -165 -83q-74 0 -116.5 40.5t-42.5 108.5q0 62 37.5 103t88 56.5t111.5 15.5q59 0 87 -13v41q0 54 -26 82.5t-87 28.5q-51 0 -77.5 -17t-55.5 -61l-48 37q24 49 73.5 75t107.5 26q74 0 128 -40.5t54 -110.5v-295 q0 -22 27 -22h12v-45zM374 163v67q-22 27 -89 27q-68 0 -117.5 -33.5t-49.5 -81.5q0 -43 26 -68.5t73 -25.5q54 0 99.5 34.5t57.5 80.5zM429 697q-7 -50 -33 -80.5t-65 -30.5q-35 0 -80.5 30t-61.5 30q-30 0 -42 -55l-52 4q4 45 30.5 77t67.5 32q35 0 78.5 -29t62.5 -29 q32 0 44 56z" />
<glyph unicode="&#xe4;" d="M390 639q0 -17 -12 -29t-29 -12t-29 12t-12 29t12 29t29 12t29 -12t12 -29zM220 639q0 -17 -12 -29t-29 -12t-29 12t-12 29t12 29t29 12t29 -12t12 -29zM482 0h-54q-25 0 -39.5 13t-14.5 34v26q-57 -83 -165 -83q-74 0 -116.5 40.5t-42.5 108.5q0 62 37.5 103t88 56.5 t111.5 15.5q59 0 87 -13v41q0 54 -26 82.5t-87 28.5q-51 0 -77.5 -17t-55.5 -61l-48 37q24 49 73.5 75t107.5 26q74 0 128 -40.5t54 -110.5v-295q0 -22 27 -22h12v-45zM374 163v67q-22 27 -89 27q-68 0 -117.5 -33.5t-49.5 -81.5q0 -43 26 -68.5t73 -25.5q54 0 99.5 34.5 t57.5 80.5z" />
<glyph unicode="&#xe5;" d="M482 0h-54q-25 0 -39.5 13t-14.5 34v26q-57 -83 -165 -83q-74 0 -116.5 40.5t-42.5 108.5q0 62 37.5 103t88 56.5t111.5 15.5q59 0 87 -13v41q0 54 -26 82.5t-87 28.5q-51 0 -77.5 -17t-55.5 -61l-48 37q24 49 73.5 75t107.5 26q74 0 128 -40.5t54 -110.5v-295 q0 -22 27 -22h12v-45zM374 163v67q-22 27 -89 27q-68 0 -117.5 -33.5t-49.5 -81.5q0 -43 26 -68.5t73 -25.5q54 0 99.5 34.5t57.5 80.5zM356 674q0 -42 -28 -70.5t-70 -28.5t-70 28.5t-28 69.5t28 69.5t70 28.5t70 -28t28 -69zM313 674v-1q0 24 -16 40.5t-40 16.5 q-25 0 -40.5 -16t-15.5 -40q0 -25 15.5 -41.5t40.5 -16.5t40.5 16.5t15.5 41.5z" />
<glyph unicode="&#xe6;" horiz-adv-x="855" d="M805 265q0 -13 -3 -29h-358q3 -78 40.5 -132t112.5 -54q90 0 148 75l47 -36q-70 -100 -199 -100q-130 0 -188 113q-37 -58 -82.5 -85.5t-112.5 -27.5q-75 0 -117.5 41t-42.5 109q0 46 21 81t55.5 54.5t74 29.5t81.5 10q66 0 93 -13v41q0 111 -113 111q-40 0 -68.5 -13 t-39.5 -26.5t-26 -38.5l-48 37q25 49 74.5 75t107.5 26q52 0 96.5 -21.5t67.5 -60.5q62 81 165 81q100 0 157 -71t57 -176zM734 293q-7 70 -42 114t-102 44q-60 0 -99 -41.5t-46 -116.5h289zM375 163v67q-22 27 -89 27q-68 0 -118 -33.5t-50 -81.5q0 -44 26 -69t74 -25 q54 0 99.5 34.5t57.5 80.5z" />
<glyph unicode="&#xe7;" horiz-adv-x="492" d="M452 420l-52 -36q-44 67 -127 67q-66 0 -108.5 -53t-42.5 -146q0 -85 37 -144t113 -59q77 0 124 68l55 -32q-66 -95 -176 -96l-25 -53q22 9 45 9q28 0 48 -17t20 -49q0 -41 -31 -63t-79 -22q-32 0 -78 20l10 29q31 -14 62 -14q35 0 48 13t13 28t-11 25t-29 10 q-23 0 -38 -12l-30 7l42 90q-88 10 -140 80.5t-52 177.5q0 126 65.5 195t161.5 69q57 0 96.5 -22.5t78.5 -69.5z" />
<glyph unicode="&#xe8;" horiz-adv-x="526" d="M481 258q0 -8 -2 -22h-357q2 -78 39.5 -132t112.5 -54q90 0 148 75l47 -36q-70 -101 -199 -101q-98 0 -159 70.5t-61 194.5q0 119 62.5 189t155.5 70q104 0 158.5 -73t54.5 -181zM411 293q-7 70 -42 114t-102 44q-59 0 -98 -41.5t-46 -116.5h288zM321 577l-56 -1 l-160 151h109z" />
<glyph unicode="&#xe9;" horiz-adv-x="526" d="M481 258q0 -8 -2 -22h-357q2 -78 39.5 -132t112.5 -54q90 0 148 75l47 -36q-70 -101 -199 -101q-98 0 -159 70.5t-61 194.5q0 119 62.5 189t155.5 70q104 0 158.5 -73t54.5 -181zM411 293q-7 70 -42 114t-102 44q-59 0 -98 -41.5t-46 -116.5h288zM440 727l-161 -151h-56 l108 151h109z" />
<glyph unicode="&#xea;" horiz-adv-x="526" d="M481 258q0 -8 -2 -22h-357q2 -78 39.5 -132t112.5 -54q90 0 148 75l47 -36q-70 -101 -199 -101q-98 0 -159 70.5t-61 194.5q0 119 62.5 189t155.5 70q104 0 158.5 -73t54.5 -181zM411 293q-7 70 -42 114t-102 44q-59 0 -98 -41.5t-46 -116.5h288zM423 572l-58 -1l-100 85 l-95 -85h-56l125 150h55z" />
<glyph unicode="&#xeb;" horiz-adv-x="526" d="M481 258q0 -8 -2 -22h-357q2 -78 39.5 -132t112.5 -54q90 0 148 75l47 -36q-70 -101 -199 -101q-98 0 -159 70.5t-61 194.5q0 119 62.5 189t155.5 70q104 0 158.5 -73t54.5 -181zM411 293q-7 70 -42 114t-102 44q-59 0 -98 -41.5t-46 -116.5h288zM398 639 q0 -17 -11.5 -29t-28.5 -12t-29 12t-12 29t12 29t29 12t28.5 -12t11.5 -29zM228 639q0 -17 -12 -29t-29 -12t-29 12t-12 29t12 29t29 12t29 -12t12 -29z" />
<glyph unicode="&#xec;" horiz-adv-x="209" d="M156 577l-56 -1l-161 151h109zM139 0h-69v501h69v-501z" />
<glyph unicode="&#xed;" horiz-adv-x="209" d="M298 727l-161 -151h-56l108 151h109zM139 0h-69v501h69v-501z" />
<glyph unicode="&#xee;" horiz-adv-x="209" d="M259 569h-58l-100 84l-95 -84h-56l125 149h55zM139 0h-69v501h69v-501z" />
<glyph unicode="&#xef;" horiz-adv-x="209" d="M231 639q0 -17 -12 -29t-29 -12t-29 12t-12 29t12 29t29 12t29 -12t12 -29zM60 639q0 -17 -12 -29t-29 -12t-29 12t-12 29t12 29t29 12t29 -12t12 -29zM139 0h-69v501h69v-501z" />
<glyph unicode="&#xf0;" horiz-adv-x="560" d="M502 281q0 -45 -6.5 -85.5t-22.5 -78.5t-41 -66t-64.5 -44.5t-89.5 -16.5q-101 0 -161 68.5t-60 176.5q0 114 60.5 183t152.5 69q99 0 156 -75q-24 96 -86 167l-107 -57l-34 42l98 51q-40 36 -82 53l22 49q13 -8 61 -35q28 -16 48 -33l62 33l35 -41l-56 -29 q115 -136 115 -331zM430 237q0 32 -7 63t-23.5 60.5t-48 48t-74.5 18.5q-77 0 -112.5 -55t-35.5 -136q0 -92 42 -138.5t108 -46.5q71 0 111 49.5t40 136.5z" />
<glyph unicode="&#xf1;" horiz-adv-x="527" d="M457 0h-69v277q0 94 -27.5 133.5t-88.5 39.5q-71 0 -102 -47.5t-31 -144.5v-258h-69v501h69v-71q44 81 145 81q92 0 132.5 -57t40.5 -171v-283zM429 697q-7 -50 -33 -80.5t-65 -30.5q-35 0 -76 27q-47 31 -59 32q-3 1 -7 1q-30 0 -42 -55l-52 4q4 45 31 77t67 32 q36 0 74 -25q46 -33 67 -33q32 0 44 56z" />
<glyph unicode="&#xf2;" horiz-adv-x="544" d="M494 253q1 -110 -57.5 -187.5t-165.5 -77.5q-100 0 -160.5 71t-60.5 188q0 116 60 190.5t163 74.5t162 -71.5t59 -187.5zM423 249q0 27 -3.5 53t-14 54t-27 48.5t-43.5 34t-62 13.5q-79 0 -115 -59t-36 -145q0 -98 41 -148.5t109 -50.5q72 0 111.5 53t39.5 147zM315 577 l-56 -1l-160 151h109z" />
<glyph unicode="&#xf3;" horiz-adv-x="544" d="M494 253q1 -110 -57.5 -187.5t-165.5 -77.5q-100 0 -160.5 71t-60.5 188q0 116 60 190.5t163 74.5t162 -71.5t59 -187.5zM423 249q0 27 -3.5 53t-14 54t-27 48.5t-43.5 34t-62 13.5q-79 0 -115 -59t-36 -145q0 -98 41 -148.5t109 -50.5q72 0 111.5 53t39.5 147zM444 727 l-161 -151h-56l108 151h109z" />
<glyph unicode="&#xf4;" horiz-adv-x="544" d="M494 253q1 -110 -57.5 -187.5t-165.5 -77.5q-100 0 -160.5 71t-60.5 188q0 116 60 190.5t163 74.5t162 -71.5t59 -187.5zM423 249q0 27 -3.5 53t-14 54t-27 48.5t-43.5 34t-62 13.5q-79 0 -115 -59t-36 -145q0 -98 41 -148.5t109 -50.5q72 0 111.5 53t39.5 147zM429 572 l-59 -1l-99 85l-95 -85h-57l126 150h55z" />
<glyph unicode="&#xf5;" horiz-adv-x="544" d="M494 253q1 -110 -57.5 -187.5t-165.5 -77.5q-100 0 -160.5 71t-60.5 188q0 116 60 190.5t163 74.5t162 -71.5t59 -187.5zM423 249q0 27 -3.5 53t-14 54t-27 48.5t-43.5 34t-62 13.5q-79 0 -115 -59t-36 -145q0 -98 41 -148.5t109 -50.5q72 0 111.5 53t39.5 147zM438 697 q-7 -50 -33 -80.5t-65 -30.5q-35 0 -76 27q-47 31 -59 32q-3 1 -7 1q-30 0 -42 -55l-52 4q4 45 31 77t67 32q36 0 74 -25q46 -33 67 -33q32 0 44 56z" />
<glyph unicode="&#xf6;" horiz-adv-x="544" d="M398 639q0 -17 -12 -29t-29 -12t-29 12t-12 29t12 29t29 12t29 -12t12 -29zM228 639q0 -17 -12 -29t-29 -12t-29 12t-12 29t12 29t29 12t29 -12t12 -29zM494 253q1 -110 -57.5 -187.5t-165.5 -77.5q-100 0 -160.5 71t-60.5 188q0 116 60 190.5t163 74.5t162 -71.5 t59 -187.5zM423 249q0 27 -3.5 53t-14 54t-27 48.5t-43.5 34t-62 13.5q-79 0 -115 -59t-36 -145q0 -98 41 -148.5t109 -50.5q72 0 111.5 53t39.5 147z" />
<glyph unicode="&#xf7;" horiz-adv-x="622" d="M367 510q0 -23 -16.5 -39.5t-39.5 -16.5t-39.5 16.5t-16.5 39.5t16.5 39.5t39.5 16.5t39.5 -16.5t16.5 -39.5zM582 283h-542v64h542v-64zM367 121q0 -23 -16.5 -39.5t-39.5 -16.5t-39.5 16.5t-16.5 39.5t16.5 39.5t39.5 16.5t39.5 -16.5t16.5 -39.5z" />
<glyph unicode="&#xf8;" horiz-adv-x="544" d="M522 534l-71 -98q57 -69 57 -183q0 -111 -58.5 -188t-165.5 -77q-72 0 -127 39l-57 -80l-50 18l70 98q-57 71 -57 183q0 116 60.5 190.5t163.5 74.5q74 0 127 -39l58 80zM376 419q-35 33 -89 33q-55 0 -90.5 -32t-48.5 -75.5t-13 -97.5q0 -77 27 -126zM437 249 q0 75 -28 128l-214 -297q38 -32 90 -32q72 0 112 53.5t40 146.5v1z" />
<glyph unicode="&#xf9;" horiz-adv-x="517" d="M447 0h-69v71q-47 -82 -146 -82q-93 0 -132.5 58.5t-39.5 176.5v277h69v-277q0 -92 27.5 -132.5t86.5 -40.5q135 0 135 192v258h69v-501zM311 577l-56 -1l-160 151h109z" />
<glyph unicode="&#xfa;" horiz-adv-x="517" d="M447 0h-69v71q-47 -82 -146 -82q-93 0 -132.5 58.5t-39.5 176.5v277h69v-277q0 -92 27.5 -132.5t86.5 -40.5q135 0 135 192v258h69v-501zM417 727l-160 -151h-56l107 151h109z" />
<glyph unicode="&#xfb;" horiz-adv-x="517" d="M447 0h-69v71q-47 -82 -146 -82q-93 0 -132.5 58.5t-39.5 176.5v277h69v-277q0 -92 27.5 -132.5t86.5 -40.5q135 0 135 192v258h69v-501zM410 577l-59 -1l-99 85l-95 -85h-57l126 150h55z" />
<glyph unicode="&#xfc;" horiz-adv-x="517" d="M380 639q0 -17 -12 -29t-29 -12t-29 12t-12 29t12 29t29 12t29 -12t12 -29zM210 639q0 -17 -12 -29t-29 -12t-29 12t-12 29t12 29t29 12t29 -12t12 -29zM447 0h-69v71q-47 -82 -146 -82q-93 0 -132.5 58.5t-39.5 176.5v277h69v-277q0 -92 27.5 -132.5t86.5 -40.5 q135 0 135 192v258h69v-501z" />
<glyph unicode="&#xfd;" horiz-adv-x="489" d="M426 722l-161 -151h-56l107 151h110zM461 501l-242 -636q-13 -35 -39.5 -54t-59.5 -19q-14 0 -40 11v53q19 -8 38 -8q16 0 25.5 8.5t17.5 30.5l44 114l-177 500h71l141 -416l149 416h72z" />
<glyph unicode="&#xfe;" horiz-adv-x="543" d="M487 254q0 -118 -54.5 -192t-143.5 -74q-94 0 -145 77v-265h-68v903h68v-269q55 78 149 78q93 0 143.5 -73t50.5 -185zM417 257q0 89 -36 141t-102 52q-32 0 -56.5 -12.5t-40 -36.5t-23 -40.5t-15.5 -40.5l1 -174q17 -44 54.5 -69.5t80.5 -25.5q70 0 103.5 58t33.5 148z " />
<glyph unicode="&#xff;" horiz-adv-x="492" d="M372 634q0 -17 -12 -29t-29 -12t-29 12t-12 29t12 29t29 12t29 -12t12 -29zM202 634q0 -17 -12 -29t-29 -12t-29 12t-12 29t12 29t29 12t29 -12t12 -29zM462 501l-242 -636q-13 -35 -39 -54t-60 -19q-11 0 -40 11v53q21 -8 38 -8q29 0 44 39l43 114l-176 500h70l141 -416 l149 416h72z" />
<glyph unicode="&#x152;" horiz-adv-x="1012" d="M972 0h-454q-70 -15 -144 -15t-136.5 31.5t-103 83t-62.5 117t-22 134.5q0 155 91.5 260.5t233.5 105.5q59 0 143 -14h434v-67h-370v-235h279v-67h-279v-268h390v-66zM510 66v572q-63 18 -137 18q-108 0 -177.5 -91t-69.5 -213q0 -121 69.5 -212t178.5 -91q74 0 136 17z " />
<glyph unicode="&#x153;" horiz-adv-x="905" d="M855 263q0 -17 -2 -27h-358q2 -78 39.5 -132t112.5 -54q90 0 148 75l47 -36q-68 -100 -199 -100q-126 0 -185 108q-61 -108 -187 -108q-100 0 -160.5 70.5t-60.5 187.5q0 116 60.5 190.5t163.5 74.5q126 0 186 -107q29 51 77 79t105 28q100 0 156.5 -71.5t56.5 -177.5z M784 293q-7 70 -42 114t-101 44q-60 0 -99 -41t-47 -117h289zM424 249q0 34 -7 67t-22.5 65t-46.5 51.5t-74 19.5q-80 0 -116 -59.5t-36 -145.5q0 -97 41.5 -147.5t108.5 -50.5q72 0 112 53t40 147z" />
<glyph unicode="&#x178;" horiz-adv-x="611" d="M432 811q0 -17 -12 -29t-29 -12t-29 12t-12 29t12 29t29 12t29 -12t12 -29zM262 811q0 -17 -12 -29t-29 -12t-29 12t-12 29t12 29t29 12t29 -12t12 -29zM596 703l-258 -418v-285h-71v284l-252 419h83l205 -351l209 351h84z" />
<glyph unicode="&#x2c6;" horiz-adv-x="450" d="M380 577l-59 -1l-99 85l-95 -85h-57l125 150h55z" />
<glyph unicode="&#x2dc;" horiz-adv-x="474" d="M404 697q-7 -50 -33 -80.5t-65 -30.5q-35 0 -76 27q-47 31 -59 32q-3 1 -7 1q-30 0 -42 -55l-52 4q4 45 30.5 77t67.5 32q36 0 74 -25q46 -33 67 -33q33 0 43 56z" />
<glyph unicode="&#x2000;" horiz-adv-x="465" />
<glyph unicode="&#x2001;" horiz-adv-x="931" />
<glyph unicode="&#x2002;" horiz-adv-x="465" />
<glyph unicode="&#x2003;" horiz-adv-x="931" />
<glyph unicode="&#x2004;" horiz-adv-x="310" />
<glyph unicode="&#x2005;" horiz-adv-x="232" />
<glyph unicode="&#x2006;" horiz-adv-x="155" />
<glyph unicode="&#x2007;" horiz-adv-x="155" />
<glyph unicode="&#x2008;" horiz-adv-x="116" />
<glyph unicode="&#x2009;" horiz-adv-x="186" />
<glyph unicode="&#x200a;" horiz-adv-x="51" />
<glyph unicode="&#x2010;" horiz-adv-x="350" d="M300 311h-250v69h250v-69z" />
<glyph unicode="&#x2011;" horiz-adv-x="350" d="M300 311h-250v69h250v-69z" />
<glyph unicode="&#x2013;" horiz-adv-x="494" d="M454 312l-414 -1v69h414v-68z" />
<glyph unicode="&#x2014;" horiz-adv-x="626" d="M586 312l-546 -1v69h546v-68z" />
<glyph unicode="&#x2018;" horiz-adv-x="229" d="M194 706l-75 -239h-79l105 250z" />
<glyph unicode="&#x2019;" horiz-adv-x="229" d="M189 702l-105 -249l-49 11l75 238h79z" />
<glyph unicode="&#x201a;" horiz-adv-x="234" d="M194 106l-75 -239h-79l105 250z" />
<glyph unicode="&#x201c;" horiz-adv-x="399" d="M194 706l-75 -239h-79l105 250zM364 706l-75 -239h-78l105 250z" />
<glyph unicode="&#x201d;" horiz-adv-x="399" d="M189 702l-105 -249l-49 11l75 238h79zM359 702l-105 -249l-48 11l75 238h78z" />
<glyph unicode="&#x201e;" horiz-adv-x="404" d="M194 106l-75 -239h-79l105 250zM364 106l-75 -239h-78l105 250z" />
<glyph unicode="&#x2022;" horiz-adv-x="356" d="M291 360q0 -47 -33 -80.5t-80 -33.5q-46 0 -79.5 33t-33.5 80t33 81t80 34q46 0 79.5 -33.5t33.5 -80.5z" />
<glyph unicode="&#x2026;" horiz-adv-x="650" d="M139 40q0 -21 -14.5 -35.5t-34.5 -14.5q-21 0 -35.5 14.5t-14.5 34.5q0 21 14.5 35.5t34.5 14.5q21 0 35.5 -14.5t14.5 -34.5zM373 40q0 -21 -14.5 -35.5t-34.5 -14.5q-21 0 -35.5 14.5t-14.5 34.5q0 21 14.5 35.5t34.5 14.5q21 0 35.5 -14.5t14.5 -34.5zM610 40 q0 -21 -14.5 -35.5t-34.5 -14.5q-21 0 -35.5 14.5t-14.5 34.5q0 21 14.5 35.5t34.5 14.5q21 0 35.5 -14.5t14.5 -34.5z" />
<glyph unicode="&#x202f;" horiz-adv-x="186" />
<glyph unicode="&#x2039;" horiz-adv-x="307" d="M267 84l-66 -16l-161 217l161 225l66 -15l-151 -209z" />
<glyph unicode="&#x203a;" horiz-adv-x="307" d="M267 293l-161 -225l-66 15l151 209l-151 202l66 16z" />
<glyph unicode="&#x205f;" horiz-adv-x="232" />
<glyph unicode="&#x20ac;" horiz-adv-x="687" d="M657 537l-70 -27q-59 143 -194 143q-86 0 -140.5 -57.5t-72.5 -150.5h262l-22 -64h-249v-29q0 -27 1 -40h270l-22 -64h-238q21 -88 74.5 -142.5t136.5 -54.5q115 0 175 107l62 -40q-81 -133 -236 -133q-118 0 -191.5 73.5t-96.5 189.5h-106l20 64h77q-1 13 -1 39 q0 20 1 29h-97l20 65h84q22 122 97.5 197.5t192.5 75.5q96 0 162.5 -49t100.5 -132z" />
<glyph unicode="&#x2122;" horiz-adv-x="746" d="M696 338h-46v297q-12 -47 -28.5 -94.5t-41.5 -112.5l-36 -91h-26q-1 2 -27 71l-47 128q-21 60 -31 98q1 -33 1 -296h-44v366h60q0 -1 21 -58l47 -129q25 -73 35 -106q17 57 59 173t44 120h60v-366zM321 662h-111v-324h-47v323h-113v43h271v-42z" />
</font>
</defs>
</svg>
