<?xml version="1.0" standalone="no"?>
<!DOCTYPE svg PUBLIC "-//W3C//DTD SVG 1.1//EN" "http://www.w3.org/Graphics/SVG/1.1/DTD/svg11.dtd" >
<svg xmlns="http://www.w3.org/2000/svg">
<metadata>
This is a custom SVG webfont generated by Font Squirrel.
Copyright   : Copyright c 1991 Adobe Systems Incorporated  All Rights ReservedBerthold Akzidenz Grotesk is a registered trademark of H Berthold AG
Foundry     : Adobe Systems Incorporated
</metadata>
<defs>
<font id="webfontjpY7miXs" horiz-adv-x="1024" >
<font-face units-per-em="2048" ascent="1638" descent="-410" />
<missing-glyph horiz-adv-x="555" />
<glyph unicode=" "  horiz-adv-x="555" />
<glyph unicode="&#x09;" horiz-adv-x="555" />
<glyph unicode="&#xa0;" horiz-adv-x="555" />
<glyph unicode="!" horiz-adv-x="598" d="M186 0v315h303v-315h-303zM190 1272v174h302v-174v-45q0 -20 -2.5 -51t-4.5 -76t-8 -115q-4 -53 -10 -120.5t-13.5 -137.5t-13.5 -137.5t-10 -120.5h-188l-11 151l-7 100q-3 42 -6 78t-5 83q-8 96 -12 155.5t-6 99.5l-3.5 69.5t-1.5 66.5z" />
<glyph unicode="&#x22;" horiz-adv-x="811" d="M45 1391q0 45 18.5 73.5t43 44t51 20.5t43.5 5q23 0 47 -7t43.5 -22.5t33 -41t13.5 -62.5q0 -12 -4 -29l-109 -536h-63l-111 512q-6 20 -6 43zM473 1391q0 45 17.5 73.5t42 44t50 20.5t44.5 5q53 0 96 -32t43 -99q0 -10 -4 -31l-109 -536h-63l-113 512q-2 10 -3 21.5 t-1 21.5z" />
<glyph unicode="#" horiz-adv-x="1193" d="M0 381v254h229l27 194h-205v254h240l51 361h254l-49 -361h203l49 361h256l-49 -361h188v-254h-223l-27 -194h201v-254h-238l-53 -381h-258l55 381h-202l-54 -381h-254l52 381h-193zM483 635h203l27 194h-201z" />
<glyph unicode="$" d="M53 463h346v-101q0 -25 2 -48t13.5 -41.5t33 -30t60.5 -11.5q45 0 68.5 11.5t35 29t13.5 41t2 47.5q0 35 -5.5 57.5t-23.5 44t-56 48.5l-106 74q-123 84 -194.5 137t-109.5 101t-49 102.5t-11 140.5q0 117 22.5 191.5t66.5 118.5t110.5 64.5t156.5 28.5v240h170v-240 q113 -10 181.5 -34.5t105.5 -76.5t48 -137t9 -216h-332v104q0 27 -2 48.5t-13 36.5t-32.5 24.5t-58.5 9.5q-35 0 -53.5 -11.5t-26.5 -31t-10 -46t-2 -55.5q0 -45 7 -66.5t38 -47.5l21 -16.5t30 -20.5l47 -32l74 -48l179 -122q69 -48 105.5 -94t50 -101.5t13.5 -141.5 q0 -115 -23.5 -188.5t-70.5 -119.5t-118 -68.5t-167 -34.5v-263h-170v263q-41 4 -91 12t-98.5 26.5t-90.5 52t-66 93.5q-23 53 -27 129t-2 168z" />
<glyph unicode="%" horiz-adv-x="1622" d="M55 784v414q0 59 10.5 108.5t41 85t89 55t154.5 19.5q100 0 156.5 -22.5t84 -57t35 -76.5t7.5 -79v-420q0 -41 -5 -89t-32 -89t-82 -69.5t-156 -28.5q-102 0 -162.5 22.5t-91 57t-40 79.5t-9.5 90zM272 768q0 -31 12.5 -48.5t59.5 -17.5q49 0 62.5 18.5t13.5 47.5v469 q0 41 -15.5 55.5t-62.5 14.5q-27 0 -41 -7.5t-20.5 -18.5t-7.5 -23.5t-1 -20.5v-469zM494 0l477 1446h145l-477 -1446h-145zM987 242v415q0 59 10.5 108.5t41 85.5t89 55.5t154.5 19.5q100 0 156.5 -22.5t84 -57.5t35 -77t7.5 -79v-424q0 -41 -5.5 -89t-32 -89t-81.5 -68.5 t-156 -27.5q-102 0 -161.5 22.5t-91 57t-41 80t-9.5 90.5zM1206 223q0 -29 12.5 -46t59.5 -17q49 0 62.5 18.5t13.5 46.5v469q0 41 -15.5 56.5t-62.5 15.5q-27 0 -41 -7t-20.5 -18.5t-7.5 -23.5t-1 -21v-473z" />
<glyph unicode="&#x26;" horiz-adv-x="1236" d="M43 367q0 51 10 91t25.5 68.5t31 49t27.5 32.5q14 16 27 28l34 30l60 47l107 80l-61 97q-26 42 -42 78t-24.5 70.5t-8.5 75.5q0 57 22.5 112.5t68 99.5t115 71.5t165.5 27.5q78 0 146.5 -19.5t120 -57t81 -96t29.5 -136.5q0 -68 -24.5 -121t-62.5 -97t-84 -80l-87 -66 l149 -252q8 39 12.5 64.5t7.5 49t3 49.5v62h244q-4 -96 -10.5 -161.5t-18.5 -118t-33.5 -98.5t-54.5 -101q12 -23 26.5 -36t36 -19.5t53 -7.5t80.5 -1v-182h-233q-41 0 -66.5 3t-45 10t-35.5 20l-37 28q-45 -29 -112 -57.5t-185 -28.5q-111 0 -197 29t-143.5 81t-87 124 t-29.5 158zM340 393q0 -25 12.5 -58.5t35 -64t56 -53t74.5 -22.5q49 0 89 21.5t69 41.5l-187 320q-23 -12 -48 -30t-47.5 -40.5t-38 -51t-15.5 -63.5zM526 1130q0 -45 26 -92t52 -88q23 14 47.5 32.5t46 40t36 47.5t14.5 56q0 47 -38 78t-85 31q-49 0 -74 -33t-25 -72z" />
<glyph unicode="'" horiz-adv-x="425" d="M68 1389q0 39 12 63q16 37 55 59.5t86 22.5q8 0 30.5 -3t47.5 -16.5t43 -41t18 -76.5q0 -6 -1 -12.5t-1 -12.5l-110 -536h-64l-112 512q-2 10 -3 20.5t-1 20.5z" />
<glyph unicode="(" horiz-adv-x="724" d="M172 100v873q0 111 19.5 186.5t72.5 134.5q45 51 98.5 82t107.5 46.5t107.5 20.5l100.5 9v-125q-70 -6 -111 -22.5t-62.5 -43t-27.5 -65.5t-6 -94v-1161q0 -66 11.5 -107t36 -65.5t64.5 -33.5t95 -11v-125q-37 2 -83 5t-95 14t-99.5 32.5t-95.5 62.5q-49 43 -75.5 92.5 t-40 100.5t-15.5 101t-2 93z" />
<glyph unicode=")" horiz-adv-x="724" d="M47 -276q70 6 111 22t62.5 43t27.5 66t6 94v1161q0 63 -11.5 105t-36 67t-64.5 34t-95 11v125q37 -2 83 -5t95 -14.5t98.5 -34t96.5 -61.5q49 -43 75.5 -92t40 -100t15.5 -101.5t2 -93.5v-874q0 -109 -19.5 -184.5t-72.5 -135.5q-47 -53 -99.5 -82.5t-106.5 -45 t-107.5 -21.5t-100.5 -8v125z" />
<glyph unicode="*" horiz-adv-x="854" d="M47 1182q0 8 4 16l262 27l95 239h18l100 -245l252 -13q2 -4 4 -9t2 -9l-188 -184l68 -244l-17 -15l-221 144l-215 -144q-12 8 -18 15l57 260z" />
<glyph unicode="+" d="M70 467v262h311v315h260v-315h315v-262h-315v-320h-260v320h-311z" />
<glyph unicode="," horiz-adv-x="512" d="M92 -311l111 311h-97v313h302v-313l-175 -311h-141z" />
<glyph unicode="-" horiz-adv-x="681" d="M57 602v248h561v-248h-561z" />
<glyph unicode="." horiz-adv-x="512" d="M104 0v311h304v-311h-304z" />
<glyph unicode="/" horiz-adv-x="641" d="M18 0l353 1446h254l-357 -1446h-250z" />
<glyph unicode="0" d="M68 371v686q0 49 8 120.5t50 137t128 112t242 46.5q104 0 203.5 -25t170.5 -105q31 -35 48.5 -70.5t25.5 -75.5t9 -84t1 -95v-623q0 -74 -12 -147.5t-56 -134t-131 -98.5t-235 -38q-98 0 -182 16.5t-143.5 59.5t-93 120t-33.5 198zM399 354q0 -29 3.5 -52t14.5 -41.5 t33.5 -29t59.5 -10.5q41 0 63.5 12.5t32.5 32t12.5 42t2.5 42.5v740q0 12 -2.5 32.5t-12.5 39t-32.5 31.5t-63.5 13t-63.5 -12t-33 -30.5t-12.5 -38t-2 -33.5v-738z" />
<glyph unicode="1" d="M174 961v292q47 6 85 18.5t68.5 34t57.5 55.5t51 85h266v-1446h-309v1063l-66 -38q-28 -15 -50.5 -25.5t-46 -19.5t-56.5 -19z" />
<glyph unicode="2" d="M78 0q0 123 5 206t36 152.5t95.5 142t180.5 177.5l116 104q44 41 68.5 74t33 62.5t8.5 70.5v109q0 12 -2.5 33.5t-12.5 43t-32.5 37t-63.5 15.5q-43 0 -67.5 -16.5t-35 -38t-12.5 -43t-2 -33.5v-205h-303v186q0 43 3 87t16.5 85t41 80t78.5 74q109 70 289 70 q72 0 127 -11.5t95 -28t67 -36t45 -37.5q33 -31 51.5 -62.5t27.5 -68.5t10 -80t1 -98q0 -90 -7 -146.5t-31.5 -101.5t-72.5 -91l-126 -120l-121 -112q-45 -42 -72 -73.5t-41 -60.5t-27 -72h494v-274h-860z" />
<glyph unicode="3" d="M84 326v174h317v-152q0 -18 2.5 -41.5t12.5 -45t32.5 -36t63.5 -14.5q43 0 66.5 16.5t34 42t12.5 60.5t2 71q0 70 -2 115t-13.5 71.5t-36 36t-69.5 9.5h-137v246q88 0 140 3t78.5 16t34 41t7.5 77q0 59 -3 101t-14.5 67.5t-35 38t-64.5 12.5t-63.5 -13.5t-32.5 -32 t-12.5 -37.5t-2.5 -32v-121h-305v140q0 27 2 58.5t12.5 66t32 68.5t62.5 65q39 29 85 44t88 22t76.5 8.5t55.5 1.5q78 0 153.5 -13.5t141.5 -54.5q47 -31 72.5 -65.5t37 -75.5t13.5 -91.5t2 -107.5t-4 -99t-21.5 -76t-50.5 -63.5t-88 -62.5q66 -25 100.5 -54.5t51 -72.5 t19.5 -100.5t3 -137.5q0 -82 -7 -158.5t-47 -136t-127 -95.5t-249 -36q-152 0 -237 29t-127 77t-52 111.5t-10 135.5z" />
<glyph unicode="4" d="M70 315v267l413 864h346v-875h152v-256h-152v-315h-292v315h-467zM281 571h256v537z" />
<glyph unicode="5" d="M76 473h315v-115q0 -18 2 -41.5t12.5 -43t33 -34t65.5 -14.5q41 0 63.5 13.5t32.5 35t12 45t2 46.5v258q0 27 -3 52t-15 45.5t-35.5 33t-62.5 12.5t-60.5 -12.5t-32 -28.5t-12.5 -33.5t-2 -29.5h-299v786h811v-258h-512v-307q12 16 29.5 34.5t44.5 35t62.5 26.5t88.5 10 q86 0 153 -29.5t108 -82.5q47 -63 54 -146.5t7 -161.5v-174q0 -59 -2 -104t-11.5 -82t-27.5 -67.5t-51 -61.5q-18 -16 -44 -33.5t-64 -33t-93 -26t-131 -10.5q-53 0 -106.5 4.5t-102.5 17.5t-93 37.5t-77 65.5q-23 29 -35 58.5t-17 71.5t-6 99.5t-1 141.5z" />
<glyph unicode="6" d="M90 410v657q0 33 2 75t13.5 87t36 88t70.5 76.5t116.5 55t175.5 21.5q106 0 179 -19t120 -51t73.5 -71t38 -79t13.5 -76.5t2 -63.5v-98h-301v26v39q0 20 -1 38t-3 24q-6 27 -20.5 42t-30 22t-29 8t-19.5 1q-47 0 -71.5 -16t-35.5 -37.5t-13.5 -46.5t-2.5 -39v-268 q31 33 78 64.5t140 31.5q47 0 112.5 -13.5t122.5 -62.5q55 -47 68.5 -102t13.5 -113v-237q0 -45 -2 -86t-11.5 -79t-32 -72t-61.5 -66q-39 -31 -112.5 -63t-206.5 -32q-92 0 -178 25t-152 88q-33 33 -51 71t-27.5 79t-11.5 85t-2 87zM401 461q0 -43 1 -95.5t8 -72.5 q8 -23 21 -36t28.5 -19.5t31 -7.5t25.5 -1q43 0 66.5 14.5t34 40t12.5 61.5t2 79q0 78 -2 131t-12.5 86t-34 47t-66.5 14t-66.5 -14t-33.5 -43t-12.5 -75t-2.5 -109z" />
<glyph unicode="7" d="M55 1004v442h893v-262q-18 -29 -39.5 -67t-47 -90t-56.5 -124t-64 -166q-59 -166 -92 -279.5t-48 -196.5t-19 -143.5t-4 -117.5h-347q2 33 7.5 83t19.5 120.5t40 162t69 205.5q59 160 134 316l152 309h-311v-192h-287z" />
<glyph unicode="8" d="M80 479q0 68 6 115t24.5 80t54.5 56.5t97 45.5q-41 10 -71.5 25.5t-51 48.5t-32 89t-11.5 148q0 45 6.5 111t46 127t124.5 105.5t243 44.5q82 0 154.5 -17.5t132.5 -58.5q47 -33 72.5 -72t37 -78t13.5 -74.5t2 -60.5q0 -74 -3 -127t-19.5 -93t-49.5 -67.5t-94 -50.5 q55 -23 90 -46t54.5 -54t25.5 -75t6 -107v-168q0 -35 -2 -70t-12.5 -67.5t-32 -64.5t-60.5 -61q-70 -53 -153.5 -68t-169.5 -15q-25 0 -72 2t-100 15t-106.5 42t-92.5 82q-23 29 -34 57.5t-16 68.5t-6 95t-1 137zM395 419q0 -32 1 -62.5t3 -55.5t7 -35q12 -33 37.5 -44 t60.5 -11q43 0 66.5 12.5t33.5 41t12 73.5t2 111q0 53 -2 92t-12 64.5t-31.5 37.5t-62.5 12q-43 0 -66.5 -12t-34 -34.5t-12.5 -55.5t-2 -76v-58zM397 1044q0 -45 2 -78.5t11.5 -57t30 -35t59.5 -11.5q59 0 90 23q12 10 18 21.5t9.5 31.5t4.5 55t1 94q0 27 -3.5 52.5 t-13.5 44t-32.5 30t-59.5 11.5q-43 0 -67.5 -13.5t-35 -37t-12.5 -56.5t-2 -74z" />
<glyph unicode="9" d="M70 324v114h311v-100q0 -14 2 -34.5t12.5 -40t33 -33t65.5 -13.5q76 0 97 34t21 93v301l-38 -33q-19 -16 -43.5 -28.5t-57.5 -19.5t-76 -7q-90 0 -160.5 37t-107.5 100q-35 55 -44 131t-9 162q0 82 5 141.5t17.5 103.5t32 75.5t47.5 60.5l36 29q24 18 62.5 35.5t95 30 t134.5 12.5q156 0 240.5 -49.5t124.5 -118t46.5 -139t6.5 -113.5v-649q0 -104 -16.5 -181.5t-78.5 -134.5q-49 -47 -132 -78.5t-197 -31.5q-80 0 -138.5 12t-99.5 29.5t-65.5 35t-36.5 29.5q-35 33 -54.5 67.5t-27.5 77t-8 93.5zM383 1002q0 -32 1 -65.5t2 -63t3 -39.5 q12 -47 45 -64.5t64 -17.5q29 0 52 10t40 31q8 10 13 21t8 30.5t4 54.5t1 92q0 55 -2 100.5t-13 77t-34.5 48t-68.5 16.5q-43 0 -66.5 -16.5t-34 -43t-12.5 -58.5t-2 -64v-49z" />
<glyph unicode=":" horiz-adv-x="598" d="M186 0v311h301v-311h-301zM186 793v311h301v-311h-301z" />
<glyph unicode=";" horiz-adv-x="598" d="M168 -311l104 311h-92v311h301v-311l-172 -311h-141zM180 793v311h301v-311h-301z" />
<glyph unicode="&#x3c;" d="M2 592v254l1022 461v-285l-672 -303l672 -295v-283z" />
<glyph unicode="=" d="M0 252v260h1024v-260h-1024zM0 678v260h1024v-260h-1024z" />
<glyph unicode="&#x3e;" d="M0 141v283l674 295l-674 303v283l1024 -459v-254z" />
<glyph unicode="?" d="M168 1026v111q0 61 7 121.5t43 108.5t109.5 77t209.5 29q143 0 224 -29t121 -77t49 -111.5t9 -135.5q0 -47 -5 -76.5t-26.5 -62.5t-65.5 -76l-120 -112q-47 -43 -72.5 -69t-38 -45.5t-15.5 -41t-3 -55.5v-113h-301v100q0 39 3 71t14.5 63.5t35 64.5t64.5 72l153 147 q20 18 33.5 33.5t22 31t12.5 36t4 51.5q0 8 -1 26.5t-9.5 37t-25.5 31.5t-48 13q-35 0 -52.5 -11t-26.5 -29.5t-10 -40t-1 -42.5v-98h-293zM291 0v309h303v-309h-303z" />
<glyph unicode="@" horiz-adv-x="1835" d="M141 485q0 199 72 375t198 309.5t298 211t370 77.5q164 0 281 -53t190.5 -137t108.5 -190.5t35 -213.5q0 -145 -42 -276t-109.5 -232.5t-155 -161t-179.5 -59.5q-66 0 -118 33q-41 27 -52.5 54.5t-17.5 53.5l-34 -37q-22 -24 -54.5 -46.5t-74.5 -39t-97 -16.5 q-47 0 -97.5 17.5t-91.5 58.5t-66.5 107.5t-25.5 164.5q0 106 33 211t91.5 189t141 136t181.5 52q49 0 83.5 -12t59.5 -30.5t41 -40l29 -40.5l20 80h184l-67 -325l-16 -77q-10 -48 -19.5 -98.5t-16.5 -96.5t-7 -68q0 -23 8 -33t20 -21q12 0 26.5 2t33 13.5t42 36t54.5 69.5 q59 92 90 204t31 222q0 121 -41 205t-106.5 136t-148.5 74.5t-165 22.5q-143 0 -279.5 -63.5t-242 -173t-169 -258t-63.5 -318.5q0 -160 58.5 -270.5t148.5 -178t200.5 -97t215.5 -29.5q129 0 235.5 33.5t189.5 81t143.5 98.5t96.5 86l97 -125l-123 -106q-70 -58 -162 -109 t-209 -86t-260 -35q-78 0 -168 15.5t-178 49t-170 90t-144.5 138.5t-99.5 192.5t-37 253.5zM690 492q0 -88 41 -130.5t90 -42.5q47 0 92 34t80 89.5t56.5 127t21.5 147.5t-38 124t-101 48q-55 0 -99.5 -38t-76 -96.5t-49 -127.5t-17.5 -135z" />
<glyph unicode="A" horiz-adv-x="1067" d="M8 0l293 1446h467l293 -1446h-342l-49 330h-269l-51 -330h-342zM440 573h195l-96 644z" />
<glyph unicode="B" horiz-adv-x="1067" d="M102 0v1446h478q78 0 151.5 -10.5t138.5 -51.5q70 -47 90.5 -112.5t20.5 -151.5q0 -78 -5 -134t-24.5 -97t-58.5 -71t-107 -54q27 -8 53.5 -17.5t51 -23.5t45 -36.5t35.5 -57.5q16 -35 22 -84t6 -148q0 -57 -7 -130.5t-46 -139.5q-29 -47 -64.5 -72.5t-76.5 -38 t-84 -14.5t-82 -2h-537zM432 260h133q43 0 65.5 13.5t33 38t12.5 56t2 68.5q0 51 -3 87t-13.5 58.5t-34 33t-62.5 10.5h-133v-365zM432 881h143q66 0 81.5 38.5t15.5 118.5q0 86 -20.5 119t-86.5 33h-133v-309z" />
<glyph unicode="C" horiz-adv-x="1067" d="M82 354v713q0 78 12 142.5t60 121.5q41 49 93 78t105.5 43t104.5 17.5t90 3.5q94 0 184 -18.5t162 -78.5q39 -31 61.5 -68.5t32.5 -75.5t13.5 -77t3.5 -72v-172h-345v181q0 31 -4 54t-16 39.5t-35.5 26t-64.5 9.5q-37 0 -58.5 -10.5t-33 -29t-14.5 -42t-3 -49.5v-719 q0 -70 19.5 -107t97.5 -37q43 0 65.5 12.5t32.5 33t12 46t2 52.5v180h353v-129q0 -102 -16.5 -184t-66.5 -139.5t-143.5 -87t-246.5 -29.5q-145 0 -234.5 26.5t-138.5 74.5t-66.5 116.5t-17.5 154.5z" />
<glyph unicode="D" horiz-adv-x="1110" d="M104 0v1448h527q96 0 156.5 -13.5t97.5 -35.5q55 -31 83.5 -71t43 -83t16.5 -85t2 -73v-722q0 -66 -9 -138.5t-60 -130.5q-29 -33 -66 -52t-78 -28.5t-85 -12.5t-87 -3h-541zM442 250h109q72 0 100.5 24.5t28.5 98.5v692q0 70 -27.5 100.5t-103.5 30.5h-107v-946z" />
<glyph unicode="E" horiz-adv-x="894" d="M104 0v1448h748v-256h-397v-332h374v-256h-374v-348h397v-256h-748z" />
<glyph unicode="F" horiz-adv-x="811" d="M100 0v1446h713v-248h-360v-324h329v-253h-329v-621h-353z" />
<glyph unicode="G" horiz-adv-x="1067" d="M82 471v539q0 125 21.5 213t72.5 143t137 81t217 26q18 0 54.5 -1.5t79.5 -6.5t89 -16t85 -32q57 -31 87.5 -69.5t45 -82.5t16.5 -91.5t2 -92.5v-129h-336v135q0 20 -2 43t-12 43.5t-32.5 34t-65.5 13.5q-41 0 -62.5 -12.5t-32 -32t-12.5 -44t-2 -49.5v-721 q0 -18 2 -42.5t12.5 -46t33 -36t63.5 -14.5t63.5 14.5t32.5 35t12 44t2 43.5v164h-135v240h471v-764h-336v133q-37 -49 -72.5 -76.5t-69.5 -41t-65.5 -16.5t-58.5 -3q-115 0 -176 48t-90 120t-34 154.5t-5 152.5z" />
<glyph unicode="H" horiz-adv-x="1150" d="M102 0v1446h351v-584h243v584h351v-1446h-351v606h-243v-606h-351z" />
<glyph unicode="I" horiz-adv-x="555" d="M100 0v1446h351v-1446h-351z" />
<glyph unicode="J" horiz-adv-x="681" d="M33 0v250h117q61 0 79.5 25.5t18.5 84.5v1086h350v-1067q0 -88 -6 -152.5t-45 -117.5q-29 -41 -67 -62.5t-79 -32t-81.5 -12.5t-77.5 -2h-209z" />
<glyph unicode="K" horiz-adv-x="1067" d="M102 0v1446h347v-655l266 655h356l-293 -684l330 -762h-367l-292 707v-707h-347z" />
<glyph unicode="L" horiz-adv-x="854" d="M102 0v1448h353v-1192h360v-256h-713z" />
<glyph unicode="M" horiz-adv-x="1579" d="M104 0v1446h467l142 -674l26 -126q10 -48 18 -90l15 -89l21 -123q6 49 15 116.5t23 143.5l173 842h473v-1446h-312v920v41v30q0 14 1 29.5t3 40.5l-227 -1061h-307l-229 1067q0 -31 1 -68l2 -71l2 -68q1 -33 1 -53v-807h-308z" />
<glyph unicode="N" horiz-adv-x="1150" d="M100 0v1446h346l304 -938v938h299v-1446h-353l-301 942v-942h-295z" />
<glyph unicode="O" horiz-adv-x="1110" d="M82 440v598q0 86 18.5 167t83.5 151q41 43 90.5 66.5t100.5 35.5t99 14.5t87 2.5q115 0 194 -24t130 -62.5t78.5 -89t41 -102.5t15.5 -102.5t2 -88.5v-553q0 -43 -2 -90.5t-11.5 -93.5t-32 -92t-61.5 -85t-86 -61.5t-96 -32.5t-96 -13t-86 -3q-172 0 -267.5 48 t-140.5 118.5t-53 149.5t-8 142zM432 358q0 -25 2 -47t13.5 -38.5t36 -26.5t69.5 -10q72 0 96.5 29.5t24.5 92.5v740q0 72 -28 95.5t-99 23.5q-66 0 -90.5 -26t-24.5 -91v-742z" />
<glyph unicode="P" horiz-adv-x="1067" d="M102 0v1448h584q94 0 159.5 -16.5t105.5 -52.5t57.5 -92t17.5 -136v-297q0 -104 -20.5 -167.5t-61.5 -99.5t-101.5 -48.5t-137.5 -12.5h-252v-526h-351zM453 782h116q49 0 75 8.5t38 33t14 67.5t2 113q0 51 -1 83.5t-5 53t-12 31t-25 18.5q-10 4 -36.5 6t-58.5 3t-61 1 h-46v-418z" />
<glyph unicode="Q" horiz-adv-x="1110" d="M82 442v596q0 86 18.5 167t83.5 151q41 43 90.5 66.5t100.5 35.5t99 14.5t87 2.5q115 0 194 -24t130 -62.5t78.5 -89t41 -102.5t15.5 -102.5t2 -88.5v-551q0 -68 -6 -140.5t-38 -137t-99.5 -116t-188.5 -71.5v-62q0 -35 2 -43q8 -35 35 -40t53 -5h148v-219h-283 q-61 0 -106 10.5t-75 37t-45.5 71.5t-15.5 115v137l-53 13q-29 7 -58.5 20.5t-60 34t-61.5 53.5q-55 66 -71.5 144.5t-16.5 184.5zM432 358q0 -25 2 -46t13.5 -37.5t36 -26.5t69.5 -10q5 0 9 -1q64 0 87 28q25 30 25 93v740q0 72 -28 95.5t-99 23.5q-66 0 -90.5 -26 t-24.5 -91v-742z" />
<glyph unicode="R" horiz-adv-x="1067" d="M102 0v1448h492q35 0 75 -2t81 -11.5t79.5 -29t69.5 -51.5q47 -55 58.5 -127t11.5 -150q0 -80 -13.5 -132t-37 -87t-57.5 -57.5t-75 -44.5q63 -16 101.5 -38t57 -55.5t23.5 -82t5 -113.5v-307q0 -72 13 -102.5t36 -57.5h-322q-10 18 -18 35.5t-15.5 41t-11.5 55.5t-4 77 q0 12 1 47t1 75t1 75.5t1 52.5q0 59 -8 92t-31.5 47t-67.5 16t-118 2v-616h-328zM430 866h109q31 0 43 4q53 10 64 52.5t11 126.5q0 47 -4 75.5t-17 45t-38 21.5t-63 5h-105v-330z" />
<glyph unicode="S" horiz-adv-x="980" d="M38 340v39q0 40 1 84h346v-113q0 -12 2 -32.5t11.5 -39t30 -32t58.5 -13.5q41 0 63.5 11.5t33 27t12.5 34t2 30.5q0 41 -2 66.5t-14.5 47t-39 43t-75.5 56.5l-211 151q-55 39 -93 71t-62.5 69t-35 87t-10.5 128q0 111 20.5 190.5t71 129.5t138.5 74t223 24q141 0 224 -29 t124 -87.5t50 -146.5q8 -72 8 -164q0 -21 -1 -42h-331v100q0 55 -14.5 88t-82.5 33q-33 0 -51 -11.5t-26.5 -30t-9.5 -41t-1 -44.5q0 -29 2 -50.5t8.5 -38t19.5 -30.5t36 -29l299 -207q49 -35 85 -63.5t58.5 -66.5t32.5 -91t10 -135q0 -119 -22.5 -184.5t-69.5 -112.5 q-23 -23 -52.5 -43t-72.5 -35.5t-100.5 -23.5t-136.5 -8q-246 0 -357 90q-39 33 -59.5 73.5t-29.5 90t-10 106.5z" />
<glyph unicode="T" horiz-adv-x="980" d="M27 1194v254h929v-254h-288v-1194h-355v1194h-286z" />
<glyph unicode="U" horiz-adv-x="1110" d="M98 395v1051h351v-1090q0 -16 2 -38.5t12 -43t31.5 -34t62.5 -13.5q39 0 59.5 12.5t29.5 31t11 40t2 39.5v1096h351v-1040q0 -68 -7.5 -143t-49.5 -138.5t-131 -105.5t-251 -42q-119 0 -199.5 19.5t-133 52.5t-81 75t-42 88t-15.5 93t-2 90z" />
<glyph unicode="V" d="M-6 1446h354l154 -1120h16l150 1120h352l-258 -1446h-498z" />
<glyph unicode="W" horiz-adv-x="1662" d="M4 1448h332l104 -1118h17l168 1118h403l199 -1118h12l80 1118h336l-174 -1448h-453l-197 1130l-188 -1130h-455z" />
<glyph unicode="X" horiz-adv-x="980" d="M-2 1446h352l144 -465l139 465h348l-256 -680l256 -766h-356l-131 555l-134 -555h-352l250 766z" />
<glyph unicode="Y" horiz-adv-x="1067" d="M8 1446h346l176 -639l177 639h348l-361 -936v-510h-340v510z" />
<glyph unicode="Z" horiz-adv-x="894" d="M-2 0v283l502 909h-439v256h801v-287l-502 -905h514v-256h-876z" />
<glyph unicode="[" horiz-adv-x="724" d="M178 -426v1874h518v-137h-217v-1600h217v-137h-518z" />
<glyph unicode="\" horiz-adv-x="641" d="M18 1446h250l357 -1446h-254z" />
<glyph unicode="]" horiz-adv-x="724" d="M29 -289h217v1600h-217v137h518v-1874h-518v137z" />
<glyph unicode="^" horiz-adv-x="1492" d="M233 637l416 809h213l398 -809h-283l-225 473l-238 -473h-281z" />
<glyph unicode="_" d="M-20 -154h1064v-102h-1064v102z" />
<glyph unicode="`" horiz-adv-x="555" d="M2 1507h354l195 -260h-262z" />
<glyph unicode="a" d="M63 252q0 96 18.5 156.5t52.5 98.5t81 61.5t107 45.5l99 37l65 26q28 11 52 22l58 28v56q0 19 -1 30.5t-2 18t-3 12.5q-16 41 -45 47t-45 6q-35 0 -53.5 -11.5t-27.5 -33t-10 -53t-1 -72.5h-314q-1 16 0 34q0 43 3 91q5 68 42 127t119 99t234 40q68 0 147.5 -11 t142.5 -44q51 -29 80 -65.5t42.5 -74.5t15.5 -75t2 -64v-614q0 -37 2 -62.5t7 -44t14 -33t24 -30.5h-373v92q-53 -47 -113.5 -85t-158.5 -38t-150.5 34t-77 80t-29 94t-4.5 75zM399 303q0 -25 1 -47.5t9.5 -39.5t25 -27.5t46.5 -10.5q39 0 62.5 12.5t35 32t14.5 45t3 51.5 v228l-41 -22l-43 -22l-37 -21q-16 -9 -22 -13q-35 -27 -44.5 -61.5t-9.5 -104.5z" />
<glyph unicode="b" d="M92 0v1446h326v-447q14 16 35.5 37t52.5 39.5t70.5 30.5t93.5 12q102 0 157.5 -37t81 -91t29.5 -113.5t4 -104.5v-463q0 -29 -1 -64.5t-10 -73.5t-28.5 -74t-54.5 -66q-37 -31 -80 -45.5t-88 -14.5q-49 0 -90 13.5t-73 32t-56 38.5l-43 37v-92h-326zM418 326q0 -18 1 -41 t10 -44.5t28.5 -36t56.5 -14.5q39 0 60.5 14.5t30.5 35t11 44t2 44.5v444q0 14 -1 34.5t-10 39t-28.5 32t-54.5 13.5q-41 0 -62.5 -12.5t-30.5 -31t-11 -39t-2 -36.5v-446z" />
<glyph unicode="c" horiz-adv-x="937" d="M76 303v451q0 45 6 107.5t45 119.5t124 96t241 39q74 0 128 -10t93 -25.5t62.5 -32t35.5 -26.5q33 -27 51.5 -57.5t26.5 -62.5t9 -63.5t1 -62.5v-104h-321v123q0 10 -1.5 27.5t-9.5 33.5t-25.5 28.5t-47.5 12.5q-35 0 -54.5 -12.5t-29 -28.5t-10.5 -33.5t-1 -27.5v-514 q0 -35 16.5 -68t80.5 -33q31 0 47 10.5t24 25.5t9.5 32.5t1.5 32.5v102h321v-98q0 -57 -11 -111.5t-67 -105.5q-43 -41 -116.5 -70t-196.5 -29q-162 0 -250 37t-128 89t-47 109.5t-7 98.5z" />
<glyph unicode="d" d="M76 336v436q0 35 4 93.5t27.5 114.5t76 97t148.5 41q63 0 108 -15.5t77 -38t52.5 -48t34.5 -45.5v475h326v-1446h-326v117q-12 -20 -31.5 -46t-50 -48.5t-75 -38t-105.5 -15.5q-98 0 -152.5 39t-79 96.5t-29.5 120t-5 111.5zM399 332q0 -18 2 -40t11.5 -40.5t31 -30.5 t62.5 -12q37 0 56.5 13.5t28.5 32.5t11 43t2 42v438q0 53 -23.5 84t-82.5 31q-37 0 -57.5 -13.5t-30 -32t-10.5 -37.5t-1 -34v-444z" />
<glyph unicode="e" horiz-adv-x="980" d="M76 399v295q0 119 22.5 200t71.5 131t128 71.5t194 21.5q154 0 236.5 -38t121.5 -93t45 -120.5t6 -121.5v-274h-495v-178q0 -12 1 -29.5t10 -35t26.5 -29t52.5 -11.5q25 0 47 6.5t39 26.5q6 8 10 17.5t6 23.5t2 37v61h313q0 -78 -6 -139t-45 -115q-37 -51 -90 -78.5 t-107.5 -41t-101.5 -15.5t-71 -2q-35 0 -79 4t-90.5 16.5t-89.5 34t-75 56.5q-25 25 -40.5 54.5t-24.5 67.5t-13 86t-4 111zM406 678h188v113q0 14 -1 34.5t-10.5 39t-27.5 31.5t-51 13q-37 0 -57.5 -13t-29.5 -31.5t-10 -39t-1 -34.5v-113z" />
<glyph unicode="f" horiz-adv-x="641" d="M10 885v202h144v123q0 74 15 119t48 71.5t80 36t113 9.5h213v-205h-56q-20 0 -32.5 -2t-19.5 -4t-13 -8q-10 -6 -14.5 -14.5t-7.5 -21.5t-3 -38v-66h146v-202h-146v-885h-323v885h-144z" />
<glyph unicode="g" d="M74 -188.5q0 38.5 2 73.5h325q0 -74 3.5 -103.5t23.5 -49.5q20 -25 68 -25q39 0 60.5 14.5t30.5 34t11 41t2 35.5v260l-28 -40q-15 -22 -41.5 -40t-67.5 -29.5t-103 -11.5q-102 0 -159.5 35t-85 85t-33.5 104.5t-6 93.5v483q0 92 12 155.5t47 104.5q6 8 22.5 23.5t43 30 t64.5 24.5t89 10q61 0 104.5 -14t71 -34.5t44 -43t26.5 -41.5v103h330v-1182q0 -68 -7.5 -139.5t-48 -131t-128 -97.5t-244.5 -38q-125 0 -207 20.5t-133 65.5q-35 31 -53.5 69t-26.5 77t-8 77.5zM401 293q0 -8 1 -25.5t10.5 -35t29 -31t56.5 -13.5q39 0 59.5 16.5t29.5 38 t11 42t2 30.5v459q0 12 -1 31.5t-10 39t-28.5 33t-56.5 13.5q-39 0 -59.5 -15.5t-29.5 -35t-11.5 -41t-2.5 -33.5v-473z" />
<glyph unicode="h" d="M92 0v1446h322v-457q14 20 33.5 44t47 43.5t64.5 31.5t90 12q104 0 161.5 -39t84.5 -92t31 -109.5t4 -93.5v-786h-326v752q0 14 -1 36.5t-10 43t-27.5 36t-53.5 15.5q-37 0 -57.5 -15.5t-29.5 -36t-10 -41t-1 -30.5v-760h-322z" />
<glyph unicode="i" horiz-adv-x="512" d="M92 0v1087h326v-1087h-326zM92 1196v250h326v-250h-326z" />
<glyph unicode="j" horiz-adv-x="512" d="M-61 -172q15 -1 27 -1q32 0 52 4q29 5 44.5 17.5t19.5 34t4 49.5v1155h324v-1220q0 -78 -18.5 -127t-54.5 -78t-89 -40t-123 -11h-186v217zM84 1196v250h326v-250h-326z" />
<glyph unicode="k" d="M92 0v1446h324v-770l227 411h365l-293 -466l313 -621h-362l-250 555v-555h-324z" />
<glyph unicode="l" horiz-adv-x="512" d="M92 0v1446h328v-1446h-328z" />
<glyph unicode="m" horiz-adv-x="1536" d="M94 0v1087h324v-114q10 18 27.5 42.5t47 47t71.5 39t102 16.5q61 0 105 -16.5t73.5 -40t46.5 -47.5l27 -41q25 35 48 62.5t53 46t67.5 27.5t87.5 9q98 0 151 -38t77.5 -91t29 -108.5t4.5 -92.5v-788h-326v784q0 12 -1 32t-9 36t-26.5 28.5t-51.5 12.5q-35 0 -54.5 -11.5 t-28.5 -27.5t-10 -33.5t-1 -32.5v-788h-326v786q0 10 -2 29t-10 36t-27.5 30.5t-52.5 13.5q-35 0 -53.5 -12.5t-26.5 -29.5t-9 -34.5t-1 -30.5v-788h-326z" />
<glyph unicode="n" d="M92 0v1087h328v-102l35 39q20 23 50 43t68.5 34.5t90.5 14.5q86 0 138 -33.5t79 -72.5q39 -53 46 -109.5t7 -114.5v-786h-322v774q0 12 -1 31.5t-10 39t-28.5 34t-54.5 14.5q-37 0 -57.5 -13.5t-29.5 -32t-10 -37.5t-1 -30v-780h-328z" />
<glyph unicode="o" horiz-adv-x="980" d="M74 356v375q0 51 6 117.5t45 126t123 100.5t239 41q104 0 176 -19.5t118 -50t72 -69.5t37 -79t13 -78t2 -64v-414q0 -45 -6 -108.5t-45 -123t-123 -101.5t-239 -42q-88 0 -166 18.5t-138 63.5q-41 29 -63.5 63.5t-33.5 72.5t-14 81t-3 90zM395 305q0 -14 1 -32.5 t10.5 -35t29 -27.5t53.5 -11q35 0 54.5 14t29 33.5t10.5 40t1 35.5v448q0 16 -1 37.5t-10.5 40t-29 32t-54.5 13.5t-54 -14.5t-28.5 -35t-10.5 -43t-1 -36.5v-459z" />
<glyph unicode="p" d="M94 -383v1470h326v-116q16 25 36.5 50.5t51.5 47t74 35.5t106 14q12 0 36 -2t52.5 -10t59 -25.5t57.5 -48.5q6 -6 15.5 -20.5t19.5 -39t17 -59t7 -84.5v-493q0 -80 -11 -146.5t-42 -115.5t-83 -76t-134 -27q-61 0 -104 13.5t-74 33t-50.5 42t-33.5 40.5v-483h-326z M420 338q0 -16 2 -39t11 -44.5t30.5 -36.5t60.5 -15t60.5 16.5t31 38t11.5 44t2 36.5v414q0 14 -2 34.5t-11.5 41t-30 35t-59.5 14.5q-41 0 -62.5 -13.5t-30.5 -33t-11 -40t-2 -34.5v-418z" />
<glyph unicode="q" d="M76 340v387q0 84 9 156.5t50 132.5q37 53 96.5 76.5t122.5 23.5q59 0 99.5 -13t64.5 -30q41 -25 58.5 -49.5t27.5 -44.5v108h326v-1470h-326v479q-12 -16 -30.5 -37.5t-47 -41t-68.5 -33t-96 -13.5q-55 0 -94 12.5t-65.5 29t-42 33.5t-23.5 28q-12 16 -23.5 36.5 t-19.5 51.5t-13 74t-5 104zM399 338q0 -14 2 -36.5t11.5 -43t30 -36t59.5 -15.5t59.5 14.5t29.5 34.5t11 44t2 42v418q0 18 -2 40.5t-13 42t-31.5 32t-57.5 12.5t-57.5 -14.5t-30 -35t-11.5 -43t-2 -38.5v-418z" />
<glyph unicode="r" horiz-adv-x="724" d="M94 0v1087h328v-159q23 45 46.5 77.5t57 54t79.5 34t116 18.5v-283h-83q-30 0 -47.5 -1t-26.5 -2t-19 -3q-45 -10 -69.5 -31.5t-37 -50t-14.5 -59.5t-2 -57v-625h-328z" />
<glyph unicode="s" horiz-adv-x="894" d="M43 336h313q-2 -10 -2 -20v-19q0 -12 1 -29.5t10.5 -35t28 -28.5t52.5 -11q47 0 68 25.5t21 53.5q0 45 -29 67.5t-64 43.5l-153 82q-66 35 -110 63.5t-72.5 63.5t-41 82t-12.5 119q0 94 23.5 153.5t89.5 100.5q72 49 150.5 60t136.5 11q150 0 230.5 -39t118.5 -94 t44 -115.5t6 -103.5h-311q2 20 1 42.5t-10 43.5q-8 20 -25.5 33.5t-51.5 13.5q-41 0 -64.5 -24.5t-23.5 -65.5q0 -23 7 -38t23.5 -29.5t42 -29t64.5 -32.5l188 -94q59 -31 94 -60.5t52.5 -60.5t21.5 -63.5t4 -71.5q0 -90 -16.5 -151.5t-75.5 -112.5q-66 -55 -151.5 -75 t-174.5 -20q-152 0 -233.5 38t-119.5 94.5t-44 120t-6 112.5z" />
<glyph unicode="t" horiz-adv-x="641" d="M0 885v202h145v359h324v-359h145v-202h-145v-566q0 -37 8 -57t24.5 -30.5t44 -12.5t68.5 -2v-217h-184q-90 0 -145.5 18.5t-86 53t-42 85t-11.5 111.5v617h-145z" />
<glyph unicode="u" d="M86 311v779h324v-760q0 -12 1 -31.5t10 -36t28.5 -29t56.5 -12.5t57.5 12.5t29.5 30t11 36.5t2 32v758h324v-1090h-324v119q-14 -23 -32.5 -48.5t-47 -48t-69.5 -37t-99 -14.5q-102 0 -157.5 41t-81 96.5t-29.5 112.5t-4 90z" />
<glyph unicode="v" horiz-adv-x="894" d="M8 1087h318l118 -811h23l98 811h324l-223 -1087h-433z" />
<glyph unicode="w" horiz-adv-x="1449" d="M0 1087h332l82 -790l135 790h364l131 -790l86 790h328l-229 -1087h-336l-164 754l-164 -754h-338z" />
<glyph unicode="x" horiz-adv-x="894" d="M-2 0l256 565l-242 522h340l101 -319l90 319h331l-233 -522l254 -565h-340l-102 334l-119 -334h-336z" />
<glyph unicode="y" horiz-adv-x="894" d="M-4 1087h319l131 -856l121 856h326l-260 -1118q-23 -98 -48.5 -164.5t-78.5 -111.5q-33 -29 -72 -45.5t-82 -24.5t-88 -10t-92 -2h-158v211h144q66 0 90 23.5t31 82.5z" />
<glyph unicode="z" horiz-adv-x="811" d="M20 0v209l402 672h-328v209h694v-209l-403 -672h371v-209h-736z" />
<glyph unicode="{" horiz-adv-x="724" d="M63 449v153q57 8 91 32.5t50.5 64.5t20.5 95.5t4 127.5v98q0 66 1 115t8.5 88t21.5 70.5t43 62.5q31 35 69 53t83 27.5t100 12.5t121 3v-143q-66 0 -100.5 -15.5t-51 -45t-19.5 -72.5t-3 -99v-135q0 -72 -3 -140.5t-24.5 -124.5t-68 -95t-130.5 -52v-10q84 -12 130.5 -51 t68 -95.5t24.5 -124t3 -136.5v-138q0 -55 3 -98t19.5 -73.5t51 -47t100.5 -14.5v-143q-66 0 -120 2t-100 11t-84 28.5t-69 54.5q-55 59 -64.5 134t-9.5 171v147q0 45 -3 96.5t-18 95.5t-49.5 75t-95.5 35z" />
<glyph unicode="|" horiz-adv-x="468" d="M104 -512v2048h261v-2048h-261z" />
<glyph unicode="}" horiz-adv-x="724" d="M49 -258q66 0 100.5 15.5t51 45t19.5 72.5t3 98v136q0 72 3 140t24.5 124.5t68 95.5t130.5 51v10q-84 12 -130.5 51.5t-68 95.5t-24.5 123.5t-3 137.5v137q0 55 -3 98.5t-19.5 74t-51 47t-100.5 14.5v143q66 0 120 -2t99 -11t83 -28.5t71 -54.5q55 -59 64.5 -134 t9.5 -171v-148q0 -47 3 -97t18 -94t49 -75t96 -35v-153q-59 -8 -92 -33t-49.5 -65t-20.5 -96t-4 -126v-98q0 -66 -1 -115t-8.5 -88t-22.5 -70.5t-42 -62.5q-31 -35 -69 -54.5t-83 -28.5t-100 -11t-121 -2v143z" />
<glyph unicode="~" horiz-adv-x="1492" d="M211 616q16 25 43 58t65.5 62.5t90 51t118.5 21.5q29 0 51.5 -3t52.5 -13.5t71 -29.5l112 -50q37 -16 76 -30.5t80 -14.5q61 0 114.5 41t90.5 84l106 -213q-59 -68 -144 -120t-175 -52q-31 0 -80 10t-142 57q-76 39 -118.5 56.5t-85.5 17.5q-33 0 -56.5 -7t-47 -24.5 t-49.5 -45.5l-60 -66z" />
<glyph unicode="&#xa1;" horiz-adv-x="598" d="M100 0v178v44q0 22 2 52l6 75q3 44 9 116q4 53 10 121l12 137l13 137q6 68 10 121h188l10 -151l8 -100q3 -42 6 -78l7 -83q8 -96 12 -155.5t6 -99.5t3 -69.5t1 -66.5v-178h-303zM100 1135v311h303v-311h-303z" />
<glyph unicode="&#xa2;" horiz-adv-x="937" d="M76 305v449q0 43 5 100t35.5 110.5t98.5 95.5t191 54v219h169v-221q66 -8 126.5 -27.5t109.5 -60.5q33 -29 51.5 -58.5t26.5 -62.5t9 -64.5t1 -62.5v-104h-321v123q0 10 -1.5 27.5t-9.5 33.5t-25.5 28.5t-47.5 12.5q-35 0 -54.5 -12.5t-29 -28.5t-10.5 -33.5t-1 -27.5 v-512q0 -37 16.5 -70t80.5 -33q31 0 47 10.5t24 25.5t9.5 32.5t1.5 32.5v102h321v-98q0 -31 -5 -79t-36 -95.5t-96.5 -86t-186.5 -51.5v-264h-169v266q-109 12 -174.5 43t-100.5 74t-45 97.5t-10 115.5z" />
<glyph unicode="&#xa3;" horiz-adv-x="1193" d="M57 184q0 102 64.5 151.5t150.5 49.5q43 0 84 -10t82 -23q0 39 -4 69t-13 61.5t-27.5 70.5t-47.5 94h-280v166h200q-31 76 -50 140.5t-19 154.5q0 49 8 111.5t53 120t137 96.5t262 39q154 0 236 -41t119 -107.5t41 -153t2 -176.5h-285q0 55 -1 100.5t-12.5 79t-38 52 t-75.5 18.5q-70 0 -100.5 -34.5t-30.5 -102.5q0 -84 27.5 -163t50.5 -134h332v-166h-269q20 -57 36 -111.5t16 -113.5q0 -53 -10.5 -88l-20.5 -66l59.5 -23.5t61.5 -11.5t47 11.5t24 28t9.5 35t1.5 34.5v141h280v-102q0 -43 -1 -76t-3 -57.5t-6 -48.5q-4 -20 -12.5 -57.5 t-34 -72t-73.5 -61t-128 -26.5q-35 0 -69.5 6t-73.5 18t-87 33l-112 49l-42 -37q-24 -20 -55.5 -36.5t-72.5 -28t-94 -11.5q-61 0 -105.5 17.5t-74 46.5t-43 66.5t-13.5 78.5zM258 188q0 -31 21.5 -42t37.5 -11q35 0 54.5 20.5t31.5 39.5l-44 29.5t-50 13.5q-27 0 -39 -16 t-12 -34z" />
<glyph unicode="&#xa4;" horiz-adv-x="1366" d="M14 219l166 166q-14 23 -29.5 51.5t-28.5 66.5t-21.5 87t-8.5 115q0 53 6 94t18.5 75.5t28 65.5l33.5 64l-162 165l193 195l164 -164q33 18 64.5 33.5t67.5 28t80 19.5t99 7q57 0 99 -6t77 -18.5t67 -28.5l66 -35l164 164l197 -195l-166 -163l34 -67q15 -32 27.5 -67.5 t18.5 -77.5t6 -98q0 -59 -7 -102t-18.5 -79t-27.5 -68l-35 -64l166 -168l-197 -195l-164 168l-66 -33q-32 -15 -68 -26.5t-79 -19t-98 -7.5q-109 0 -177.5 28t-129.5 60l-166 -165zM348 688q0 -74 29 -135t76 -104t108.5 -68t128.5 -25q70 0 129.5 27t103.5 73t69.5 107.5 t25.5 132.5q0 82 -31 145.5t-79 106.5t-108.5 64.5t-117.5 21.5q-55 0 -114.5 -20.5t-107.5 -62.5t-80 -107.5t-32 -155.5z" />
<glyph unicode="&#xa5;" horiz-adv-x="1067" d="M8 1448h346l176 -635l177 635h348l-256 -666h180v-178h-248l-35 -86v-24h283v-179h-285v-315h-340v315h-282v179h280v24l-33 86h-247v178h184z" />
<glyph unicode="&#xa6;" horiz-adv-x="468" d="M104 358h261v-716h-261v716zM104 666v716h261v-716h-261z" />
<glyph unicode="&#xa7;" horiz-adv-x="894" d="M8 109l129 221l72 -43q39 -23 78 -42.5t75.5 -31.5t67.5 -12q47 0 65.5 25.5t18.5 47.5q0 16 -4 27.5t-21.5 25t-54.5 34.5l-102 59l-116 67q-50 31 -84 64t-51.5 74t-17.5 98q0 49 14.5 86t36 65.5t49 50t54.5 40.5q-20 14 -43.5 33.5t-44 45t-34 61.5t-13.5 83 q0 8 2 32.5t13.5 56.5t33 66.5t61 63.5t101 48.5t149.5 19.5q137 0 235.5 -35t180.5 -72l-119 -221q-96 47 -166.5 77.5t-111.5 30.5t-56.5 -23.5t-15.5 -41.5q0 -23 12.5 -38t26.5 -26q8 -6 25.5 -16t39.5 -21l43 -23l37 -19l105.5 -57.5t88.5 -64.5t60.5 -81t22.5 -107 q0 -90 -43 -148.5t-88 -103.5l36 -27q19 -15 36.5 -39t30 -56.5t12.5 -77.5q0 -55 -25 -109.5t-76 -98.5t-127 -72t-178 -28q-68 0 -123 10.5t-104 29t-97 41.5zM289 786q0 -41 21.5 -59t43.5 -33q53 -33 112 -64l118 -65q23 16 42 39t19 60q0 31 -15.5 48t-31.5 27 q-6 6 -21 16l-45 25l-72 42l-108 63q-20 -14 -41.5 -36t-21.5 -63z" />
<glyph unicode="&#xa8;" horiz-adv-x="555" d="M-96 1247v254h293v-254h-293zM358 1247v254h293v-254h-293z" />
<glyph unicode="&#xa9;" horiz-adv-x="1705" d="M125 725q0 154 57.5 286t156.5 230t232.5 154.5t284.5 56.5q154 0 287 -56.5t230 -155.5t153.5 -233.5t56.5 -287.5q0 -143 -53 -274.5t-149.5 -231.5t-230.5 -159.5t-296 -59.5q-143 0 -275.5 53t-232.5 149.5t-160.5 230.5t-60.5 298zM190 723q0 -143 53.5 -264 t144.5 -210t210 -139.5t250 -50.5q154 0 277.5 55.5t210.5 147.5t134.5 211t47.5 246q0 139 -50.5 261t-139.5 212t-209 142t-261 52t-263 -52t-212 -143t-141.5 -212t-51.5 -256zM358 721q0 104 35 197.5t100.5 164t161 112.5t215.5 42q86 0 150.5 -18.5t113 -46t82 -58.5 l56.5 -53l-178 -170q-14 14 -35 31.5t-47.5 33t-61.5 25.5t-78 10q-123 0 -191.5 -73.5t-68.5 -190.5q0 -123 71 -194.5t194 -71.5q80 0 126 27.5t91 66.5l178 -166q-25 -25 -57.5 -54.5t-80 -56t-109.5 -45t-144 -18.5q-139 0 -238.5 45t-163 117t-92.5 163t-29 181z" />
<glyph unicode="&#xaa;" horiz-adv-x="724" d="M68 915q0 88 25.5 132.5t76.5 68.5q12 6 48 20l77 27l78 28q37 13 51 19q0 57 -8 80t-60 23q-51 0 -59 -21.5t-8 -81.5h-203q0 61 1 86t11 47q25 63 94.5 89t155.5 26q106 0 164.5 -21.5t86.5 -56t32 -79t4 -91.5v-323q0 -63 7 -85t24 -42h-242v49q-27 -18 -75 -44 t-118 -26q-59 0 -93 20.5t-49 48.5t-18 58.5t-3 48.5zM285 950q0 -12 1 -25.5t7 -24.5t18.5 -19.5t34.5 -8.5q29 0 44.5 9.5t23.5 23t9 27.5t1 26v132q-49 -18 -77 -29.5t-42 -25t-17 -33t-3 -52.5z" />
<glyph unicode="&#xab;" horiz-adv-x="811" d="M63 518v248l291 238v-261l-118 -96l118 -104v-260zM434 520v246l291 240v-263l-121 -98l121 -106v-256z" />
<glyph unicode="&#xac;" horiz-adv-x="1366" d="M0 465v260h1364v-725h-260v465h-1104z" />
<glyph unicode="&#xad;" horiz-adv-x="681" d="M57 602v248h561v-248h-561z" />
<glyph unicode="&#xae;" horiz-adv-x="1705" d="M125 723q0 158 58.5 291t158.5 230t231.5 152.5t278.5 55.5q154 0 287 -56.5t232 -154.5t155.5 -231t56.5 -289q0 -145 -55 -277.5t-152.5 -232.5t-231.5 -158.5t-294 -58.5q-141 0 -272.5 53t-231.5 149.5t-160.5 230.5t-60.5 296zM190 723q0 -141 52.5 -262t142.5 -210 t211 -140.5t256 -51.5q143 0 266 53.5t211 144.5t138.5 211t50.5 253q0 137 -50.5 259t-139.5 212t-211 142t-265 52q-135 0 -255 -51t-211 -140t-143.5 -211t-52.5 -261zM512 262v938h334q78 0 129 -4t92 -18q45 -14 77 -40t51 -57.5t28.5 -66.5t9.5 -68q0 -51 -16.5 -87 t-41 -60.5t-53 -41t-53.5 -26.5q20 -12 36.5 -25.5t29 -32t21.5 -47t18 -71.5q14 -90 29.5 -158.5t49.5 -134.5h-258q-10 20 -16 40t-12 42.5t-11.5 51t-11.5 69.5q-10 70 -19.5 107.5t-28.5 56t-55 22.5t-104 4v-393h-225zM737 834h99q33 0 63.5 2t55 11t39 29.5t14.5 57.5 q0 31 -12.5 49t-28 27.5t-30.5 12.5t-22 3q-6 0 -15 1t-28 1h-50h-85v-194z" />
<glyph unicode="&#xaf;" horiz-adv-x="555" d="M-41 1247v185h639v-185h-639z" />
<glyph unicode="&#xb0;" horiz-adv-x="724" d="M10 1171q0 72 26.5 136.5t74 112.5t112 77t139.5 29q76 0 140.5 -29t112 -77t74 -112.5t26.5 -136.5t-28 -135t-75 -111t-111.5 -77t-138.5 -29t-137 27.5t-111 76t-76 112.5t-28 136zM250 1176q0 -47 33.5 -80t81.5 -33q47 0 79.5 32.5t32.5 80.5q0 51 -33.5 82.5 t-78.5 31.5q-47 0 -81 -32.5t-34 -81.5z" />
<glyph unicode="&#xb1;" d="M66 0v260h895v-260h-895zM66 696v260h319v318h260v-318h316v-260h-316v-319h-260v319h-319z" />
<glyph unicode="&#xb2;" horiz-adv-x="681" d="M59 541q0 61 2 106t10.5 82t28 71t54 71.5t87.5 84.5l130 113q14 12 22 21.5t13.5 21.5t7.5 30.5t2 49.5q0 18 -1 37.5t-8.5 35t-22.5 25.5t-44 10t-45 -9t-23.5 -22.5t-8.5 -28.5t-1 -28v-120h-203v100q0 39 2 64.5t5.5 42t9.5 32.5q14 41 45 66.5t67.5 39t74.5 18.5 t69 5q37 0 80 -6t84 -22q47 -18 72.5 -45t37.5 -58t14.5 -64.5t2.5 -66.5q0 -59 -6.5 -96t-20.5 -64.5t-37.5 -51t-60.5 -54.5q-70 -63 -115 -108.5t-76 -102.5h311v-180h-559z" />
<glyph unicode="&#xb3;" horiz-adv-x="681" d="M53 729v50v85h203v-76q0 -18 1 -37.5t8 -34t22.5 -23.5t44.5 -9t44 7t22.5 25.5t8.5 52.5t1 87q0 29 -6.5 44t-25 22.5t-54.5 7.5h-99v166q57 -2 93 -1t56.5 7t28 20.5t7.5 42.5q0 47 -1 75t-9.5 41t-27 17.5t-51.5 4.5q-25 0 -37 -6.5t-18 -21.5t-7 -44t-1 -72h-203v78 q0 29 1 46t2 26.5t5 21.5q14 43 43 68.5t65 39t75 16.5t69 3q96 0 154.5 -16.5t89.5 -44t40 -65.5t9 -79q0 -49 -1 -86t-10 -64.5t-28.5 -48t-54.5 -36.5q37 -14 57.5 -33.5t29.5 -49.5t11 -73t2 -106q0 -127 -64.5 -177.5t-221.5 -50.5q-57 0 -104.5 6.5t-81.5 22.5 t-55.5 46t-27.5 77q-2 10 -3 20.5t-1 28.5z" />
<glyph unicode="&#xb4;" horiz-adv-x="555" d="M16 1247l179 258h342l-281 -258h-240z" />
<glyph unicode="&#xb5;" d="M86 -383v1473h324v-760q0 -12 1 -31.5t10 -36t28.5 -29t56.5 -12.5t57.5 12.5t29.5 30t11 36.5t2 32v758h324v-1090h-324v119q-18 -47 -44.5 -89t-74.5 -42q-23 0 -45 11t-32 17v-399h-324z" />
<glyph unicode="&#xb6;" horiz-adv-x="1366" d="M166 1008q0 82 26.5 159.5t79.5 139.5q45 49 94.5 77.5t96.5 42t90 16.5t78 3h512v-160h-74v-1628h-172v1628h-242v-1628h-172v940q-45 12 -105.5 36.5t-119.5 96.5q-49 57 -70.5 129t-21.5 148z" />
<glyph unicode="&#xb7;" horiz-adv-x="512" d="M104 573v312h304v-312h-304z" />
<glyph unicode="&#xb8;" horiz-adv-x="555" d="M70 -168l184 209h178l-135 -158q20 -4 53 -9t61.5 -21.5t50 -47t21.5 -81.5q0 -31 -14 -66t-48 -65.5t-89.5 -51t-136.5 -20.5q-16 0 -34 1t-34 1l-35 98q16 -2 30.5 -3t31.5 -1q68 0 93 33t25 61q0 27 -11 41.5t-25.5 21.5t-28.5 8t-21 1q-29 0 -47 -7t-37 -18z" />
<glyph unicode="&#xb9;" horiz-adv-x="681" d="M129 1126v193q63 10 103 37.5t65 87.5h168v-903h-201v647l-37 -22.5t-27.5 -14.5t-29.5 -11z" />
<glyph unicode="&#xba;" horiz-adv-x="681" d="M66 1145q0 86 4 137t26 86q23 35 78 61.5t156 26.5q23 0 57.5 -2t71.5 -11t70.5 -27.5t56.5 -51.5q10 -14 16 -28.5t10 -51.5t5 -104.5t1 -188.5q0 -41 -4 -86t-29.5 -83t-80.5 -63.5t-156 -25.5q-61 0 -103 10.5t-71 23.5t-45 28.5t-25 27.5q-14 18 -22 40t-11 56.5 t-4 88t-1 137.5zM274 969q0 -12 1 -27.5t7.5 -28t20.5 -20.5t39 -8q51 0 59.5 25.5t8.5 58.5v264q0 12 -1 26.5t-7.5 26.5t-20.5 19.5t-39 7.5q-41 0 -54.5 -19.5t-13.5 -60.5v-264z" />
<glyph unicode="&#xbb;" horiz-adv-x="811" d="M86 285v262l117 96l-117 107v258l289 -240v-244zM455 289v256l116 96l-116 104v263l290 -240v-242z" />
<glyph unicode="&#xbc;" horiz-adv-x="1622" d="M129 1124v195q63 10 103 37.5t65 87.5h168v-905h-201v649l-37 -24q-14 -9 -27.5 -15t-29.5 -11zM487 0l492 1446h149l-493 -1446h-148zM981 188v174l254 541h252v-541h92v-174h-92v-188h-195v188h-311zM1130 362h162v345z" />
<glyph unicode="&#xbd;" horiz-adv-x="1622" d="M129 1124v195q63 10 103 37.5t65 87.5h168v-903h-201v647l-37 -24q-14 -9 -27.5 -15t-29.5 -11zM438 0l494 1446h149l-493 -1446h-150zM997 -2q0 61 2 106.5t11.5 82t28 70.5t53 72t88.5 85l131 112q14 12 22 21.5t13.5 22t7.5 30.5t2 49q0 18 -1 38t-8.5 35t-22.5 25.5 t-44 10.5q-31 0 -46 -9.5t-23.5 -22.5t-9.5 -28.5t-1 -27.5v-121h-203v100q0 39 2 64.5t5.5 42t9.5 32.5q14 41 45 67t67.5 39t74.5 18.5t69 5.5q39 0 82 -6.5t84 -22.5q47 -18 72.5 -45t38 -57.5t14.5 -64.5t2 -67q0 -59 -6.5 -96t-20.5 -64.5t-37.5 -51t-60.5 -54.5 q-70 -63 -115 -108t-76 -103h312v-180h-562z" />
<glyph unicode="&#xbe;" horiz-adv-x="1622" d="M53 729v50v85h203v-76q0 -18 1 -37.5t8 -34t22.5 -23.5t44.5 -9t44 7t22.5 25.5t8.5 52.5t1 87q0 29 -6.5 44t-25 22.5t-54.5 7.5h-99v166q57 -2 93 -1t56.5 7t28 20.5t7.5 42.5q0 47 -1 75t-9.5 41t-27 17.5t-51.5 4.5q-25 0 -37 -6.5t-18 -21.5t-7 -44t-1 -72h-203v78 q0 29 1 46t2 26.5t5 21.5q14 43 43 68.5t65 39t75 16.5t69 3q96 0 154.5 -16.5t89.5 -44t40 -65.5t9 -79q0 -49 -1 -86t-10 -64.5t-28.5 -48t-54.5 -36.5q37 -14 57.5 -33.5t29.5 -49.5t11 -73t2 -106q0 -127 -64.5 -177.5t-221.5 -50.5q-57 0 -104.5 6.5t-81.5 22.5 t-55.5 46t-27.5 77q-2 10 -3 20.5t-1 28.5zM524 0l492 1446h149l-493 -1446h-148zM981 188v174l254 541h252v-541h92v-174h-92v-188h-195v188h-311zM1130 362h162v347z" />
<glyph unicode="&#xbf;" d="M80 328q0 47 5 77.5t26.5 62.5t65.5 75l120 112q47 43 72.5 69t38 45t15.5 40.5t3 56.5v115h301v-102q0 -39 -3 -71t-14.5 -62.5t-35 -64.5t-64.5 -73l-153 -147q-20 -18 -33.5 -33.5t-22 -31t-12.5 -36t-4 -51.5q0 -10 1 -27.5t9 -36t25.5 -31.5t50.5 -13t51.5 11 t27.5 29.5t10 40t1 42.5v98h293v-111q0 -61 -7 -121.5t-43 -108.5t-109.5 -77t-209.5 -29q-143 0 -225 29t-122 77t-49 111.5t-9 135.5zM426 1137v309h303v-309h-303z" />
<glyph unicode="&#xc0;" horiz-adv-x="1067" d="M8 0l293 1446h467l293 -1446h-342l-49 330h-269l-51 -330h-342zM160 1860h332l198 -291h-223zM440 573h195l-96 644z" />
<glyph unicode="&#xc1;" horiz-adv-x="1067" d="M8 0l293 1446h467l293 -1446h-342l-49 330h-269l-51 -330h-342zM397 1573l191 291h334l-308 -291h-217zM440 573h195l-96 644z" />
<glyph unicode="&#xc2;" horiz-adv-x="1067" d="M8 0l293 1446h467l293 -1446h-342l-49 330h-269l-51 -330h-342zM166 1567l196 291h343l217 -291h-267l-123 170l-118 -170h-248zM440 573h195l-96 644z" />
<glyph unicode="&#xc3;" horiz-adv-x="1067" d="M8 0l293 1446h467l293 -1446h-342l-49 330h-269l-51 -330h-342zM195 1599q2 31 10 74t29.5 82t62.5 65.5t113 26.5q18 0 31.5 -1t30.5 -6t44 -14l70 -24q51 -18 67.5 -22t32.5 -4q49 0 61.5 24.5t16.5 40.5h102q-4 -29 -11 -70.5t-29.5 -81.5t-63.5 -69t-111 -29 q-23 0 -42 2t-40.5 8.5t-49.5 16.5l-64 24l-58.5 20.5t-29.5 4.5q-47 0 -57.5 -22.5t-12.5 -45.5h-102zM440 573h195l-96 644z" />
<glyph unicode="&#xc4;" horiz-adv-x="1067" d="M8 0l293 1446h467l293 -1446h-342l-49 330h-269l-51 -330h-342zM197 1610v231h276v-231h-276zM440 573h195l-96 644zM590 1610v231h276v-231h-276z" />
<glyph unicode="&#xc5;" horiz-adv-x="1067" d="M8 0l293 1446h467l293 -1446h-342l-49 330h-269l-51 -330h-342zM328 1696q0 41 16 77.5t44 64.5t64.5 44t77.5 16t78 -16t64.5 -44t44 -64.5t16.5 -77.5t-15.5 -77t-43 -64.5t-65.5 -45t-81 -16.5q-55 0 -92 24.5t-49 34.5q-12 12 -35.5 49.5t-23.5 94.5zM440 573h195 l-96 644zM455 1696q0 -31 22.5 -53.5t52.5 -22.5q31 0 53.5 22.5t22.5 53.5t-22.5 53.5t-53.5 22.5t-53 -22.5t-22 -53.5z" />
<glyph unicode="&#xc6;" horiz-adv-x="1579" d="M4 0l559 1446h969v-260h-385v-322h358v-258h-358v-348h385v-258h-733v391h-299l-133 -391h-363zM586 637h213v549h-25z" />
<glyph unicode="&#xc7;" horiz-adv-x="1067" d="M82 354v713q0 78 12 142.5t60 121.5q41 49 92 78t105.5 43t105.5 17.5t90 3.5q94 0 184 -18.5t162 -78.5q39 -31 61.5 -68.5t32.5 -75.5t13.5 -77t3.5 -72v-172h-345v181q0 31 -4 54t-16 39.5t-35.5 26t-64.5 9.5q-37 0 -58.5 -10.5t-33 -29t-14.5 -42t-3 -49.5v-719 q0 -70 19.5 -107t97.5 -37q43 0 65.5 12.5t32.5 33t12 46t2 52.5v180h353v-129q0 -90 -12.5 -166t-51.5 -133t-114.5 -93t-200.5 -44l-88 -103q20 -2 53 -8t61.5 -22.5t50 -47t21.5 -81.5q0 -31 -14.5 -66t-48 -65.5t-89 -51t-137.5 -20.5q-16 0 -33.5 1t-33.5 1l-37 98 q16 -2 31.5 -3t31.5 -1q68 0 93.5 33t25.5 61q0 27 -11 41.5t-25.5 21.5t-29 8t-22.5 1q-29 0 -47 -7t-35 -18l-35 74l136 152q-74 6 -146 22.5t-133 73.5q-57 53 -73.5 117.5t-16.5 156.5z" />
<glyph unicode="&#xc8;" horiz-adv-x="894" d="M96 1860h332l199 -291h-224zM104 0v1448h748v-256h-397v-332h374v-256h-374v-348h397v-256h-748z" />
<glyph unicode="&#xc9;" horiz-adv-x="894" d="M104 0v1448h748v-256h-397v-332h374v-256h-374v-348h397v-256h-748zM334 1573l190 291h334l-307 -291h-217z" />
<glyph unicode="&#xca;" horiz-adv-x="894" d="M102 1567l197 291h342l217 -291h-266l-123 170l-119 -170h-248zM104 0v1448h748v-256h-397v-332h374v-256h-374v-348h397v-256h-748z" />
<glyph unicode="&#xcb;" horiz-adv-x="894" d="M104 0v1448h748v-256h-397v-332h374v-256h-374v-348h397v-256h-748zM133 1606v231h277v-231h-277zM526 1606v231h277v-231h-277z" />
<glyph unicode="&#xcc;" horiz-adv-x="555" d="M-96 1860h332l198 -291h-223zM100 0v1446h351v-1446h-351z" />
<glyph unicode="&#xcd;" horiz-adv-x="555" d="M100 0v1446h351v-1446h-351zM141 1573l191 291h334l-308 -291h-217z" />
<glyph unicode="&#xce;" horiz-adv-x="555" d="M-90 1567l196 291h343l217 -291h-267l-123 170l-118 -170h-248zM100 0v1446h351v-1446h-351z" />
<glyph unicode="&#xcf;" horiz-adv-x="555" d="M-59 1606v231h276v-231h-276zM100 0v1446h351v-1446h-351zM334 1606v231h276v-231h-276z" />
<glyph unicode="&#xd0;" horiz-adv-x="1110" d="M4 682v209h100v557h527q98 0 157.5 -13.5t96.5 -35.5q55 -31 83.5 -71t43 -83t16.5 -85t2 -73v-722q0 -66 -9 -138.5t-60 -130.5q-59 -66 -144.5 -81t-171.5 -15h-541v682h-100zM442 250h109q72 0 100.5 24.5t28.5 98.5v692q0 70 -27.5 100.5t-103.5 30.5h-107v-305h131 v-209h-131v-432z" />
<glyph unicode="&#xd1;" horiz-adv-x="1150" d="M100 0v1446h346l304 -938v938h299v-1446h-353l-301 942v-942h-295zM238 1599q2 31 10 74t29.5 82t62.5 65.5t113 26.5q18 0 31.5 -1t30.5 -6t44 -14l70 -24q51 -18 67.5 -22t32.5 -4q49 0 61.5 24.5t16.5 40.5h102q-4 -29 -11 -70.5t-29.5 -81.5t-63.5 -69t-111 -29 q-23 0 -42 2t-40.5 8.5t-49.5 16.5l-64 24l-58.5 20.5t-29.5 4.5q-47 0 -57.5 -22.5t-12.5 -45.5h-102z" />
<glyph unicode="&#xd2;" horiz-adv-x="1110" d="M82 440v598q0 86 18.5 167t83.5 151q41 43 90.5 66.5t100.5 35.5t99 14.5t87 2.5q115 0 194 -24t130 -62.5t78.5 -89t41 -102.5t15.5 -102.5t2 -88.5v-553q0 -43 -2 -90.5t-11.5 -93.5t-32 -92t-61.5 -85t-86 -61.5t-96 -32.5t-96 -13t-86 -3q-172 0 -267.5 48 t-140.5 118.5t-53 149.5t-8 142zM182 1860h332l199 -291h-224zM432 358q0 -25 2 -47t13.5 -38.5t36 -26.5t69.5 -10q72 0 96.5 29.5t24.5 92.5v740q0 72 -28 95.5t-99 23.5q-66 0 -90.5 -26t-24.5 -91v-742z" />
<glyph unicode="&#xd3;" horiz-adv-x="1110" d="M82 440v598q0 86 18.5 167t83.5 151q41 43 90.5 66.5t100.5 35.5t99 14.5t87 2.5q115 0 194 -24t130 -62.5t78.5 -89t41 -102.5t15.5 -102.5t2 -88.5v-553q0 -43 -2 -90.5t-11.5 -93.5t-32 -92t-61.5 -85t-86 -61.5t-96 -32.5t-96 -13t-86 -3q-172 0 -267.5 48 t-140.5 118.5t-53 149.5t-8 142zM420 1573l190 291h334l-307 -291h-217zM432 358q0 -25 2 -47t13.5 -38.5t36 -26.5t69.5 -10q72 0 96.5 29.5t24.5 92.5v740q0 72 -28 95.5t-99 23.5q-66 0 -90.5 -26t-24.5 -91v-742z" />
<glyph unicode="&#xd4;" horiz-adv-x="1110" d="M82 440v598q0 86 18.5 167t83.5 151q41 43 90.5 66.5t100.5 35.5t99 14.5t87 2.5q115 0 194 -24t130 -62.5t78.5 -89t41 -102.5t15.5 -102.5t2 -88.5v-553q0 -43 -2 -90.5t-11.5 -93.5t-32 -92t-61.5 -85t-86 -61.5t-96 -32.5t-96 -13t-86 -3q-172 0 -267.5 48 t-140.5 118.5t-53 149.5t-8 142zM188 1567l197 291h342l217 -291h-266l-123 170l-119 -170h-248zM432 358q0 -25 2 -47t13.5 -38.5t36 -26.5t69.5 -10q72 0 96.5 29.5t24.5 92.5v740q0 72 -28 95.5t-99 23.5q-66 0 -90.5 -26t-24.5 -91v-742z" />
<glyph unicode="&#xd5;" horiz-adv-x="1110" d="M82 440v598q0 86 18.5 167t83.5 151q41 43 90.5 66.5t100.5 35.5t99 14.5t87 2.5q115 0 194 -24t130 -62.5t78.5 -89t41 -102.5t15.5 -102.5t2 -88.5v-553q0 -43 -2 -90.5t-11.5 -93.5t-32 -92t-61.5 -85t-86 -61.5t-96 -32.5t-96 -13t-86 -3q-172 0 -267.5 48 t-140.5 118.5t-53 149.5t-8 142zM217 1599q2 31 10.5 74t30 82t62 65.5t112.5 26.5q18 0 31.5 -1t31 -6t44.5 -14l69 -24q51 -18 67.5 -22t33.5 -4q49 0 61 24.5t16 40.5h103q-4 -29 -11.5 -70.5t-30 -81.5t-63.5 -69t-110 -29q-23 0 -42.5 2t-41 8.5t-48.5 16.5l-65 24 l-58 20.5t-30 4.5q-47 0 -57 -22.5t-13 -45.5h-102zM432 358q0 -25 2 -47t13.5 -38.5t36 -26.5t69.5 -10q72 0 96.5 29.5t24.5 92.5v740q0 72 -28 95.5t-99 23.5q-66 0 -90.5 -26t-24.5 -91v-742z" />
<glyph unicode="&#xd6;" horiz-adv-x="1110" d="M82 440v598q0 86 18.5 167t83.5 151q41 43 90.5 66.5t100.5 35.5t99 14.5t87 2.5q115 0 194 -24t130 -62.5t78.5 -89t41 -102.5t15.5 -102.5t2 -88.5v-553q0 -43 -2 -90.5t-11.5 -93.5t-32 -92t-61.5 -85t-86 -61.5t-96 -32.5t-96 -13t-86 -3q-172 0 -267.5 48 t-140.5 118.5t-53 149.5t-8 142zM217 1614v231h277v-231h-277zM432 358q0 -25 2 -47t13.5 -38.5t36 -26.5t69.5 -10q72 0 96.5 29.5t24.5 92.5v740q0 72 -28 95.5t-99 23.5q-66 0 -90.5 -26t-24.5 -91v-742zM610 1614v231h277v-231h-277z" />
<glyph unicode="&#xd7;" d="M74 344l254 252l-254 256l184 182l254 -254l254 254l184 -182l-254 -256l254 -252l-184 -186l-254 252l-254 -252z" />
<glyph unicode="&#xd8;" horiz-adv-x="1110" d="M10 39l107 162q-12 29 -19.5 52t-11.5 49t-5 57.5t-1 78.5v596q0 86 18.5 167t83.5 153q41 43 91.5 66.5t100.5 35.5t98 14.5t87 2.5q82 0 139.5 -11.5t97.5 -27t64 -34.5l43 -34l80 113l109 -72l-109 -160l15 -42q7 -19 11.5 -47t7.5 -64.5t3 -92.5v-550q0 -43 -2 -90.5 t-11.5 -94.5t-32 -92t-61.5 -86q-39 -39 -86 -61.5t-96 -32.5t-96 -13.5t-86 -3.5q-84 0 -141.5 9.5t-96.5 25t-65.5 33.5t-48.5 37l-80 -115zM418 412q0 -53 2 -91t13 -63t36 -37t72 -12q37 0 63.5 3t44 16.5t25.5 39t8 70.5v461zM418 649l264 389q0 47 -2 81t-13.5 55.5 t-37 30.5t-72.5 9t-74.5 -9t-42 -24.5t-18.5 -36t-4 -44.5v-451z" />
<glyph unicode="&#xd9;" horiz-adv-x="1110" d="M98 395v1051h351v-1090q0 -16 2 -38.5t12 -43t31.5 -34t62.5 -13.5q39 0 59.5 12.5t29.5 31t11 40t2 39.5v1096h351v-1040q0 -68 -7.5 -143t-49.5 -138.5t-131 -105.5t-251 -42q-119 0 -199.5 19.5t-133 52.5t-81 75t-42 88t-15.5 93t-2 90zM182 1860h332l199 -291h-224z " />
<glyph unicode="&#xda;" horiz-adv-x="1110" d="M98 395v1051h351v-1090q0 -16 2 -38.5t12 -43t31.5 -34t62.5 -13.5q39 0 59.5 12.5t29.5 31t11 40t2 39.5v1096h351v-1040q0 -68 -7.5 -143t-49.5 -138.5t-131 -105.5t-251 -42q-119 0 -199.5 19.5t-133 52.5t-81 75t-42 88t-15.5 93t-2 90zM420 1573l190 291h334 l-307 -291h-217z" />
<glyph unicode="&#xdb;" horiz-adv-x="1110" d="M98 395v1051h351v-1090q0 -16 2 -38.5t12 -43t31.5 -34t62.5 -13.5q39 0 59.5 12.5t29.5 31t11 40t2 39.5v1096h351v-1040q0 -68 -7.5 -143t-49.5 -138.5t-131 -105.5t-251 -42q-119 0 -199.5 19.5t-133 52.5t-81 75t-42 88t-15.5 93t-2 90zM188 1567l197 291h342 l217 -291h-266l-123 170l-119 -170h-248z" />
<glyph unicode="&#xdc;" horiz-adv-x="1110" d="M98 395v1051h351v-1090q0 -16 2 -38.5t12 -43t31.5 -34t62.5 -13.5q39 0 59.5 12.5t29.5 31t11 40t2 39.5v1096h351v-1040q0 -68 -7.5 -143t-49.5 -138.5t-131 -105.5t-251 -42q-119 0 -199.5 19.5t-133 52.5t-81 75t-42 88t-15.5 93t-2 90zM217 1608v231h277v-231h-277z M610 1608v231h277v-231h-277z" />
<glyph unicode="&#xdd;" horiz-adv-x="1067" d="M8 1446h346l176 -639l177 639h348l-361 -936v-510h-340v510zM397 1573l191 291h334l-308 -291h-217z" />
<glyph unicode="&#xde;" horiz-adv-x="1067" d="M102 0v1448h351v-242h233q94 0 159.5 -16t105.5 -51t57.5 -91.5t17.5 -136.5v-297q0 -104 -20.5 -167.5t-61.5 -99.5t-101.5 -48t-137.5 -12h-252v-287h-351zM453 541h116q49 0 75 9t38 33.5t14 67.5t2 111q0 66 -2 104.5t-14 59t-40 26.5t-77 6h-112v-417z" />
<glyph unicode="&#xdf;" horiz-adv-x="1067" d="M92 0v1112q0 45 6 106.5t46 118t126 95t244 38.5q166 0 255 -40.5t130 -100t48 -125t7 -114.5q0 -70 -3 -116t-17 -79t-41 -54.5t-74 -41.5q61 -23 96 -48.5t52.5 -68.5t22.5 -109.5t5 -173.5q0 -68 -1 -117t-6 -84.5t-16 -61t-32 -50.5q-47 -53 -117.5 -69.5 t-142.5 -16.5q-45 0 -89 4t-89 10v158l32 -8q15 -4 37 -4q35 0 53.5 11t28 28.5t10.5 36t1 32.5v346q0 39 -10.5 60.5t-31 31t-49 11.5t-67.5 0v196q10 0 21.5 -1t21.5 -1q33 0 50 10.5t25.5 23.5t9.5 29.5t1 29.5v124q0 16 -2 39t-12.5 42.5t-33 32.5t-65.5 13 q-41 0 -62.5 -12t-31.5 -31.5t-12 -42t-2 -43.5v-1126h-322z" />
<glyph unicode="&#xe0;" d="M63 252q0 96 18.5 156.5t52.5 98.5t81 61.5t107 45.5l99 37l65 26q28 11 52 22l58 28v56q0 19 -1 30.5t-2 18t-3 12.5q-16 41 -45 47t-45 6q-35 0 -53.5 -11.5t-27.5 -33t-10 -53t-1 -72.5h-314q-1 16 0 34q0 43 3 91q5 68 42 127t119 99t234 40q68 0 147.5 -11 t142.5 -44q51 -29 80 -65.5t42.5 -74.5t15.5 -75t2 -64v-614q0 -37 2 -62.5t7 -44t14 -33t24 -30.5h-373v92q-53 -47 -113.5 -85t-158.5 -38t-150.5 34t-77 80t-29 94t-4.5 75zM399 303q0 -25 1 -47.5t9.5 -39.5t25 -27.5t46.5 -10.5q39 0 62.5 12.5t35 32t14.5 45t3 51.5 v228l-41 -22l-43 -22l-37 -21q-16 -9 -22 -13q-35 -27 -44.5 -61.5t-9.5 -104.5zM190 1507h354l195 -260h-262z" />
<glyph unicode="&#xe1;" d="M63 252q0 96 18.5 156.5t52.5 98.5t81 61.5t107 45.5l99 37l65 26q28 11 52 22l58 28v56q0 19 -1 30.5t-2 18t-3 12.5q-16 41 -45 47t-45 6q-35 0 -53.5 -11.5t-27.5 -33t-10 -53t-1 -72.5h-314q-1 16 0 34q0 43 3 91q5 68 42 127t119 99t234 40q68 0 147.5 -11 t142.5 -44q51 -29 80 -65.5t42.5 -74.5t15.5 -75t2 -64v-614q0 -37 2 -62.5t7 -44t14 -33t24 -30.5h-373v92q-53 -47 -113.5 -85t-158.5 -38t-150.5 34t-77 80t-29 94t-4.5 75zM399 303q0 -25 1 -47.5t9.5 -39.5t25 -27.5t46.5 -10.5q39 0 62.5 12.5t35 32t14.5 45t3 51.5 v228l-41 -22l-43 -22l-37 -21q-16 -9 -22 -13q-35 -27 -44.5 -61.5t-9.5 -104.5zM309 1247l179 258h342l-281 -258h-240z" />
<glyph unicode="&#xe2;" d="M63 252q0 96 18.5 156.5t52.5 98.5t81 61.5t107 45.5l99 37l65 26q28 11 52 22l58 28v56q0 19 -1 30.5t-2 18t-3 12.5q-16 41 -45 47t-45 6q-35 0 -53.5 -11.5t-27.5 -33t-10 -53t-1 -72.5h-314q-1 16 0 34q0 43 3 91q5 68 42 127t119 99t234 40q68 0 147.5 -11 t142.5 -44q51 -29 80 -65.5t42.5 -74.5t15.5 -75t2 -64v-614q0 -37 2 -62.5t7 -44t14 -33t24 -30.5h-373v92q-53 -47 -113.5 -85t-158.5 -38t-150.5 34t-77 80t-29 94t-4.5 75zM399 303q0 -25 1 -47.5t9.5 -39.5t25 -27.5t46.5 -10.5q39 0 62.5 12.5t35 32t14.5 45t3 51.5 v228l-41 -22l-43 -22l-37 -21q-16 -9 -22 -13q-35 -27 -44.5 -61.5t-9.5 -104.5zM181 1253l202 256h259l206 -256h-241l-92 121l-89 -121h-245z" />
<glyph unicode="&#xe3;" d="M63 252q0 96 18.5 156.5t52.5 98.5t81 61.5t107 45.5l99 37l65 26q28 11 52 22l58 28v56q0 19 -1 30.5t-2 18t-3 12.5q-16 41 -45 47t-45 6q-35 0 -53.5 -11.5t-27.5 -33t-10 -53t-1 -72.5h-314q-1 16 0 34q0 43 3 91q5 68 42 127t119 99t234 40q68 0 147.5 -11 t142.5 -44q51 -29 80 -65.5t42.5 -74.5t15.5 -75t2 -64v-614q0 -37 2 -62.5t7 -44t14 -33t24 -30.5h-373v92q-53 -47 -113.5 -85t-158.5 -38t-150.5 34t-77 80t-29 94t-4.5 75zM399 303q0 -25 1 -47.5t9.5 -39.5t25 -27.5t46.5 -10.5q39 0 62.5 12.5t35 32t14.5 45t3 51.5 v228l-41 -22l-43 -22l-37 -21q-16 -9 -22 -13q-35 -27 -44.5 -61.5t-9.5 -104.5zM176 1272q2 31 10 74t29.5 81.5t62.5 65.5t113 27q18 0 31.5 -1t31 -6.5t43.5 -14.5l70 -23q51 -18 67.5 -22.5t32.5 -4.5q49 0 61.5 24.5t16.5 40.5h102q-4 -29 -11 -70.5t-29.5 -81.5 t-63.5 -68.5t-111 -28.5q-23 0 -42 2t-40.5 8t-49.5 16l-64 25q-45 16 -58.5 20t-29.5 4q-47 0 -57.5 -22.5t-12.5 -44.5h-102z" />
<glyph unicode="&#xe4;" d="M63 252q0 96 18.5 156.5t52.5 98.5t81 61.5t107 45.5l99 37l65 26q28 11 52 22l58 28v56q0 19 -1 30.5t-2 18t-3 12.5q-16 41 -45 47t-45 6q-35 0 -53.5 -11.5t-27.5 -33t-10 -53t-1 -72.5h-314q-1 16 0 34q0 43 3 91q5 68 42 127t119 99t234 40q68 0 147.5 -11 t142.5 -44q51 -29 80 -65.5t42.5 -74.5t15.5 -75t2 -64v-614q0 -37 2 -62.5t7 -44t14 -33t24 -30.5h-373v92q-53 -47 -113.5 -85t-158.5 -38t-150.5 34t-77 80t-29 94t-4.5 75zM399 303q0 -25 1 -47.5t9.5 -39.5t25 -27.5t46.5 -10.5q39 0 62.5 12.5t35 32t14.5 45t3 51.5 v228l-41 -22l-43 -22l-37 -21q-16 -9 -22 -13q-35 -27 -44.5 -61.5t-9.5 -104.5zM158 1247v254h293v-254h-293zM612 1247v254h293v-254h-293z" />
<glyph unicode="&#xe5;" d="M63 252q0 96 18.5 156.5t52.5 98.5t81 61.5t107 45.5l99 37l65 26q28 11 52 22l58 28v56q0 19 -1 30.5t-2 18t-3 12.5q-16 41 -45 47t-45 6q-35 0 -53.5 -11.5t-27.5 -33t-10 -53t-1 -72.5h-314q-1 16 0 34q0 43 3 91q5 68 42 127t119 99t234 40q68 0 147.5 -11 t142.5 -44q51 -29 80 -65.5t42.5 -74.5t15.5 -75t2 -64v-614q0 -37 2 -62.5t7 -44t14 -33t24 -30.5h-373v92q-53 -47 -113.5 -85t-158.5 -38t-150.5 34t-77 80t-29 94t-4.5 75zM399 303q0 -25 1 -47.5t9.5 -39.5t25 -27.5t46.5 -10.5q39 0 62.5 12.5t35 32t14.5 45t3 51.5 v228l-41 -22l-43 -22l-37 -21q-16 -9 -22 -13q-35 -27 -44.5 -61.5t-9.5 -104.5zM606 1362q0 31 -22.5 53.5t-53.5 22.5t-53 -22.5t-22 -53.5t22.5 -53.5t52.5 -22.5q31 0 53.5 22.5t22.5 53.5zM387 1219q-12 12 -35.5 49t-23.5 94q0 41 15 78t43 64.5t64.5 44t79.5 16.5 q41 0 78 -16.5t64.5 -44t44 -64.5t16.5 -78t-15 -77t-43 -64.5t-66 -45t-81 -16.5q-55 0 -92 25t-49 35z" />
<glyph unicode="&#xe6;" horiz-adv-x="1492" d="M66 289q0 45 6 88t29.5 83t68.5 76.5t123 69.5l68 29l78 33l79 32q39 16 70 31v34v38q0 18 -1 31.5t-3 19.5q-8 29 -32 40t-52 11q-10 0 -28.5 -2t-35.5 -16q-10 -8 -15 -17.5t-8 -25t-3 -42.5v-73h-310q0 51 2 100.5t17.5 93.5t47.5 81.5t91 66.5q33 16 67.5 25.5 t66.5 14.5t56.5 6t36.5 1q59 0 102.5 -7t74 -19.5t51 -26.5t39.5 -29q14 12 35.5 27.5t53 28t77 21.5t106.5 9q147 0 227 -43t117 -108.5t43 -142t6 -144.5v-205h-508v-205q0 -35 15.5 -66.5t76.5 -31.5q16 0 38 3t38 22q6 8 10.5 16t6.5 23.5t2 43.5v74h321q0 -55 -1 -95 t-7 -70.5t-18.5 -54t-32.5 -46.5q-57 -59 -153.5 -91t-205.5 -32q-100 0 -166.5 17.5t-110.5 43t-67.5 53.5l-38.5 46q-27 -33 -54 -61.5t-60 -51t-76 -36t-100 -13.5q-88 0 -140.5 28t-79 72t-33.5 102.5t-7 119.5zM395 330q0 -25 1 -50.5t10.5 -45t29 -32t53.5 -12.5 q45 0 72 20.5t27 84.5v250q-68 -35 -107 -59.5t-57 -47t-23.5 -47t-5.5 -61.5zM909 676h187v137q0 12 -1 28.5t-9.5 31t-27 24.5t-50.5 10q-37 0 -57.5 -10t-30 -24.5t-10.5 -31t-1 -28.5v-137z" />
<glyph unicode="&#xe7;" horiz-adv-x="937" d="M76 305v449q0 45 6 107.5t45 119.5t124 96t241 39q76 0 131 -11t94 -26.5t61.5 -32t32.5 -24.5q33 -27 51.5 -57.5t26.5 -62.5t9 -63.5t1 -62.5v-104h-321v123q0 10 -1.5 27.5t-9.5 33.5t-25.5 28.5t-47.5 12.5q-35 0 -54.5 -12.5t-29 -28.5t-10.5 -33.5t-1 -27.5v-512 q0 -18 3.5 -36t13.5 -33t29.5 -24.5t50.5 -9.5t47 10.5t24 25.5t9.5 33.5t1.5 33.5v100h321v-98q0 -31 -5 -80t-38 -97.5t-102.5 -87t-198.5 -47.5l-76 -90q20 -2 53 -8t62 -22.5t50.5 -47t21.5 -81.5q0 -31 -14.5 -66t-48.5 -65.5t-88 -51t-136 -20.5q-16 0 -33.5 1 t-34.5 1l-37 98q16 -2 32 -3t32 -1q66 0 91.5 33t25.5 61q0 27 -10.5 41.5t-24.5 21.5t-28.5 8t-22.5 1q-29 0 -47.5 -7t-34.5 -18l-33 74l129 148q-111 14 -172 48.5t-91 81t-37 97.5t-7 98z" />
<glyph unicode="&#xe8;" horiz-adv-x="980" d="M76 399v295q0 119 22.5 200t71.5 131t128 71.5t194 21.5q154 0 236.5 -38t121.5 -93t45 -120.5t6 -121.5v-274h-495v-178q0 -12 1 -29.5t10 -35t26.5 -29t52.5 -11.5q25 0 47 6.5t39 26.5q6 8 10 17.5t6 23.5t2 37v61h313q0 -78 -6 -139t-45 -115q-37 -51 -90 -78.5 t-107.5 -41t-101.5 -15.5t-71 -2q-35 0 -79 4t-90.5 16.5t-89.5 34t-75 56.5q-25 25 -40.5 54.5t-24.5 67.5t-13 86t-4 111zM406 678h188v113q0 14 -1 34.5t-10.5 39t-27.5 31.5t-51 13q-37 0 -57.5 -13t-29.5 -31.5t-10 -39t-1 -34.5v-113zM145 1507h354l195 -260h-262z " />
<glyph unicode="&#xe9;" horiz-adv-x="980" d="M76 399v295q0 119 22.5 200t71.5 131t128 71.5t194 21.5q154 0 236.5 -38t121.5 -93t45 -120.5t6 -121.5v-274h-495v-178q0 -12 1 -29.5t10 -35t26.5 -29t52.5 -11.5q25 0 47 6.5t39 26.5q6 8 10 17.5t6 23.5t2 37v61h313q0 -78 -6 -139t-45 -115q-37 -51 -90 -78.5 t-107.5 -41t-101.5 -15.5t-71 -2q-35 0 -79 4t-90.5 16.5t-89.5 34t-75 56.5q-25 25 -40.5 54.5t-24.5 67.5t-13 86t-4 111zM406 678h188v113q0 14 -1 34.5t-10.5 39t-27.5 31.5t-51 13q-37 0 -57.5 -13t-29.5 -31.5t-10 -39t-1 -34.5v-113zM307 1247l179 258h342l-281 -258 h-240z" />
<glyph unicode="&#xea;" horiz-adv-x="980" d="M76 399v295q0 119 22.5 200t71.5 131t128 71.5t194 21.5q154 0 236.5 -38t121.5 -93t45 -120.5t6 -121.5v-274h-495v-178q0 -12 1 -29.5t10 -35t26.5 -29t52.5 -11.5q25 0 47 6.5t39 26.5q6 8 10 17.5t6 23.5t2 37v61h313q0 -78 -6 -139t-45 -115q-37 -51 -90 -78.5 t-107.5 -41t-101.5 -15.5t-71 -2q-35 0 -79 4t-90.5 16.5t-89.5 34t-75 56.5q-25 25 -40.5 54.5t-24.5 67.5t-13 86t-4 111zM406 678h188v113q0 14 -1 34.5t-10.5 39t-27.5 31.5t-51 13q-37 0 -57.5 -13t-29.5 -31.5t-10 -39t-1 -34.5v-113zM156 1253l202 256h259l206 -256 h-241l-92 121l-89 -121h-245z" />
<glyph unicode="&#xeb;" horiz-adv-x="980" d="M76 399v295q0 119 22.5 200t71.5 131t128 71.5t194 21.5q154 0 236.5 -38t121.5 -93t45 -120.5t6 -121.5v-274h-495v-178q0 -12 1 -29.5t10 -35t26.5 -29t52.5 -11.5q25 0 47 6.5t39 26.5q6 8 10 17.5t6 23.5t2 37v61h313q0 -78 -6 -139t-45 -115q-37 -51 -90 -78.5 t-107.5 -41t-101.5 -15.5t-71 -2q-35 0 -79 4t-90.5 16.5t-89.5 34t-75 56.5q-25 25 -40.5 54.5t-24.5 67.5t-13 86t-4 111zM406 678h188v113q0 14 -1 34.5t-10.5 39t-27.5 31.5t-51 13q-37 0 -57.5 -13t-29.5 -31.5t-10 -39t-1 -34.5v-113zM113 1247v254h293v-254h-293z M567 1247v254h293v-254h-293z" />
<glyph unicode="&#xec;" horiz-adv-x="512" d="M92 1087h326v-1087h-326v1087zM-66 1507h354l195 -260h-262z" />
<glyph unicode="&#xed;" horiz-adv-x="512" d="M92 1087h326v-1087h-326v1087zM51 1247l179 258h342l-281 -258h-240z" />
<glyph unicode="&#xee;" horiz-adv-x="512" d="M92 1087h326v-1087h-326v1087zM-75 1253l202 256h259l206 -256h-241l-92 121l-89 -121h-245z" />
<glyph unicode="&#xef;" horiz-adv-x="512" d="M92 1087h326v-1087h-326v1087zM-119 1247v254h293v-254h-293zM335 1247v254h293v-254h-293z" />
<glyph unicode="&#xf0;" horiz-adv-x="980" d="M74 356v375q0 70 7 139.5t52 130.5q31 43 65.5 67t66.5 34t57.5 12t37.5 2q45 0 77 -10t56.5 -27.5t43 -40t36.5 -49.5q-10 45 -26.5 99.5t-67.5 128.5l-250 -66l-43 115l205 53l-19 19q-9 9 -21.5 19.5t-31.5 23.5l-47 34l301 80q16 -10 35 -24.5t35 -29l29 -26.5 l16 -16l137 39l47 -109l-104 -29q43 -53 70.5 -120.5t42 -140t19.5 -146.5t5 -137v-414q0 -45 -6 -108.5t-45 -123t-123 -101.5t-239 -42q-86 0 -165 17.5t-139 64.5q-41 29 -63.5 63.5t-33.5 72.5t-14 81t-3 90zM395 305q0 -14 1 -32.5t10.5 -35t29 -27.5t53.5 -11 q35 0 54.5 14t29 33.5t10.5 40t1 35.5v448q0 16 -1 37.5t-10.5 40t-29 32t-54.5 13.5t-54 -14.5t-28.5 -35t-10.5 -43t-1 -36.5v-459z" />
<glyph unicode="&#xf1;" d="M92 0v1087h328v-102l35 39q20 23 50 43t68.5 34.5t90.5 14.5q86 0 138 -33.5t79 -72.5q39 -53 46 -109.5t7 -114.5v-786h-322v774q0 12 -1 31.5t-10 39t-28.5 34t-54.5 14.5q-37 0 -57.5 -13.5t-29.5 -32t-10 -37.5t-1 -30v-780h-328zM176 1272q2 31 10 74t29.5 81.5 t62.5 65.5t113 27q18 0 31.5 -1t31 -6.5t43.5 -14.5l70 -23q51 -18 67.5 -22.5t32.5 -4.5q49 0 61.5 24.5t16.5 40.5h102q-4 -29 -11 -70.5t-29.5 -81.5t-63.5 -68.5t-111 -28.5q-23 0 -42 2t-40.5 8t-49.5 16l-64 25q-45 16 -58.5 20t-29.5 4q-47 0 -57.5 -22.5 t-12.5 -44.5h-102z" />
<glyph unicode="&#xf2;" horiz-adv-x="980" d="M74 356v375q0 51 6 117.5t45 126t123 100.5t239 41q104 0 176 -19.5t118 -50t72 -69.5t37 -79t13 -78t2 -64v-414q0 -45 -6 -108.5t-45 -123t-123 -101.5t-239 -42q-88 0 -166 18.5t-138 63.5q-41 29 -63.5 63.5t-33.5 72.5t-14 81t-3 90zM395 305q0 -14 1 -32.5 t10.5 -35t29 -27.5t53.5 -11q35 0 54.5 14t29 33.5t10.5 40t1 35.5v448q0 16 -1 37.5t-10.5 40t-29 32t-54.5 13.5t-54 -14.5t-28.5 -35t-10.5 -43t-1 -36.5v-459zM166 1507h354l195 -260h-262z" />
<glyph unicode="&#xf3;" horiz-adv-x="980" d="M74 356v375q0 51 6 117.5t45 126t123 100.5t239 41q104 0 176 -19.5t118 -50t72 -69.5t37 -79t13 -78t2 -64v-414q0 -45 -6 -108.5t-45 -123t-123 -101.5t-239 -42q-88 0 -166 18.5t-138 63.5q-41 29 -63.5 63.5t-33.5 72.5t-14 81t-3 90zM395 305q0 -14 1 -32.5 t10.5 -35t29 -27.5t53.5 -11q35 0 54.5 14t29 33.5t10.5 40t1 35.5v448q0 16 -1 37.5t-10.5 40t-29 32t-54.5 13.5t-54 -14.5t-28.5 -35t-10.5 -43t-1 -36.5v-459zM284 1247l179 258h342l-281 -258h-240z" />
<glyph unicode="&#xf4;" horiz-adv-x="980" d="M74 356v375q0 51 6 117.5t45 126t123 100.5t239 41q104 0 176 -19.5t118 -50t72 -69.5t37 -79t13 -78t2 -64v-414q0 -45 -6 -108.5t-45 -123t-123 -101.5t-239 -42q-88 0 -166 18.5t-138 63.5q-41 29 -63.5 63.5t-33.5 72.5t-14 81t-3 90zM395 305q0 -14 1 -32.5 t10.5 -35t29 -27.5t53.5 -11q35 0 54.5 14t29 33.5t10.5 40t1 35.5v448q0 16 -1 37.5t-10.5 40t-29 32t-54.5 13.5t-54 -14.5t-28.5 -35t-10.5 -43t-1 -36.5v-459zM156 1253l202 256h259l206 -256h-241l-92 121l-89 -121h-245z" />
<glyph unicode="&#xf5;" horiz-adv-x="980" d="M74 356v375q0 51 6 117.5t45 126t123 100.5t239 41q104 0 176 -19.5t118 -50t72 -69.5t37 -79t13 -78t2 -64v-414q0 -45 -6 -108.5t-45 -123t-123 -101.5t-239 -42q-88 0 -166 18.5t-138 63.5q-41 29 -63.5 63.5t-33.5 72.5t-14 81t-3 90zM395 305q0 -14 1 -32.5 t10.5 -35t29 -27.5t53.5 -11q35 0 54.5 14t29 33.5t10.5 40t1 35.5v448q0 16 -1 37.5t-10.5 40t-29 32t-54.5 13.5t-54 -14.5t-28.5 -35t-10.5 -43t-1 -36.5v-459zM152 1272q2 31 10 74t29.5 81.5t62.5 65.5t113 27q18 0 31.5 -1t31 -6.5t43.5 -14.5l70 -23 q51 -18 67.5 -22.5t32.5 -4.5q49 0 61.5 24.5t16.5 40.5h102q-4 -29 -11 -70.5t-29.5 -81.5t-63.5 -68.5t-111 -28.5q-23 0 -42 2t-40.5 8t-49.5 16l-64 25q-45 16 -58.5 20t-29.5 4q-47 0 -57.5 -22.5t-12.5 -44.5h-102z" />
<glyph unicode="&#xf6;" horiz-adv-x="980" d="M74 356v375q0 51 6 117.5t45 126t123 100.5t239 41q104 0 176 -19.5t118 -50t72 -69.5t37 -79t13 -78t2 -64v-414q0 -45 -6 -108.5t-45 -123t-123 -101.5t-239 -42q-88 0 -166 18.5t-138 63.5q-41 29 -63.5 63.5t-33.5 72.5t-14 81t-3 90zM395 305q0 -14 1 -32.5 t10.5 -35t29 -27.5t53.5 -11q35 0 54.5 14t29 33.5t10.5 40t1 35.5v448q0 16 -1 37.5t-10.5 40t-29 32t-54.5 13.5t-54 -14.5t-28.5 -35t-10.5 -43t-1 -36.5v-459zM115 1253v254h293v-254h-293zM569 1253v254h293v-254h-293z" />
<glyph unicode="&#xf7;" d="M2 465v260h1022v-260h-1022zM348 225q0 68 47 118t119 50t118 -51t46 -119q0 -29 -11.5 -57.5t-33 -51t-52 -37t-69.5 -14.5q-66 0 -115 45t-49 117zM348 958q0 74 50.5 121t113.5 47q72 0 119 -49t47 -119q0 -72 -51.5 -116.5t-116.5 -44.5q-61 0 -111.5 44.5 t-50.5 116.5z" />
<glyph unicode="&#xf8;" horiz-adv-x="980" d="M37 29l78 112q-18 35 -30.5 77t-12.5 138v406q0 35 4 76t19.5 83t46 79.5t83.5 66.5q45 23 116 39t148 16q55 0 97.5 -6t74 -15t56 -19.5t45.5 -20.5l65 90l105 -74l-72 -102l17 -33q8 -16 15 -38.5t11 -53.5t4 -74v-397q0 -33 -2 -76t-13 -89t-37 -89t-72 -78 t-116.5 -55.5t-174.5 -20.5q-76 0 -150 14.5t-137 55.5l-62 -86zM383 287q2 -14 6 -30.5t14.5 -31t29 -23.5t52.5 -9q41 0 62.5 14t32 33.5t12.5 40t2 34.5v281zM383 518l211 303q-2 8 -5 22.5t-14.5 28t-31 22.5t-51.5 9q-41 0 -62.5 -15.5t-32 -38t-12.5 -47t-2 -40.5 v-244z" />
<glyph unicode="&#xf9;" d="M86 311v779h324v-760q0 -12 1 -31.5t10 -36t28.5 -29t56.5 -12.5t57.5 12.5t29.5 30t11 36.5t2 32v758h324v-1090h-324v119q-14 -23 -32.5 -48.5t-47 -48t-69.5 -37t-99 -14.5q-102 0 -157.5 41t-81 96.5t-29.5 112.5t-4 90zM190 1507h354l195 -260h-262z" />
<glyph unicode="&#xfa;" d="M86 311v779h324v-760q0 -12 1 -31.5t10 -36t28.5 -29t56.5 -12.5t57.5 12.5t29.5 30t11 36.5t2 32v758h324v-1090h-324v119q-14 -23 -32.5 -48.5t-47 -48t-69.5 -37t-99 -14.5q-102 0 -157.5 41t-81 96.5t-29.5 112.5t-4 90zM309 1247l179 258h342l-281 -258h-240z" />
<glyph unicode="&#xfb;" d="M86 311v779h324v-760q0 -12 1 -31.5t10 -36t28.5 -29t56.5 -12.5t57.5 12.5t29.5 30t11 36.5t2 32v758h324v-1090h-324v119q-14 -23 -32.5 -48.5t-47 -48t-69.5 -37t-99 -14.5q-102 0 -157.5 41t-81 96.5t-29.5 112.5t-4 90zM181 1253l202 256h259l206 -256h-241l-92 121 l-89 -121h-245z" />
<glyph unicode="&#xfc;" d="M86 311v779h324v-760q0 -12 1 -31.5t10 -36t28.5 -29t56.5 -12.5t57.5 12.5t29.5 30t11 36.5t2 32v758h324v-1090h-324v119q-14 -23 -32.5 -48.5t-47 -48t-69.5 -37t-99 -14.5q-102 0 -157.5 41t-81 96.5t-29.5 112.5t-4 90zM127 1251v254h293v-254h-293zM581 1251v254 h293v-254h-293z" />
<glyph unicode="&#xfd;" horiz-adv-x="894" d="M-4 1087h319l131 -856l121 856h326l-260 -1118q-23 -98 -48.5 -164.5t-78.5 -111.5q-33 -29 -72 -45.5t-82 -24.5t-88 -10t-92 -2h-158v211h144q66 0 90 23.5t31 82.5zM243 1247l179 258h342l-281 -258h-240z" />
<glyph unicode="&#xfe;" d="M94 -383v1829h326v-473q16 23 36.5 48.5t51.5 47t74 35.5t106 14q12 0 36 -1t52.5 -9t59 -25.5t57.5 -50.5q6 -6 15.5 -19.5t19.5 -38t17 -59t7 -84.5v-495q0 -80 -11 -146.5t-42 -115.5t-83 -76t-134 -27q-61 0 -104 13.5t-74 33t-50.5 42t-33.5 40.5v-483h-326z M420 338q0 -16 2 -39t11 -44.5t30.5 -36.5t60.5 -15t60.5 14t31 35.5t11.5 45.5t2 40v414q0 16 -2 37.5t-11.5 42t-30 34t-59.5 13.5q-41 0 -62.5 -13.5t-30.5 -33t-11 -40t-2 -34.5v-420z" />
<glyph unicode="&#xff;" horiz-adv-x="894" d="M-4 1087h319l131 -856l121 856h326l-260 -1118q-23 -98 -48.5 -164.5t-78.5 -111.5q-33 -29 -72 -45.5t-82 -24.5t-88 -10t-92 -2h-158v211h144q66 0 90 23.5t31 82.5zM72 1247v254h293v-254h-293zM526 1247v254h293v-254h-293z" />
<glyph unicode="&#x131;" horiz-adv-x="512" d="M92 1087h326v-1087h-326v1087z" />
<glyph unicode="&#x152;" horiz-adv-x="1449" d="M86 440v580q0 55 7 132t40 148.5t99.5 122t185.5 50.5q53 0 93 -9.5t69.5 -24t50.5 -30.5l37 -31v70h735v-258h-387v-324h356v-256h-356v-352h387v-258h-735v63q-37 -25 -94.5 -54t-151.5 -29q-84 0 -141.5 26.5t-95.5 68.5t-57 95t-28.5 104.5t-11.5 95t-2 70.5z M434 352q0 -16 2 -38.5t12.5 -44t34 -37t66.5 -15.5q45 0 68.5 14.5t35 35t13.5 44t2 39.5v770q0 8 -2 28.5t-12.5 40t-34 35t-66.5 15.5q-45 0 -68.5 -14.5t-35 -35t-13.5 -40t-2 -29.5v-768z" />
<glyph unicode="&#x153;" horiz-adv-x="1492" d="M72 397v353q0 31 2 68.5t12 75.5t31.5 76t62.5 68q37 29 84 44.5t91 23.5t79 9t49 1q61 0 103.5 -7t73 -18.5t52 -24.5t40.5 -28l36 29q18 14 47 25.5t71 17.5t106 6q117 0 184.5 -25.5t108.5 -56.5q78 -57 95 -131t17 -170v-260h-508v-186q0 -20 2 -40t12.5 -36 t30 -26.5t56.5 -10.5t56 11.5t28.5 33t11.5 54t2 75.5h315q0 -49 -2 -91t-11 -79t-29.5 -68.5t-59.5 -60.5q-55 -43 -129 -60.5t-166 -17.5q-66 0 -112 7.5t-77.5 17.5t-51 22.5t-33.5 22.5l-53 -28q-26 -13 -57.5 -22t-70.5 -15.5t-90 -6.5q-154 0 -236.5 41t-121.5 104.5 t-45 139t-6 143.5zM393 279q0 -12 1 -31t10.5 -35t28 -28.5t52.5 -12.5q37 0 56.5 12.5t29 28.5t11.5 35.5t2 36.5v524q0 14 -1 31.5t-10.5 34t-29 27.5t-54.5 11q-53 0 -74.5 -22.5t-21.5 -73.5v-538zM909 670h195v127q0 14 -2 32.5t-11.5 35t-29 26.5t-55.5 10 q-37 0 -56.5 -11t-29 -27.5t-10.5 -34t-1 -29.5v-129z" />
<glyph unicode="&#x178;" horiz-adv-x="1067" d="M8 1446h346l176 -639l177 639h348l-361 -936v-510h-340v510zM197 1606v231h276v-231h-276zM590 1606v231h276v-231h-276z" />
<glyph unicode="&#x2c6;" horiz-adv-x="555" d="M-55 1253l202 256h259l206 -256h-241l-92 121l-89 -121h-245z" />
<glyph unicode="&#x2da;" horiz-adv-x="555" d="M352 1362q0 31 -22.5 53.5t-53.5 22.5t-53 -22.5t-22 -53.5t22.5 -53.5t52.5 -22.5q31 0 53.5 22.5t22.5 53.5zM133 1219q-12 12 -35.5 49t-23.5 94q0 41 15 78t43 64.5t64.5 44t79.5 16.5q41 0 78 -16.5t64.5 -44t44 -64.5t16.5 -78t-15 -77t-43 -64.5t-66 -45 t-81 -16.5q-55 0 -92 25t-49 35z" />
<glyph unicode="&#x2dc;" horiz-adv-x="555" d="M-57 1272q2 31 10 74t29.5 81.5t62.5 65.5t113 27q18 0 31.5 -1t31 -6.5t43.5 -14.5l70 -23q51 -18 67.5 -22.5t32.5 -4.5q49 0 61.5 24.5t16.5 40.5h102q-4 -29 -11 -70.5t-29.5 -81.5t-63.5 -68.5t-111 -28.5q-23 0 -42 2t-40.5 8t-49.5 16l-64 25q-45 16 -58.5 20 t-29.5 4q-47 0 -57.5 -22.5t-12.5 -44.5h-102z" />
<glyph unicode="&#x2000;" horiz-adv-x="948" />
<glyph unicode="&#x2001;" horiz-adv-x="1898" />
<glyph unicode="&#x2002;" horiz-adv-x="948" />
<glyph unicode="&#x2003;" horiz-adv-x="1898" />
<glyph unicode="&#x2004;" horiz-adv-x="632" />
<glyph unicode="&#x2005;" horiz-adv-x="473" />
<glyph unicode="&#x2006;" horiz-adv-x="315" />
<glyph unicode="&#x2007;" horiz-adv-x="315" />
<glyph unicode="&#x2008;" horiz-adv-x="235" />
<glyph unicode="&#x2009;" horiz-adv-x="378" />
<glyph unicode="&#x200a;" horiz-adv-x="104" />
<glyph unicode="&#x2010;" horiz-adv-x="681" d="M57 602v248h561v-248h-561z" />
<glyph unicode="&#x2011;" horiz-adv-x="681" d="M57 602v248h561v-248h-561z" />
<glyph unicode="&#x2013;" d="M68 606v242h895v-242h-895z" />
<glyph unicode="&#x2014;" horiz-adv-x="1193" d="M74 602v248h1052v-248h-1052z" />
<glyph unicode="&#x2018;" horiz-adv-x="512" d="M113 823v312l163 313h138l-95 -313h95v-312h-301z" />
<glyph unicode="&#x2019;" horiz-adv-x="512" d="M104 823l95 312h-95v311h302v-311l-162 -312h-140z" />
<glyph unicode="&#x201a;" horiz-adv-x="512" d="M84 -311l115 311h-93v311h300v-311l-183 -311h-139z" />
<glyph unicode="&#x201c;" horiz-adv-x="894" d="M98 821v309l183 318h141l-115 -318h88v-309h-297zM504 821v309l178 318h141l-112 -318h90v-309h-297z" />
<glyph unicode="&#x201d;" horiz-adv-x="894" d="M74 825l116 314h-96v307h299v-307l-178 -314h-141zM477 825l115 314h-92v307h299v-307l-183 -314h-139z" />
<glyph unicode="&#x201e;" horiz-adv-x="894" d="M74 -311l114 311h-96v311h299v-311l-176 -311h-141zM477 -311l115 311h-92v311h299v-311l-183 -311h-139z" />
<glyph unicode="&#x2022;" horiz-adv-x="681" d="M25 725q0 61 24.5 118.5t67.5 100.5t101 69.5t128 26.5q63 0 120.5 -22.5t100.5 -64.5t67.5 -101t24.5 -131q0 -49 -16 -105.5t-54 -103.5t-98.5 -78t-146.5 -31q-72 0 -131 27t-101 72t-64.5 103.5t-22.5 119.5z" />
<glyph unicode="&#x2026;" horiz-adv-x="2048" d="M188 0v311h304v-311h-304zM870 0v311h304v-311h-304zM1552 0v311h303v-311h-303z" />
<glyph unicode="&#x202f;" horiz-adv-x="378" />
<glyph unicode="&#x2039;" horiz-adv-x="425" d="M55 518v248l291 238v-261l-119 -96l119 -104v-260z" />
<glyph unicode="&#x203a;" horiz-adv-x="425" d="M80 285v262l117 96l-117 107v258l289 -240v-244z" />
<glyph unicode="&#x205f;" horiz-adv-x="473" />
<glyph unicode="&#x2122;" horiz-adv-x="1409" d="M2 1309v137h586v-137h-205v-543h-172v543h-209zM643 766v680h217l156 -492l145 492h219v-680h-168l9 362l10 138l-27 -109l-117 -391h-151l-121 393l-29 105l13 -136l10 -362h-166z" />
</font>
</defs>
</svg>
