<?xml version="1.0" standalone="no"?>
<!DOCTYPE svg PUBLIC "-//W3C//DTD SVG 1.1//EN" "http://www.w3.org/Graphics/SVG/1.1/DTD/svg11.dtd" >
<svg xmlns="http://www.w3.org/2000/svg">
<metadata>
This is a custom SVG webfont generated by Font Squirrel.
Copyright   : Copyright c 1991 Adobe Systems Incorporated  All Rights ReservedBerthold Akzidenz Grotesk is a registered trademark of H Berthold AG
Foundry     : Adobe Systems Incorporated
</metadata>
<defs>
<font id="webfonttv4e6Hyr" horiz-adv-x="1067" >
<font-face units-per-em="2048" ascent="1638" descent="-410" />
<missing-glyph horiz-adv-x="555" />
<glyph unicode=" "  horiz-adv-x="555" />
<glyph unicode="&#x09;" horiz-adv-x="555" />
<glyph unicode="&#xa0;" horiz-adv-x="555" />
<glyph unicode="!" horiz-adv-x="598" d="M158 0v313h360v-313h-360zM158 1090v358h360v-358l-55 -625h-252z" />
<glyph unicode="&#x22;" horiz-adv-x="811" d="M45 1391q0 45 18.5 73.5t43 44t51 20.5t43.5 5q23 0 47 -7t43.5 -22.5t33 -41t13.5 -62.5q0 -12 -4 -29l-109 -536h-63l-111 512q-6 20 -6 43zM473 1391q0 45 17.5 73.5t42 44t50 20.5t44.5 5q53 0 96 -32t43 -99q0 -10 -4 -31l-109 -536h-63l-113 512q-2 10 -3 21.5 t-1 21.5z" />
<glyph unicode="#" horiz-adv-x="1193" d="M0 381v254h229l27 194h-205v254h240l51 361h254l-49 -361h203l49 361h256l-49 -361h188v-254h-223l-27 -194h201v-254h-238l-53 -381h-258l55 381h-202l-54 -381h-254l52 381h-193zM483 635h203l27 194h-201z" />
<glyph unicode="$" d="M25 467h405v-32v-46q0 -25 1 -45t3 -27q12 -47 42 -56t50 -9q37 0 56.5 12t29 30.5t10.5 39t1 37.5q0 31 -7.5 52t-31 46t-70.5 59l-127 90q-98 68 -160.5 116t-99.5 94t-51.5 101.5t-14.5 139.5q0 121 36 193.5t89.5 113.5t118 58.5t119.5 27.5v250h223v-250 q18 -2 51 -8t73 -19.5t82 -37t77 -60.5q31 -33 48 -67.5t25.5 -76.5t9.5 -91t1 -113h-379q0 37 -2 82t-6 68q-8 27 -34 39t-54 12q-47 0 -68.5 -25.5t-21.5 -66.5q0 -23 5 -38.5t25.5 -35.5t60.5 -50l109 -79q123 -88 199 -147.5t117 -110.5t54 -105.5t13 -130.5 q0 -70 -10 -136t-48 -122.5t-115 -98.5t-212 -60v-297h-223v297q-37 4 -77 10t-80 18.5t-77.5 31.5t-70.5 52q-35 35 -54.5 74t-28.5 85t-10 98.5t-1 113.5z" />
<glyph unicode="%" horiz-adv-x="1705" d="M53 838v383q0 33 5 76.5t35 81.5t93.5 64.5t182.5 26.5q115 0 177 -26.5t92 -66.5t35 -85t5 -80v-405q0 -37 -5 -84t-35 -88t-94.5 -69.5t-183.5 -28.5q-115 0 -177 25.5t-91 67.5t-34 96.5t-5 111.5zM299 772q0 -14 1 -28.5t7 -26.5t19.5 -20.5t38.5 -8.5q27 0 41 8.5 t20 20.5t7 27.5t1 27.5v475q0 8 -1 20.5t-7 24t-20.5 19.5t-40.5 8q-25 0 -38.5 -7t-19.5 -18.5t-7 -24t-1 -22.5v-475zM541 0l440 1446h178l-440 -1446h-178zM1024 287v383q0 33 5 77t35 81.5t93.5 64.5t181.5 27q115 0 178.5 -27t92 -67t35 -85t6.5 -79v-408 q0 -37 -5.5 -83t-35 -87t-95 -69.5t-184.5 -28.5q-115 0 -177 25.5t-91 68.5t-34 97.5t-5 109.5zM1270 219q0 -12 1 -26.5t7 -26.5t20.5 -20.5t38.5 -8.5q27 0 41.5 8.5t20.5 20.5t7 26.5t1 26.5v475q0 8 -1 20.5t-7 25t-20.5 20.5t-41.5 8q-25 0 -39 -8t-20 -19.5t-7 -23.5 t-1 -23v-475z" />
<glyph unicode="&#x26;" horiz-adv-x="1236" d="M25 356q0 86 31.5 154t80.5 121t107.5 94l113.5 76q-10 20 -17 32.5t-12 22.5t-12.5 21.5t-17.5 31.5q-33 55 -53.5 102.5t-20.5 112.5q0 39 15.5 93.5t58.5 103.5t118 84t193 35q94 0 171 -23.5t129.5 -65.5t81 -101.5t28.5 -129.5q0 -72 -26.5 -130t-66.5 -104t-84 -81 l-81 -62l102 -178l10 44q4 17 7 35l4 36q2 18 4 47h285q-4 -111 -28 -224.5t-106 -250.5q18 -25 37 -36t62 -11h88v-205h-271q-72 0 -105.5 9t-59.5 24q-43 -18 -100.5 -35.5t-164.5 -17.5q-23 0 -68.5 2t-102 12t-115 32.5t-106.5 64.5t-78.5 106.5t-30.5 158.5zM387 389 q0 -25 11.5 -53.5t31 -51t47 -38t60.5 -15.5q35 0 63.5 13.5t54.5 29.5l-151 269q-14 -8 -33.5 -21.5t-38 -33t-32 -44t-13.5 -55.5zM557 1130q0 -39 21.5 -78.5t52.5 -72.5l35 25q20 14 38.5 32.5t32 42t13.5 49.5q0 43 -29 68t-70 25q-47 0 -70.5 -25t-23.5 -66z" />
<glyph unicode="'" horiz-adv-x="425" d="M68 1389q0 39 12 63q16 37 55 59.5t86 22.5q8 0 30.5 -3t47.5 -16.5t43 -41t18 -76.5q0 -6 -1 -12.5t-1 -12.5l-110 -536h-64l-112 512q-2 10 -3 20.5t-1 20.5z" />
<glyph unicode="(" horiz-adv-x="681" d="M96 -4v1016q0 47 3 100t21.5 104.5t58.5 98.5t114 82q43 18 83 29.5t85 15.5t96 5t115 1v-135q-61 0 -103.5 -9.5t-68 -35t-35.5 -70.5t-10 -117v-1112q0 -76 8 -124t30.5 -74.5t65.5 -36.5t113 -10v-136h-146q-90 0 -168.5 16.5t-137 61.5t-91.5 125t-33 205z" />
<glyph unicode=")" horiz-adv-x="681" d="M10 -276q61 0 103.5 9t68 34.5t35.5 70.5t10 117v1112q0 76 -8 124t-30.5 74.5t-65.5 37t-113 10.5v135h146q90 0 168.5 -16.5t137 -61.5t91.5 -125t33 -205v-1015q0 -47 -3 -100.5t-21.5 -104.5t-58.5 -98.5t-114 -81.5q-43 -18 -83 -29.5t-85 -16t-96 -5.5t-115 -1v136 z" />
<glyph unicode="*" horiz-adv-x="894" d="M35 1174q0 8 2 10l282 35l121 254h11l122 -261l285 -34q0 -2 1 -5.5t1 -5.5l-213 -196l72 -271l-6 -8l-267 127l-258 -131q-2 2 -4 3t-4 3l66 279z" />
<glyph unicode="+" horiz-adv-x="1024" d="M70 467v262h311v315h260v-315h315v-262h-315v-320h-260v320h-311z" />
<glyph unicode="," horiz-adv-x="512" d="M78 0v336h352v-336l-184 -311h-133l108 311h-143z" />
<glyph unicode="-" horiz-adv-x="681" d="M33 590v264h618v-264h-618z" />
<glyph unicode="." horiz-adv-x="512" d="M76 0v336h356v-336h-356z" />
<glyph unicode="/" horiz-adv-x="681" d="M4 0l367 1446h307l-365 -1446h-309z" />
<glyph unicode="0" d="M55 383v700q0 43 7.5 110t50.5 128t136 105t265 44q78 0 154.5 -12t138.5 -39q74 -31 112.5 -72.5t57 -84.5t21.5 -85t3 -73v-721q0 -39 -2 -84t-15 -90t-41 -87t-79 -74t-131 -51.5t-196 -19.5q-121 0 -203 20.5t-135.5 55.5t-83 78t-43 88t-15.5 88t-2 76zM426 307 q0 -12 2 -29.5t11.5 -35t29.5 -28.5t59 -11t60.5 12t31 28.5t11.5 34t2 29.5v819q0 10 -2 30t-11.5 38t-31 32.5t-60.5 14.5t-59 -13.5t-29.5 -32.5t-11.5 -38.5t-2 -32.5v-817z" />
<glyph unicode="1" d="M174 973v260q43 4 78 28.5t61.5 57.5t45 67.5t28.5 59.5h367v-1446h-367v1067l-56.5 -35.5t-50 -26t-50 -18.5t-56.5 -14z" />
<glyph unicode="2" d="M63 0v133q0 55 5.5 102.5t19.5 91.5t41 88t72 93q31 35 73 75l87 81l88 79l77 72l58 55q20 20 30.5 39t12.5 40.5t2 56.5v116q0 20 -2 41t-12.5 36t-31 24.5t-55.5 9.5q-61 0 -81.5 -27.5t-20.5 -81.5v-229h-363v195q0 29 2.5 62.5t11.5 69t30.5 72.5t60.5 72 q78 68 172 87.5t186 19.5q119 0 200 -20.5t134 -54.5t82 -78t42 -91t15 -93t2 -85q0 -88 -9 -144.5t-44 -111t-107 -122.5l-198 -181q-49 -45 -78.5 -76t-45 -53.5t-20.5 -42t-7 -39.5h518v-281h-947z" />
<glyph unicode="3" d="M55 334v143h369v-149q0 -14 2 -33t11 -35t29.5 -27.5t57.5 -11.5q39 0 59.5 11.5t30 29t11.5 36.5t2 36v176q0 61 -24.5 79.5t-78.5 18.5h-149v279h155q49 0 73 15.5t24 74.5v141q0 12 -2 30.5t-11.5 34t-30 27t-59.5 11.5q-37 0 -57.5 -11.5t-29.5 -27t-11 -32.5t-2 -30 v-108h-354q0 70 1 120t9 87.5t25.5 69.5t50.5 65q61 61 151 87.5t213 26.5q98 0 195.5 -20.5t171.5 -79.5q41 -33 63.5 -66.5t32.5 -72.5t12 -83t2 -95q0 -53 -7 -94.5t-25.5 -75t-51 -63.5t-82.5 -62q49 -16 81 -36t50.5 -47.5t26.5 -68.5t8 -102v-101q0 -59 -2 -105 t-12 -83t-31.5 -69.5t-62.5 -63.5q-39 -31 -85 -51.5t-93 -31.5t-95.5 -15.5t-91.5 -4.5q-16 0 -49 1.5t-74 6.5t-86 15t-84 29q-66 31 -101.5 69.5t-52 79.5t-19.5 82t-3 74z" />
<glyph unicode="4" d="M43 305v277l418 864h416v-864h147v-277h-147v-305h-371v305h-463zM283 582h239v522z" />
<glyph unicode="5" d="M61 459h365v-152q0 -45 17.5 -74.5t78.5 -29.5q37 0 58.5 8t33 22.5t14.5 34t3 39.5v320q0 14 -2 33.5t-11.5 37t-30 28.5t-59.5 11q-35 0 -54 -8t-29.5 -22.5t-14.5 -31t-6 -30.5h-344l16 801h856v-277h-528l-10 -325q14 16 35.5 38.5t53.5 42t75 34t100 14.5 q12 0 39.5 -2t63.5 -11.5t75 -31t74 -60.5q49 -57 59 -120.5t10 -139.5v-223q0 -78 -10 -146.5t-63 -127.5q-45 -49 -104.5 -76t-117 -39t-105.5 -14t-71 -2q-139 0 -220 24.5t-132 61.5q-43 33 -66.5 70.5t-33.5 84.5t-12.5 105.5t-2.5 132.5z" />
<glyph unicode="6" d="M61 426v616q0 98 15.5 174t83.5 138q76 70 175 93t200 23q102 0 200.5 -23.5t173.5 -92.5q33 -33 51.5 -67t27.5 -73.5t10 -90t1 -113.5h-364v100q0 12 -2 30.5t-11.5 36t-30 29t-59.5 11.5q-37 0 -56 -11.5t-28.5 -27t-10.5 -33t-1 -29.5v-332q12 16 29.5 36t47.5 37 t73 29.5t106 12.5q119 0 183.5 -38t94 -88t35 -103.5t5.5 -83.5v-189q0 -35 -2 -71.5t-10.5 -73.5t-26 -73t-47.5 -68q-16 -16 -45 -39t-75 -42.5t-112.5 -33.5t-154.5 -14q-18 0 -59.5 2t-91.5 12t-105.5 32.5t-104.5 65.5q-41 35 -63.5 74t-33.5 81t-14.5 86t-3.5 91z M436 319q0 -18 2 -37.5t11.5 -36t30 -26.5t57.5 -10t56 11t28.5 28.5t11.5 38t2 37.5v249q0 16 -2 36t-11.5 35t-29 25.5t-51.5 10.5q-39 0 -60.5 -11.5t-31 -28.5t-11.5 -35.5t-2 -33.5v-252z" />
<glyph unicode="7" d="M59 987v461h961v-283l-51 -71q-29 -41 -62 -101.5t-70.5 -145.5t-80.5 -204q-47 -133 -74 -230.5t-41 -171t-18.5 -131t-6.5 -110.5h-387q0 39 2 88t13.5 113.5t35 148.5t68.5 195q72 180 155 333l161 287h-304v-178h-301z" />
<glyph unicode="8" d="M51 362v148q0 61 12.5 103t36 73t60.5 52.5t86 39.5q-59 25 -94 54.5t-52.5 67.5t-22.5 84t-5 103q0 53 4 96.5t16 78t35 64.5t59 56l36 24q24 15 64 29.5t98 24.5t140 10q94 0 171 -16t143 -51q51 -29 82.5 -61.5t49 -69.5t22.5 -77t5 -83q0 -82 -9 -135t-31.5 -90 t-60.5 -61.5t-95 -47.5q66 -18 106.5 -43.5t63 -59.5t31 -76t8.5 -95v-164q0 -49 -7.5 -111.5t-52.5 -118t-143 -93t-279 -37.5q-82 0 -161.5 12t-151.5 47q-59 29 -92 64.5t-49.5 76.5t-19.5 87t-3 95zM430 305q0 -53 22.5 -75.5t86.5 -22.5q35 0 54 9t28.5 23.5t11.5 33 t2 36.5v238q0 14 -2 32.5t-11.5 36t-31 28.5t-60.5 11q-37 0 -57 -10t-29.5 -26.5t-11.5 -35t-2 -34.5v-244zM430 989q0 -16 2 -33.5t11.5 -33t30 -25.5t56.5 -10q37 0 57.5 8t32 22.5t13.5 34t2 39.5v158q0 12 -2 27.5t-11.5 30t-30 24.5t-59.5 10t-59 -9t-29.5 -23.5 t-11.5 -31t-2 -28.5v-160z" />
<glyph unicode="9" d="M47 440h379v-131q0 -16 1 -33.5t10 -32t28.5 -23.5t56.5 -9q39 0 60.5 10t31 25.5t11.5 33t2 31.5v320q-37 -31 -88.5 -59.5t-143.5 -28.5q-72 0 -124 18.5t-87 42.5q-43 31 -66.5 66t-33.5 71.5t-12 72.5t-2 67v190q0 47 7 114.5t49 130t134 106.5t262 44q4 0 34 -1 t72 -6t91 -17t94 -33q68 -33 105.5 -76t54 -87t19.5 -84t3 -68v-707q0 -37 -2 -75t-12 -75.5t-31.5 -74.5t-62.5 -70q-49 -43 -105.5 -65.5t-107.5 -32.5t-92 -12t-60 -2q-92 0 -181 20t-163 74q-49 37 -75.5 74.5t-39 81.5t-14.5 95.5t-2 114.5zM426 864q0 -16 2 -35.5 t11.5 -35t29.5 -25.5t57 -10t57.5 10t30 26.5t11.5 34t2 33.5v246q0 49 -17.5 79t-89.5 30q-63 0 -78.5 -31t-15.5 -74v-248z" />
<glyph unicode=":" horiz-adv-x="598" d="M162 0v334h356v-334h-356zM162 786v336h356v-336h-356z" />
<glyph unicode=";" horiz-adv-x="598" d="M160 0v330h358v-330l-196 -313h-127l112 313h-147zM160 786v336h358v-336h-358z" />
<glyph unicode="&#x3c;" horiz-adv-x="1024" d="M2 592v254l1022 461v-285l-672 -303l672 -295v-283z" />
<glyph unicode="=" horiz-adv-x="1024" d="M0 252v260h1024v-260h-1024zM0 678v260h1024v-260h-1024z" />
<glyph unicode="&#x3e;" horiz-adv-x="1024" d="M0 141v283l674 295l-674 303v283l1024 -459v-254z" />
<glyph unicode="?" horiz-adv-x="980" d="M160 1075q0 51 1 91t7 73t20.5 60.5t40.5 54.5q33 33 76 54.5t87 31.5t85 14t72 4q76 0 149.5 -12t139.5 -53q45 -27 70.5 -60t37.5 -66.5t15.5 -66.5t3.5 -59q0 -57 -10.5 -98.5t-36 -79t-67.5 -77.5l-103 -98q-53 -47 -81 -75.5t-41.5 -49t-15.5 -37t-2 -40.5v-123 h-356v90q0 37 3 63.5t7 47t14 43.5q12 27 30 52t46 56l69 71l99 95l55 55q23 23 37.5 41.5t19.5 35.5t5 40q0 43 -24.5 63.5t-55.5 20.5q-10 0 -24.5 -3t-24.5 -13q-12 -8 -18.5 -16.5t-9.5 -24t-3 -39.5v-66h-317zM252 0v307h356v-307h-356z" />
<glyph unicode="@" horiz-adv-x="1835" d="M141 485q0 199 72 375t198 309.5t298 211t370 77.5q164 0 281 -53t190.5 -137t108.5 -190.5t35 -213.5q0 -145 -42 -276t-109.5 -232.5t-155 -161t-179.5 -59.5q-66 0 -118 33q-41 27 -52.5 54.5t-17.5 53.5l-34 -37q-22 -24 -54.5 -46.5t-74.5 -39t-97 -16.5 q-47 0 -97.5 17.5t-91.5 58.5t-66.5 107.5t-25.5 164.5q0 106 33 211t91.5 189t141 136t181.5 52q49 0 83.5 -12t59.5 -30.5t41 -40l29 -40.5l20 80h184l-67 -325l-16 -77q-10 -48 -19.5 -98.5t-16.5 -96.5t-7 -68q0 -23 8 -33t20 -21q12 0 26.5 2t33 13.5t42 36t54.5 69.5 q59 92 90 204t31 222q0 121 -41 205t-106.5 136t-148.5 74.5t-165 22.5q-143 0 -279.5 -63.5t-242 -173t-169 -258t-63.5 -318.5q0 -160 58.5 -270.5t148.5 -178t200.5 -97t215.5 -29.5q129 0 235.5 33.5t189.5 81t143.5 98.5t96.5 86l97 -125l-123 -106q-70 -58 -162 -109 t-209 -86t-260 -35q-78 0 -168 15.5t-178 49t-170 90t-144.5 138.5t-99.5 192.5t-37 253.5zM690 492q0 -88 41 -130.5t90 -42.5q47 0 92 34t80 89.5t56.5 127t21.5 147.5t-38 124t-101 48q-55 0 -99.5 -38t-76 -96.5t-49 -127.5t-17.5 -135z" />
<glyph unicode="A" horiz-adv-x="1150" d="M-4 0l336 1446h487l328 -1446h-404l-45 326h-247l-50 -326h-405zM487 582h175l-87 579z" />
<glyph unicode="B" horiz-adv-x="1110" d="M70 0v1446h542q84 0 148.5 -8t130.5 -41q61 -31 95 -72t50.5 -84t19.5 -84t3 -72q0 -55 -9.5 -105t-35 -93t-74.5 -76t-129 -55q41 -8 88 -19.5t88 -44.5q35 -29 55.5 -63.5t29.5 -73.5t11 -80t2 -78q0 -104 -19 -175.5t-73 -125.5q-66 -66 -158 -81t-206 -15h-559z M469 276h30h45q24 0 44 1.5t26 3.5q41 10 51.5 37.5t10.5 66.5v100q0 16 -3 43t-22 45q-10 8 -19 13.5t-27.5 7.5t-50.5 2h-85v-320zM469 870h90q63 0 85 24t22 83v81q0 30 -3.5 47t-8.5 26.5t-13 17.5q-8 6 -16.5 10t-25.5 6t-48 2h-82v-297z" />
<glyph unicode="C" horiz-adv-x="1110" d="M59 418v602q0 51 3.5 108.5t25 112.5t67.5 104.5t130 81.5q66 29 136.5 38.5t141.5 9.5q129 0 222.5 -27t160.5 -76q84 -63 105.5 -140t21.5 -179v-140h-399v172q0 12 -2 28.5t-11.5 33t-29 28t-56.5 11.5q-41 0 -62 -11.5t-31.5 -26.5t-13.5 -32.5t-3 -30.5v-735 q0 -10 2 -26.5t11 -32t29.5 -25.5t59.5 -10t61.5 11.5t32 26.5t11.5 33.5t2 32.5v175h405q0 -23 1 -45.5t1 -45.5q0 -86 -10 -170t-60 -150.5t-153.5 -108.5t-290.5 -42q-90 0 -154.5 10.5t-108.5 26t-71.5 30.5t-42.5 28q-49 37 -75.5 78.5t-39 88t-14.5 92.5t-2 91z" />
<glyph unicode="D" horiz-adv-x="1150" d="M70 0v1446h469q39 0 95 -2t115.5 -11.5t119 -30t106.5 -56.5q43 -35 66.5 -75t34.5 -85t13.5 -93.5t2.5 -97.5v-499q0 -66 -3.5 -124.5t-15.5 -109.5t-36.5 -94t-67.5 -80q-39 -33 -81 -51.5t-90 -26.5t-100.5 -9t-113.5 -1h-514zM479 270h90q66 0 90.5 24.5t24.5 94.5 v649q0 29 -2 53.5t-14 41.5q-10 12 -19.5 19t-29 10t-52 4t-88.5 1v-897z" />
<glyph unicode="E" horiz-adv-x="894" d="M72 0v1446h790v-281h-385v-293h357v-276h-357v-317h385v-279h-790z" />
<glyph unicode="F" horiz-adv-x="854" d="M72 0v1446h778v-279h-373v-293h344v-276h-344v-598h-405z" />
<glyph unicode="G" horiz-adv-x="1150" d="M55 393v625q0 43 2 93t16.5 100.5t46.5 97.5t89 82.5t145 58.5t217 23q184 0 288 -41t156 -102.5t64.5 -133.5t12.5 -133v-117h-394v131q0 20 -3 39t-14 33t-34.5 23.5t-64.5 9.5q-43 0 -66.5 -9.5t-34 -23.5t-12.5 -32.5t-2 -35.5v-739q0 -16 2 -35.5t12.5 -38t33 -31 t63.5 -12.5q45 0 69.5 12.5t35.5 30t13 36t2 32.5v164h-125v256h519v-756h-394v158q-23 -43 -49 -77t-60 -56.5t-79 -35t-104 -12.5q-131 0 -203 45.5t-104.5 110t-38 136t-5.5 124.5z" />
<glyph unicode="H" horiz-adv-x="1150" d="M72 0v1448h409v-569h191v569h405v-1448h-405v578h-191v-578h-409z" />
<glyph unicode="I" horiz-adv-x="555" d="M72 0v1446h409v-1446h-409z" />
<glyph unicode="J" horiz-adv-x="724" d="M25 0v276h108q66 0 90.5 25t24.5 98v1047h405v-1065q0 -96 -12 -168t-51 -119t-108.5 -70.5t-184.5 -23.5h-272z" />
<glyph unicode="K" horiz-adv-x="1150" d="M74 0v1446h401v-664l246 664h409l-290 -692l327 -754h-434l-258 670v-670h-401z" />
<glyph unicode="L" horiz-adv-x="854" d="M74 0v1446h403v-1172h375v-274h-778z" />
<glyph unicode="M" horiz-adv-x="1536" d="M72 0v1446h514l184 -954l180 954h510v-1446h-340v991l-223 -991h-260l-225 973v-973h-340z" />
<glyph unicode="N" horiz-adv-x="1150" d="M74 0v1446h375l208 -625l27 -85l18 -59l17 -56l20 -74l-4 899h340v-1446h-383l-227 686l-23 68l-14 44q-6 19 -10 38l-10 47l6 -883h-340z" />
<glyph unicode="O" horiz-adv-x="1150" d="M55 444v545q0 109 12.5 190t71.5 146q47 53 109.5 82t126 43t118 16t85.5 2q92 0 180 -16t166 -61q59 -35 93 -80t49 -95.5t18 -105.5t3 -111v-553q0 -49 -2 -98t-14 -95t-37.5 -89t-72.5 -80q-82 -61 -182.5 -81.5t-192.5 -20.5q-133 0 -223.5 21.5t-149.5 58t-91 84 t-47.5 98.5t-17.5 103t-2 97zM465 367q0 -16 2 -36t11 -36t30.5 -27.5t62.5 -11.5q39 0 60.5 10t32 25.5t12.5 36t2 39.5v720q0 16 -2 35t-11.5 34t-32 25.5t-61.5 10.5q-37 0 -58 -9t-31.5 -24.5t-13.5 -35t-3 -40.5v-716z" />
<glyph unicode="P" horiz-adv-x="1110" d="M72 0v1448h618q37 0 84 -2t96.5 -17.5t93.5 -48t72 -94.5q12 -25 19.5 -54.5t11.5 -70.5t5 -96t1 -133q0 -123 -23.5 -203t-75.5 -126t-136 -63.5t-203 -17.5h-158v-522h-405zM477 799h103q70 0 86 29.5t16 86.5v150q0 70 -27.5 87t-74.5 17h-103v-370z" />
<glyph unicode="Q" horiz-adv-x="1150" d="M55 444v545q0 109 12.5 190t71.5 146q47 53 109.5 82t126 43t118 16t85.5 2q92 0 180 -16t166 -61q59 -35 93 -80t49 -95.5t18 -105.5t3 -111v-553q0 -78 -8 -155.5t-55 -143.5q-10 -14 -30.5 -35.5t-54.5 -44t-83 -43t-117 -30.5q0 -45 1 -72.5t10.5 -43t30 -22 t57.5 -6.5h108v-227h-317q-70 0 -115 12.5t-71.5 41t-38 72.5t-11.5 110v139q-113 23 -179.5 62.5t-102 97t-46 129t-10.5 157.5zM465 367q0 -16 2 -36t11 -36t30.5 -27.5t62.5 -11.5q39 0 60.5 10t32 25.5t12.5 36t2 39.5v720q0 16 -2 35t-11.5 34t-32 25.5t-61.5 10.5 q-37 0 -58 -9t-31.5 -24.5t-13.5 -35t-3 -40.5v-716z" />
<glyph unicode="R" horiz-adv-x="1150" d="M70 0v1448h442q137 0 242.5 -9t178.5 -45t109.5 -109t36.5 -200q0 -31 -3 -75.5t-20.5 -91t-56 -87t-108.5 -63.5q-18 -8 -35 -10q-10 -2 -22 -4q12 0 22 -2t19.5 -3t17.5 -4q72 -16 110.5 -46.5t57 -68.5t21.5 -82t3 -85v-303q0 -31 2.5 -53.5t8.5 -40t16 -33t25 -33.5 h-408l-19.5 36.5t-15.5 42t-10 55.5t-4 77v289q0 53 -17.5 76.5t-76.5 23.5h-105v-600h-411zM481 874h105q37 0 56.5 7.5t28.5 26t10 48t1 74.5q0 72 -15.5 100.5t-78.5 28.5h-107v-285z" />
<glyph unicode="S" d="M31 465h397v-96q0 -10 2 -30t11.5 -39t30 -33.5t56.5 -14.5q35 0 54.5 13.5t29 31.5t10.5 38.5t1 35.5q0 29 -5.5 48t-22.5 38.5t-49 44t-85 61.5l-212 154q-79 59 -121 109.5t-55.5 103.5t-13.5 133q0 29 2 70t15.5 86t42 90t82 80.5t135.5 58t203 22.5q90 0 175 -17 t158 -64q53 -37 83 -80t42.5 -92.5t14.5 -105.5q1 -28 1 -58.5t-1 -63.5h-379v96q0 10 -1 27.5t-10.5 35t-29 31t-55.5 13.5q-29 0 -46.5 -9t-27.5 -23.5t-13.5 -31t-3.5 -30.5q0 -37 20.5 -60.5t51.5 -46.5q12 -10 43 -33l67 -48l68 -49q33 -24 45 -32l132 -104 q54 -45 89 -93t50.5 -106.5t15.5 -144.5q0 -49 -9 -118.5t-57.5 -133t-147.5 -108t-279 -44.5q-6 0 -44 1.5t-88.5 6.5t-104.5 16t-97 34q-66 33 -100.5 80t-50 103t-17.5 118.5t-2 128.5z" />
<glyph unicode="T" horiz-adv-x="1024" d="M-2 1169v277h1022v-277h-307v-1169h-408v1169h-307z" />
<glyph unicode="U" horiz-adv-x="1150" d="M63 367v1081h406v-1063q0 -14 2 -34.5t11.5 -39t31 -32t59.5 -13.5q39 0 59.5 12.5t30 31t11.5 39t2 34.5v1065h407v-1057q0 -49 -3 -98t-19.5 -95t-53 -87t-104.5 -74q-31 -16 -103.5 -36.5t-224.5 -20.5q-127 0 -215 19t-145 51t-88 73t-45 84t-16.5 85t-2.5 75z" />
<glyph unicode="V" horiz-adv-x="1110" d="M-2 1446h399l154 -1114q2 25 3 41l2 31q1 15 3 31t6 40l137 971h404l-281 -1446h-555z" />
<glyph unicode="W" horiz-adv-x="1705" d="M2 1446h358l111 -1026l143 1026h467l148 -1026l108 1026h357l-181 -1446h-501l-164 1077l-166 -1077h-496z" />
<glyph unicode="X" d="M0 0l250 756l-250 690h412l94 -387q10 -39 15 -75t11 -75l7.5 54.5t8.5 53t12 58.5l18 72l77 299h404l-240 -690l240 -756h-404l-100 399q-10 37 -14 67l-9 62q-10 -47 -16 -87t-22 -97l-91 -344h-403z" />
<glyph unicode="Y" horiz-adv-x="1150" d="M2 1446h401l175 -627l170 627h395l-361 -981v-465h-401v465z" />
<glyph unicode="Z" horiz-adv-x="980" d="M33 0v281l469 890h-416v275h856v-285l-473 -880h473v-281h-909z" />
<glyph unicode="[" horiz-adv-x="681" d="M94 -412v1858h576v-133h-219v-1592h219v-133h-576z" />
<glyph unicode="\" horiz-adv-x="681" d="M4 1446h309l365 -1446h-307z" />
<glyph unicode="]" horiz-adv-x="681" d="M10 -281h219v1594h-219v133h576v-1860h-576v133z" />
<glyph unicode="^" horiz-adv-x="1492" d="M233 637l416 809h213l398 -809h-283l-225 473l-238 -473h-281z" />
<glyph unicode="_" horiz-adv-x="1024" d="M-20 -154h1064v-102h-1064v102z" />
<glyph unicode="`" horiz-adv-x="555" d="M-10 1425h416l159 -251h-309z" />
<glyph unicode="a" d="M43 270q0 94 16.5 154.5t57.5 99.5t110.5 64.5t175.5 50.5l80 19q31 7 52.5 13.5t37.5 13.5l41 17v66q0 25 -2 39t-6 22.5t-12 16.5q-14 14 -31.5 17t-34.5 3q-61 0 -71.5 -40t-10.5 -113h-358q0 61 2 111t14.5 90t39 73t75.5 62q59 35 143 51t189 16q37 0 101.5 -3 t133.5 -26q80 -25 124 -64.5t64.5 -82.5t23.5 -86t3 -76v-639q0 -61 11.5 -86.5t40.5 -52.5h-439v96l-53 -40q-29 -22 -65.5 -40t-82.5 -30.5t-104 -12.5q-57 0 -100 13.5t-72 31.5q-68 47 -81 109.5t-13 142.5zM430 295q0 -18 1 -31.5t3 -19.5q8 -35 30.5 -47.5t51.5 -12.5 q37 0 56.5 11.5t28.5 27t11 32.5t2 32v237l-96 -38t-56.5 -31.5t-25.5 -36t-6 -51.5v-35v-37z" />
<glyph unicode="b" d="M61 0v1446h388v-483q12 20 30.5 47.5t49 52t76.5 41t114 16.5q113 0 173 -39t88 -97t33 -124.5t5 -122.5v-393v-35q0 -23 -2 -49.5t-5 -54t-10 -49.5q-29 -92 -103.5 -135.5t-166.5 -43.5q-68 0 -116 16.5t-79.5 39t-52 49.5l-34.5 47v-129h-388zM449 293q0 -16 2 -33.5 t10 -34t25.5 -27t50.5 -10.5q35 0 53 10.5t27.5 26t10.5 36t1 38.5v508q0 39 -16.5 69.5t-73.5 30.5q-35 0 -52.5 -10t-26.5 -25.5t-10 -34t-1 -32.5v-512z" />
<glyph unicode="c" horiz-adv-x="1024" d="M47 324v424q0 29 2 67.5t14.5 79.5t40 81t77.5 70.5t127 50t190 19.5q66 0 123 -6t112 -23q88 -27 135 -67.5t68.5 -83.5t26 -84t4.5 -66v-114h-369v108q0 12 -1 27.5t-9 29t-25.5 22.5t-48.5 9t-47 -9t-24.5 -23.5t-9.5 -28.5t-1 -27v-456q0 -39 14.5 -69t67.5 -30 q14 0 32.5 4t35.5 21q6 8 9 15t5 21.5t2 39.5v67h383q0 -61 -1 -106t-9 -80t-24.5 -64.5t-47.5 -58.5q-43 -41 -95 -62.5t-102.5 -31.5t-92.5 -12.5t-62 -2.5q-174 0 -274.5 34t-150.5 85t-62.5 113t-12.5 117z" />
<glyph unicode="d" d="M49 324v458q0 63 9.5 123t40 106t87 73.5t150.5 27.5q70 0 117 -13.5t78.5 -35t50 -46t30.5 -44.5v473h389v-1446h-389v127q-12 -23 -28.5 -48.5t-46 -48t-73.5 -38t-112 -15.5q-115 0 -176 35t-89 87.5t-33 113t-5 111.5zM438 287q0 -12 1 -27.5t10.5 -29t27 -22.5 t51.5 -9q31 0 48.5 10t25.5 24.5t9 31t1 26.5v497q0 10 -1 25.5t-9 29t-26.5 24t-51.5 10.5t-50 -9.5t-25.5 -24t-9.5 -28.5t-1 -27v-501z" />
<glyph unicode="e" horiz-adv-x="1024" d="M47 350v375q0 82 11.5 153.5t56.5 125t136 84t251 30.5q84 0 167 -10t158 -45q57 -29 89 -65.5t47.5 -76.5t17.5 -81t2 -74v-279h-547v-161q0 -14 1 -33t10.5 -35t27 -27.5t51.5 -11.5q33 0 50.5 9.5t25.5 27.5t9 49t1 74h371q0 -53 -2 -97t-11 -83t-29.5 -73t-57.5 -65 q-25 -20 -56.5 -36.5t-74.5 -26.5t-100.5 -16.5t-133.5 -6.5q-170 0 -265 33t-141 86t-55.5 120.5t-9.5 135.5zM436 662h182v133q0 10 -1 26.5t-10 31.5t-27.5 25.5t-51.5 10.5q-35 0 -53 -10.5t-27.5 -25.5t-10.5 -31.5t-1 -28.5v-131z" />
<glyph unicode="f" horiz-adv-x="724" d="M0 883v209h166v83q0 32 1 51t3 31.5t6 28.5q14 59 47 92t72 48.5t80 17.5t69 2h291v-207h-75q-28 0 -44 -2t-25 -6t-18 -10q-18 -16 -21 -42t-3 -87h176v-209h-176v-883h-383v883h-166z" />
<glyph unicode="g" d="M49 391v369q0 78 6 128t27 91q18 39 49 65.5t65.5 42t72.5 21.5t71 6q70 0 119 -17.5t80.5 -41t50 -49t28.5 -41.5v127h383v-1192q0 -47 -3 -94.5t-18 -90.5t-47 -80.5t-89 -68.5q-33 -16 -100.5 -38t-192.5 -22q-29 0 -73 1t-96 9.5t-105.5 27t-98.5 50.5 q-43 31 -65.5 66t-32.5 72t-12 75.5t-2 75.5h366q0 -47 1 -59t5 -25q12 -33 41 -40t47 -7q35 0 53.5 10.5t27.5 25.5t10 31.5t1 30.5v267q-12 -18 -29.5 -42t-48 -45.5t-76.5 -37t-112 -15.5q-115 0 -176 39t-89 100.5t-33 134t-5 140.5zM432 315q0 -14 1 -30.5t10.5 -30.5 t29 -24.5t55.5 -10.5q33 0 51.5 9.5t27.5 23.5t10 31.5t1 33.5v465q0 39 -16 68t-80 29q-37 0 -63.5 -17.5t-26.5 -81.5v-465z" />
<glyph unicode="h" d="M61 0v1446h385v-461q10 14 30 36.5t50.5 43t74.5 35t106 14.5q59 0 115.5 -20.5t99.5 -63.5q51 -51 64 -114.5t13 -149.5v-766h-385v815q0 43 -17 65.5t-65 22.5q-29 0 -45 -9t-25 -22.5t-12.5 -30t-3.5 -30.5v-811h-385z" />
<glyph unicode="i" horiz-adv-x="512" d="M61 0v1090h388v-1090h-388zM61 1188v258h388v-258h-388z" />
<glyph unicode="j" horiz-adv-x="512" d="M-55 -188q35 0 57.5 1t36.5 10t19 27.5t5 51.5v1190h386v-1182q0 -74 -7.5 -130t-34 -93t-81 -55.5t-148.5 -18.5h-233v199zM61 1188v258h388v-258h-388z" />
<glyph unicode="k" d="M61 0v1446h373v-805l209 451h377l-260 -496l309 -596h-403l-232 520v-520h-373z" />
<glyph unicode="l" horiz-adv-x="512" d="M63 0v1446h386v-1446h-386z" />
<glyph unicode="m" horiz-adv-x="1622" d="M61 0v1092h385v-129q35 55 76 85.5t79 45t68.5 17.5t47.5 3q113 0 175 -46t97 -118q16 25 38 53.5t52.5 52t73.5 39t104 15.5q45 0 91.5 -10t87.5 -35q43 -27 67.5 -59.5t34.5 -66.5t12 -65.5t2 -56.5v-817h-385v776q0 8 -1 23.5t-8 30t-23.5 25.5t-44.5 11 q-35 0 -52.5 -11t-27 -26.5t-10.5 -31t-1 -23.5v-774h-385v780q0 8 -1 24.5t-9 32t-25.5 26.5t-48.5 11t-48 -11t-25 -26.5t-9.5 -32t-1.5 -24.5v-780h-385z" />
<glyph unicode="n" d="M61 0v1092h388v-109l32 37q20 23 51 44t74 35.5t101 14.5q72 0 135 -25.5t104 -82.5q41 -53 48 -121t7 -142v-743h-389v780q0 12 -1 29.5t-8 34t-23.5 28t-44.5 11.5q-33 0 -50.5 -11.5t-25.5 -28t-9 -33.5t-1 -30v-780h-388z" />
<glyph unicode="o" d="M51 330v440q0 35 3 81t23.5 92t65.5 86t127 63q49 14 114 21t134 7q186 0 286.5 -34.5t146.5 -88t54.5 -116t8.5 -115.5v-418q0 -41 -2 -83t-14.5 -83t-39 -77.5t-75.5 -65.5q-39 -25 -85 -37t-91 -18.5t-84 -7.5t-64 -1q-78 0 -136 4.5t-101 12.5t-75 19.5t-57 25.5 q-49 27 -76.5 60.5t-42 71.5t-17.5 79t-3 82zM434 338q0 -16 2 -35.5t11.5 -37t30 -30t57.5 -12.5t56 11.5t28.5 30t10.5 39t1 38.5v418q0 14 -2 32.5t-11.5 35t-30 27.5t-55.5 11q-37 0 -56 -11t-28.5 -26.5t-11.5 -33t-2 -29.5v-428z" />
<glyph unicode="p" d="M61 -344v1436h385v-136q8 18 24.5 46t47.5 52.5t77 42t118 17.5q94 0 157 -29q55 -25 84 -59.5t43.5 -72.5t16.5 -74.5t2 -65.5v-496q0 -55 -4 -105t-27 -95q-25 -53 -62.5 -82t-76.5 -42t-74 -15.5t-51 -2.5q-66 0 -112 13.5t-77.5 35t-51 46t-34.5 49.5v-463h-385z M446 309q0 -10 1.5 -27.5t10.5 -34t26.5 -27.5t52.5 -11t53 10t27.5 25.5t10.5 34t1 32.5v463q0 14 -1 31.5t-10.5 33t-28 25.5t-50.5 10q-35 0 -53.5 -11t-27.5 -26.5t-10.5 -34t-1.5 -32.5v-461z" />
<glyph unicode="q" d="M49 375v370q0 51 5 116t34 121t90.5 94t173.5 38q84 0 135.5 -23.5t80 -51t38.5 -51t12 -25.5v129h386v-1436h-386v475q-29 -53 -64.5 -83t-72.5 -46t-71.5 -20.5t-63.5 -4.5q-127 0 -193.5 56.5t-86.5 130.5q-4 10 -6.5 23.5t-5.5 37t-4 59.5t-1 91zM436 307 q0 -12 1 -28.5t9.5 -32t25.5 -25.5t50 -10q37 0 56.5 11t28.5 26.5t10 34t1 30.5v463q0 14 -1 31.5t-10 33t-27.5 26t-51.5 10.5q-51 0 -71.5 -23t-20.5 -76v-471z" />
<glyph unicode="r" horiz-adv-x="681" d="M61 0v1092h388v-170q18 33 38.5 62.5t46 53t61.5 41t87 27.5v-354q-63 0 -108.5 -2t-73 -17.5t-39.5 -48.5t-12 -94v-590h-388z" />
<glyph unicode="s" horiz-adv-x="980" d="M18 326h388q0 -39 1 -68t9 -47t26.5 -27.5t51.5 -9.5q41 0 60 22.5t19 61.5q0 20 -4 32.5t-20.5 25t-46.5 26.5l-84 39q-104 47 -178 84t-119 80t-65.5 98t-20.5 139q0 49 7 93.5t28.5 81t58.5 67.5t96 51q37 12 79 19.5t81 11.5t70.5 5t48.5 1q59 0 137 -8t141 -35 q59 -25 92 -57.5t48.5 -71.5t17.5 -84t2 -96h-369q0 35 -1 62.5t-9 47t-25.5 29.5t-50.5 10q-10 0 -23 -1t-26.5 -9t-22.5 -23.5t-9 -46.5q0 -10 3 -25.5t15 -31.5q6 -8 13 -13t20.5 -12.5t37.5 -18.5l64 -30q111 -49 187.5 -88t125 -80t71 -91t22.5 -126q0 -82 -25 -139 t-63.5 -95t-89 -59.5t-102.5 -32t-101 -13.5t-86 -3q-82 0 -158 7.5t-139 33.5q-68 27 -106 64t-54 78t-19.5 86t-3.5 86z" />
<glyph unicode="t" horiz-adv-x="724" d="M2 883v209h162v356h379v-356h172v-209h-172v-566q0 -18 3 -38.5t21 -36.5q8 -6 15.5 -9.5t23 -5.5t43 -3t76.5 -3v-221h-283q-51 0 -103 6t-99 47q-53 45 -64.5 102.5t-11.5 114.5v613h-162z" />
<glyph unicode="u" d="M63 322v770h386v-793q0 -14 1 -32.5t9 -36t24.5 -29t46.5 -11.5q31 0 47.5 11.5t24.5 28t10 35t2 34.5v793h387v-1092h-387v111q-16 -20 -38.5 -44t-54.5 -44.5t-76 -34t-105 -13.5q-104 0 -159.5 42t-82 98.5t-31 115t-4.5 91.5z" />
<glyph unicode="v" horiz-adv-x="980" d="M-2 1092h383q10 -82 26 -182l29 -191l15 -94l12 -89q6 -46 12 -100.5t17 -126.5q8 76 17 142l21 148l29 199l43 294h379l-254 -1092h-463z" />
<glyph unicode="w" horiz-adv-x="1536" d="M0 1092h383l74 -762l125 762h374l111 -762l88 762h381l-217 -1092h-430l-127 707l-131 -707h-430z" />
<glyph unicode="x" horiz-adv-x="1024" d="M4 0l252 557l-229 535h379l102 -355l125 355h381l-252 -535l252 -557h-381l-125 379l-117 -379h-387z" />
<glyph unicode="y" horiz-adv-x="1024" d="M0 1090h385l131 -662l127 662h379l-303 -1078q-18 -63 -33.5 -111t-31 -85t-32 -66t-38.5 -53q-41 -43 -84 -66.5t-87 -34t-88 -12.5t-85 -2h-170l10 240h83q32 0 52.5 3t33.5 9t27 16q23 16 38.5 45t15.5 42z" />
<glyph unicode="z" horiz-adv-x="937" d="M31 0v221l393 651h-320v220h768v-220l-409 -651h426v-221h-858z" />
<glyph unicode="{" horiz-adv-x="724" d="M57 444v148q6 2 30 8t32 10q37 14 56.5 46t28.5 74t11 87t2 86v113q0 66 1 115t8 87.5t21.5 70.5t43.5 63q33 37 71.5 56t88 28.5t110 10.5t135.5 1v-141q-49 -6 -76.5 -20.5t-42 -40t-17.5 -63.5t-3 -89v-179q0 -61 -3 -125.5t-24.5 -120t-67.5 -94t-132 -51.5v-12 q86 -12 132 -51t67.5 -93.5t24.5 -118t3 -124.5v-186q0 -88 9 -119t20 -43q12 -14 40.5 -31.5t69.5 -15.5v-142q-74 0 -128 2t-95 8.5t-71.5 16.5t-57.5 27q-47 29 -72.5 66.5t-38 83.5t-14.5 99.5t-2 114.5v129q0 86 -5 143.5t-36 98.5q-4 6 -14 16t-25.5 21.5t-35 20.5 t-44.5 9z" />
<glyph unicode="|" horiz-adv-x="468" d="M104 -512v2048h261v-2048h-261z" />
<glyph unicode="}" horiz-adv-x="724" d="M29 -270q49 6 76.5 20t42 40t17.5 62.5t3 90.5v178q0 61 3 125.5t24.5 120t67.5 94.5t132 51v12q-86 12 -132 51t-67.5 93.5t-24.5 118t-3 124.5v187q0 88 -9 118.5t-20 43.5q-12 14 -40.5 31.5t-69.5 15.5v141q74 0 128 -2t95 -8t71.5 -16.5t57.5 -26.5q47 -29 72.5 -66 t38 -83t14.5 -100t2 -116v-129q0 -86 5 -143.5t36 -98.5q8 -12 40 -38.5t79 -28.5v-148q-6 -4 -30 -10l-32 -8q-37 -16 -57.5 -47t-29.5 -72t-10 -86t-1 -88v-113q0 -66 -1 -114.5t-8 -87.5t-22.5 -71t-42.5 -62q-33 -37 -71.5 -56.5t-88 -29t-110 -10.5t-135.5 -1v142z" />
<glyph unicode="~" horiz-adv-x="1492" d="M211 616q16 25 43 58t65.5 62.5t90 51t118.5 21.5q29 0 51.5 -3t52.5 -13.5t71 -29.5l112 -50q37 -16 76 -30.5t80 -14.5q61 0 114.5 41t90.5 84l106 -213q-59 -68 -144 -120t-175 -52q-31 0 -80 10t-142 57q-76 39 -118.5 56.5t-85.5 17.5q-33 0 -56.5 -7t-47 -24.5 t-49.5 -45.5l-60 -66z" />
<glyph unicode="&#xa1;" horiz-adv-x="598" d="M76 0v356l55 627h252l53 -614v-369h-360zM76 1137v311h360v-311h-360z" />
<glyph unicode="&#xa2;" horiz-adv-x="1024" d="M47 324v424q0 39 5 96t38 111.5t102.5 98.5t198.5 58v242h227v-242q37 -4 81 -12t100 -37q61 -31 96 -68t50.5 -73.5t18.5 -72.5t3 -63v-114h-369v108q0 12 -1 27.5t-9 29t-25.5 22.5t-48.5 9t-47 -9t-24.5 -23.5t-9.5 -28.5t-1 -27v-456q0 -39 14.5 -69t67.5 -30 q14 0 32.5 3t35.5 22q6 8 9 15t5 21.5t2 39.5v67h381q0 -61 -1 -106t-9 -81t-24.5 -65.5t-47.5 -58.5q-35 -33 -76 -53.5t-78.5 -30.5t-70.5 -14t-54 -7v-288h-227v295q-127 16 -196.5 58t-102.5 92t-39 101.5t-6 88.5z" />
<glyph unicode="&#xa3;" horiz-adv-x="1280" d="M39 201q0 115 66.5 174t162.5 59q43 0 77 -9t69 -22q-4 25 -9.5 45.5t-14.5 43t-22 50.5l-34 68h-268v221h151q-25 53 -48.5 121t-23.5 160q0 102 37 171t101.5 111t149.5 59t183 17q61 0 147.5 -12t162.5 -51q57 -29 89 -64.5t47 -74.5t19 -80t4 -82v-145h-362v147 q0 12 -2 31.5t-11.5 37t-31 31t-60.5 13.5q-43 0 -66.5 -14.5t-33.5 -33t-12 -37t-2 -26.5q0 -37 10 -77t24.5 -76.5t30.5 -69.5l29 -56h397v-221h-290q23 -53 40 -112.5t17 -130.5q0 -33 -4 -56.5t-8 -52.5q35 -10 65 -10q33 0 51.5 14t27.5 35.5t10 46.5t1 43v96h344v-164 q0 -74 -13 -137t-45 -109t-83 -72t-127 -26q-92 0 -174 35t-156 74q-66 -57 -146.5 -86t-166.5 -29q-154 0 -226.5 67t-72.5 165zM238 201q0 -25 20.5 -39.5t48.5 -14.5q47 0 64.5 25t27.5 47q-20 14 -43.5 25.5t-50.5 11.5q-29 0 -48 -16t-19 -39z" />
<glyph unicode="&#xa4;" horiz-adv-x="1366" d="M14 219l166 166q-14 23 -29.5 51.5t-28.5 66.5t-21.5 87t-8.5 115q0 53 6 94t18.5 75.5t28 65.5l33.5 64l-162 165l193 195l164 -164q33 18 64.5 33.5t67.5 28t80 19.5t99 7q57 0 99 -6t77 -18.5t67 -28.5l66 -35l164 164l197 -195l-166 -163l34 -67q15 -32 27.5 -67.5 t18.5 -77.5t6 -98q0 -59 -7 -102t-18.5 -79t-27.5 -68l-35 -64l166 -168l-197 -195l-164 168l-66 -33q-32 -15 -68 -26.5t-79 -19t-98 -7.5q-109 0 -177.5 28t-129.5 60l-166 -165zM348 688q0 -74 29 -135t76 -104t108.5 -68t128.5 -25q70 0 129.5 27t103.5 73t69.5 107.5 t25.5 132.5q0 82 -31 145.5t-79 106.5t-108.5 64.5t-117.5 21.5q-55 0 -114.5 -20.5t-107.5 -62.5t-80 -107.5t-32 -155.5z" />
<glyph unicode="&#xa5;" horiz-adv-x="1150" d="M2 1446h401l177 -633l168 633h395l-217 -584h168v-205h-242l-45 -120h287v-205h-312v-332h-401v332h-320v205h291l-43 120h-248v205h170z" />
<glyph unicode="&#xa6;" horiz-adv-x="468" d="M104 358h261v-716h-261v716zM104 666v716h261v-716h-261z" />
<glyph unicode="&#xa7;" horiz-adv-x="937" d="M20 106l125 216l138 -73q49 -26 76.5 -38t43 -14t33.5 -2q25 0 40.5 7t23.5 17t11 21.5t3 17.5q0 27 -19.5 43t-45.5 33l-23 13l-50 30l-54 33q-27 16 -39 22l-110.5 63.5t-79.5 59.5t-47 65.5t-15 81.5q0 12 3 42t22.5 67t60.5 73t114 58l-69 45q-31 20 -53.5 46 t-35 57.5t-12.5 76.5q0 131 102.5 214t282.5 83q63 0 120 -11t106 -27.5t93 -37.5l85 -42l-125 -211q-74 37 -119 57l-70 32q-26 11 -40.5 14t-26.5 3q-33 0 -50.5 -17.5t-17.5 -39.5q0 -16 4.5 -26.5t21.5 -24t50 -34t90 -52.5l159 -94q65 -38 102.5 -72.5t54 -71.5 t16.5 -88q0 -96 -51 -152.5t-137 -85.5q25 -14 53.5 -32.5t53 -45t39.5 -63.5t15 -88q0 -135 -105 -206t-282 -71q-84 0 -152.5 13.5t-125.5 33t-104 42.5zM285 778q0 -35 21.5 -52t47.5 -34l55 -33l61 -36l62 -36l56 -32q18 10 44.5 29.5t26.5 60.5q0 35 -19 51.5t-62 42.5 q-39 25 -103 62l-121 69q-18 -10 -43.5 -30.5t-25.5 -61.5z" />
<glyph unicode="&#xa8;" horiz-adv-x="555" d="M-143 1176v249h350v-249h-350zM346 1176v249h352v-249h-352z" />
<glyph unicode="&#xa9;" horiz-adv-x="1705" d="M125 725q0 154 57.5 286t156.5 230t232.5 154.5t284.5 56.5q154 0 287 -56.5t230 -155.5t153.5 -233.5t56.5 -287.5q0 -143 -53 -274.5t-149.5 -231.5t-230.5 -159.5t-296 -59.5q-143 0 -275.5 53t-232.5 149.5t-160.5 230.5t-60.5 298zM190 723q0 -143 53.5 -264 t144.5 -210t210 -139.5t250 -50.5q154 0 277.5 55.5t210.5 147.5t134.5 211t47.5 246q0 139 -50.5 261t-139.5 212t-209 142t-261 52t-263 -52t-212 -143t-141.5 -212t-51.5 -256zM358 721q0 104 35 197.5t100.5 164t161 112.5t215.5 42q86 0 150.5 -18.5t113 -46t82 -58.5 l56.5 -53l-178 -170q-14 14 -35 31.5t-47.5 33t-61.5 25.5t-78 10q-123 0 -191.5 -73.5t-68.5 -190.5q0 -123 71 -194.5t194 -71.5q80 0 126 27.5t91 66.5l178 -166q-25 -25 -57.5 -54.5t-80 -56t-109.5 -45t-144 -18.5q-139 0 -238.5 45t-163 117t-92.5 163t-29 181z" />
<glyph unicode="&#xaa;" horiz-adv-x="724" d="M47 915q0 25 2 51.5t12.5 54.5t35 52.5t67.5 42.5q12 4 46 13l72 21l72 21q35 10 49 17q0 53 -6 74.5t-41 21.5q-37 0 -43 -22.5t-6 -73.5h-231q0 72 8 121t55 84l22 14q15 10 43.5 20.5t71.5 17.5t103 7q106 0 164.5 -24.5t85 -61.5t31 -81t4.5 -85v-348q0 -37 6 -65.5 t39 -55.5h-306v62q-10 -12 -24 -24.5t-35.5 -24t-51.5 -18.5t-73 -7q-66 0 -100.5 20.5t-50 50t-18.5 63t-3 62.5zM299 975q0 -68 6 -90.5t41 -22.5q43 0 50 20.5t7 45.5v135l-56 -24q-22 -9 -32 -18t-13 -19.5t-3 -26.5z" />
<glyph unicode="&#xab;" horiz-adv-x="768" d="M27 451v301l323 264v-318l-125 -98l125 -102v-312zM397 453v297l328 270v-318l-127 -102l127 -102v-316z" />
<glyph unicode="&#xac;" horiz-adv-x="1366" d="M0 465v260h1364v-725h-260v465h-1104z" />
<glyph unicode="&#xad;" horiz-adv-x="681" d="M33 590v264h618v-264h-618z" />
<glyph unicode="&#xae;" horiz-adv-x="1705" d="M125 723q0 158 58.5 291t158.5 230t231.5 152.5t278.5 55.5q154 0 287 -56.5t232 -154.5t155.5 -231t56.5 -289q0 -145 -55 -277.5t-152.5 -232.5t-231.5 -158.5t-294 -58.5q-141 0 -272.5 53t-231.5 149.5t-160.5 230.5t-60.5 296zM190 723q0 -141 52.5 -262t142.5 -210 t211 -140.5t256 -51.5q143 0 266 53.5t211 144.5t138.5 211t50.5 253q0 137 -50.5 259t-139.5 212t-211 142t-265 52q-135 0 -255 -51t-211 -140t-143.5 -211t-52.5 -261zM512 262v938h334q78 0 129 -4t92 -18q45 -14 77 -40t51 -57.5t28.5 -66.5t9.5 -68q0 -51 -16.5 -87 t-41 -60.5t-53 -41t-53.5 -26.5q20 -12 36.5 -25.5t29 -32t21.5 -47t18 -71.5q14 -90 29.5 -158.5t49.5 -134.5h-258q-10 20 -16 40t-12 42.5t-11.5 51t-11.5 69.5q-10 70 -19.5 107.5t-28.5 56t-55 22.5t-104 4v-393h-225zM737 834h99q33 0 63.5 2t55 11t39 29.5t14.5 57.5 q0 31 -12.5 49t-28 27.5t-30.5 12.5t-22 3q-6 0 -15 1t-28 1h-50h-85v-194z" />
<glyph unicode="&#xaf;" horiz-adv-x="555" d="M-63 1176v174h681v-174h-681z" />
<glyph unicode="&#xb0;" horiz-adv-x="724" d="M10 1171q0 72 26.5 136.5t74 112.5t112 77t139.5 29q76 0 140.5 -29t112 -77t74 -112.5t26.5 -136.5t-28 -135t-75 -111t-111.5 -77t-138.5 -29t-137 27.5t-111 76t-76 112.5t-28 136zM250 1176q0 -47 33.5 -80t81.5 -33q47 0 79.5 32.5t32.5 80.5q0 51 -33.5 82.5 t-78.5 31.5q-47 0 -81 -32.5t-34 -81.5z" />
<glyph unicode="&#xb1;" horiz-adv-x="1024" d="M66 0v260h895v-260h-895zM66 696v260h319v318h260v-318h316v-260h-316v-319h-260v319h-319z" />
<glyph unicode="&#xb2;" horiz-adv-x="724" d="M51 543q0 63 1 109t10.5 81t29 66.5t53.5 68.5q10 12 39 39l63 57l64 56q31 27 43 39q25 20 38.5 34.5t20.5 25.5t9 23.5t2 33.5q0 39 -1 63.5t-7 38.5t-20.5 19.5t-39.5 5.5q-27 0 -41 -7.5t-20 -18.5t-7 -24.5t-1 -25.5v-135h-236v118q0 47 8.5 88t46.5 80 q6 6 21.5 18.5t46.5 27t78 24.5t113 10q115 0 176 -25.5t89.5 -66.5t34 -91t5.5 -99q0 -45 -4 -73t-24.5 -55.5t-60.5 -64.5l-114 -100l-73 -64q-26 -23 -38 -38t-17 -26.5t-7 -27.5h342v-184h-623z" />
<glyph unicode="&#xb3;" horiz-adv-x="724" d="M53 850h238v-24v-38q0 -20 1 -37.5t1 -19.5q8 -41 72 -41q25 0 39 7.5t20 18.5t7 24.5t1 27.5v33v36q0 17 -1 29.5t-1 16.5q-4 29 -21.5 33t-46.5 4h-112v184h123q45 0 52 15.5t7 47.5q0 41 -1 67t-7 39t-20.5 17t-41.5 4t-41 -4t-21 -17t-8 -38t-1 -68h-225q0 45 1 78 t7 59.5t18 47t35 41.5q25 20 80 42.5t153 22.5q119 0 182.5 -26.5t93.5 -66.5t35 -85t5 -80q0 -47 -9.5 -78.5t-23.5 -51t-31.5 -31t-31.5 -19.5q66 -27 81 -66t15 -94v-104q0 -37 -7 -78t-48 -78q-35 -33 -97.5 -53.5t-154.5 -20.5q-66 0 -112 8.5t-75.5 19.5t-47 23.5 t-25.5 20.5q-20 20 -31.5 37.5t-17 44.5t-6.5 65.5t-1 104.5z" />
<glyph unicode="&#xb4;" horiz-adv-x="555" d="M-8 1169l158 256h415l-268 -256h-305z" />
<glyph unicode="&#xb5;" d="M63 -344v1436h386v-793q0 -14 1 -32.5t9 -36t24.5 -29t46.5 -11.5q31 0 47.5 11.5t24.5 28t10 35t2 34.5v793h387v-1092h-387v111q-6 -18 -14 -38t-19.5 -37.5t-27.5 -28.5t-39 -11q-25 0 -37 7t-28 22v-369h-386z" />
<glyph unicode="&#xb6;" horiz-adv-x="1366" d="M166 1008q0 82 26.5 159.5t79.5 139.5q45 49 94.5 77.5t96.5 42t90 16.5t78 3h512v-160h-74v-1628h-172v1628h-242v-1628h-172v940q-45 12 -105.5 36.5t-119.5 96.5q-49 57 -70.5 129t-21.5 148z" />
<glyph unicode="&#xb7;" horiz-adv-x="512" d="M76 549v336h356v-336h-356z" />
<glyph unicode="&#xb8;" horiz-adv-x="555" d="M47 -129l209 215h197l-136 -156q84 4 136.5 -26.5t52.5 -114.5q0 -43 -20.5 -82t-60.5 -69.5t-100.5 -49t-140.5 -18.5q-25 0 -41 1t-34 5l-35 107l31 -9q15 -4 36 -4q14 0 33 3t33 11.5t24.5 22.5t10.5 37q0 29 -18.5 48.5t-49.5 19.5q-23 0 -43 -10.5l-39 -20.5z" />
<glyph unicode="&#xb9;" horiz-adv-x="724" d="M123 1141v172q14 2 31.5 8t36 19.5t38 38t35.5 67.5h244v-903h-244v649q-47 -29 -76.5 -38t-64.5 -13z" />
<glyph unicode="&#xba;" horiz-adv-x="724" d="M49 956v261q0 41 7 87t50 85q31 29 89.5 48t162.5 19q119 0 183.5 -24.5t94.5 -59.5t35 -73.5t5 -67.5v-289q0 -55 -13.5 -97t-47 -72t-92 -45t-150.5 -15q-104 0 -168 15t-98.5 45t-46 76t-11.5 107zM307 956q0 -25 6 -48t47 -23t47.5 21.5t6.5 49.5v250q0 29 -6.5 51.5 t-47.5 22.5q-20 0 -30.5 -7t-15.5 -18.5t-6 -24.5t-1 -24v-250z" />
<glyph unicode="&#xbb;" horiz-adv-x="768" d="M39 178v314l125 102l-125 104v316l328 -271v-297zM414 178v316l123 100l-123 104v312l323 -265v-301z" />
<glyph unicode="&#xbc;" horiz-adv-x="1705" d="M123 1141v172q14 2 31.5 8t36 19.5t38 38t35.5 67.5h244v-905h-244v651q-47 -29 -76.5 -38t-64.5 -13zM518 0l440 1446h197l-440 -1446h-197zM1020 180v185l270 538h269v-538h104v-185h-104v-180h-238v180h-301zM1182 365h139v274z" />
<glyph unicode="&#xbd;" horiz-adv-x="1705" d="M123 1141v172q14 2 31.5 8t36 19.5t38 38t35.5 67.5h244v-903h-244v649q-47 -29 -76.5 -38t-64.5 -13zM465 0l440 1446h197l-443 -1446h-194zM1032 0q0 63 1 109.5t10.5 81t29 66.5t53.5 69q10 12 39 39l63 56l64 56q31 27 43 39q25 20 38 34.5t20.5 26t9.5 23.5t2 33 q0 78 -8 102.5t-58 24.5q-27 0 -41 -7.5t-20 -18.5t-7 -24.5t-1 -25.5v-135h-236v119q0 47 8.5 88t47.5 80q6 6 21 18t46 26.5t77 24.5t112 10q115 0 176 -25.5t89.5 -66.5t34 -91t5.5 -99q0 -45 -4.5 -73t-24.5 -55.5t-60 -64.5l-114 -100l-73 -64q-26 -23 -38 -38t-17 -26 t-7 -28h342v-184h-623z" />
<glyph unicode="&#xbe;" horiz-adv-x="1705" d="M53 850h238v-24v-38q0 -20 1 -37.5t1 -19.5q8 -41 72 -41q25 0 39 7.5t20 18.5t7 24.5t1 27.5v33v36q0 17 -1 29.5t-1 16.5q-4 29 -21.5 33t-46.5 4h-112v184h123q45 0 52 15.5t7 47.5q0 41 -1 67t-7 39t-20.5 17t-41.5 4t-41 -4t-21 -17t-8 -38t-1 -68h-225q0 45 1 78 t7 59.5t18 47t35 41.5q25 20 80 42.5t153 22.5q119 0 182.5 -26.5t93.5 -66.5t35 -85t5 -80q0 -47 -9.5 -78.5t-23.5 -51t-31.5 -31t-31.5 -19.5q66 -27 81 -66t15 -94v-104q0 -37 -7 -78t-48 -78q-35 -33 -97.5 -53.5t-154.5 -20.5q-66 0 -112 8.5t-75.5 19.5t-46 22.5 t-24.5 19.5q-23 20 -34 38.5t-16.5 45.5t-6.5 65.5t-1 104.5zM578 0l440 1446h196l-440 -1446h-196zM1020 180v185l270 538h269v-538h104v-185h-104v-180h-238v180h-301zM1182 365h139v274z" />
<glyph unicode="&#xbf;" horiz-adv-x="980" d="M14 299q0 57 10.5 98t36 78t67.5 78l103 96q51 47 80 76t42.5 48.5t15.5 36.5t2 42v123h356v-90q0 -37 -3 -63.5t-8 -47t-14 -43.5q-12 -29 -29.5 -53.5t-46 -55t-69.5 -69.5l-98 -94q-35 -33 -56.5 -55.5t-36 -41t-19.5 -36t-5 -39.5q0 -43 24.5 -63.5t55.5 -20.5 q27 0 49 16q12 8 18.5 16.5t9.5 23.5t3 40v66h317q0 -51 -1 -91.5t-7 -73t-20.5 -60t-40.5 -54.5q-31 -31 -69 -51.5t-80 -31.5t-86 -16t-85 -5q-76 0 -149.5 12t-139.5 53q-45 27 -70.5 59.5t-38 66.5t-15.5 66.5t-3 59.5zM371 1130v316h356v-316h-356z" />
<glyph unicode="&#xc0;" horiz-adv-x="1150" d="M-4 0l336 1446h487l328 -1446h-404l-45 326h-247l-50 -326h-405zM223 1794h391l127 -227h-307zM487 582h175l-87 579z" />
<glyph unicode="&#xc1;" horiz-adv-x="1150" d="M-4 0l336 1446h487l328 -1446h-404l-45 326h-247l-50 -326h-405zM403 1567l125 227h392l-211 -227h-306zM487 582h175l-87 579z" />
<glyph unicode="&#xc2;" horiz-adv-x="1150" d="M-4 0l336 1446h487l328 -1446h-404l-45 326h-247l-50 -326h-405zM215 1552l158 224h413l154 -224h-303l-62 93l-55 -93h-305zM487 582h175l-87 579z" />
<glyph unicode="&#xc3;" horiz-adv-x="1150" d="M-4 0l336 1446h487l328 -1446h-404l-45 326h-247l-50 -326h-405zM217 1528q2 37 8 77t41 81q25 31 52.5 48t53 25t46 9t31.5 1q20 0 37.5 -2t38 -6t48 -11t70.5 -19l68.5 -17.5t40.5 -5.5q41 0 51 19.5t14 37.5h115q-2 -25 -7 -66.5t-28 -81.5t-68 -69.5t-127 -29.5 q-41 0 -73.5 8t-73.5 22l-81 24q-44 13 -66 13q-37 0 -50.5 -19.5t-17.5 -37.5h-123zM487 582h175l-87 579z" />
<glyph unicode="&#xc4;" horiz-adv-x="1150" d="M-4 0l336 1446h487l328 -1446h-404l-45 326h-247l-50 -326h-405zM164 1556v228h340v-228h-340zM487 582h175l-87 579zM647 1556v228h338v-228h-338z" />
<glyph unicode="&#xc5;" horiz-adv-x="1150" d="M-4 0l336 1446h487l328 -1446h-404l-45 326h-247l-50 -326h-405zM373 1690q0 45 17.5 85t46 67.5t67.5 44t80 16.5q43 0 80.5 -16.5t66.5 -46.5t45.5 -67.5t16.5 -80.5t-16.5 -81t-45.5 -66.5t-66.5 -45t-80.5 -16.5q-59 0 -98.5 24.5t-51.5 36.5t-36.5 50.5t-24.5 95.5z M487 582h175l-87 579zM518 1692q0 -27 19.5 -46.5t48.5 -19.5q27 0 46 19.5t19 46.5q0 29 -19.5 48t-45.5 19q-29 0 -48.5 -19t-19.5 -48z" />
<glyph unicode="&#xc6;" horiz-adv-x="1622" d="M-2 0l524 1446h1067v-277h-381v-299h357v-276h-357v-322h381v-272h-776v387h-281l-126 -387h-408zM618 645h195v584z" />
<glyph unicode="&#xc7;" horiz-adv-x="1110" d="M59 418v602q0 57 4.5 108.5t18.5 97.5t44 86t81 74q78 53 170 71t186 18q133 0 225.5 -28t157.5 -75q84 -63 105.5 -141t21.5 -178v-140h-399v172q0 10 -2 27.5t-11.5 34t-29 28t-56.5 11.5q-41 0 -63.5 -12.5t-32.5 -29t-12 -33.5t-2 -26v-733q0 -12 2 -28.5t11 -32 t29.5 -25.5t59.5 -10t61.5 11.5t32 27.5t11.5 33.5t2 31.5v175h405q0 -23 1 -45.5t1 -45.5q0 -82 -9 -161.5t-53 -146t-135 -109.5t-253 -52l-21 -22l-18 -23q84 4 136 -27.5t52 -115.5q0 -41 -20.5 -80t-60.5 -69.5t-100 -49t-140 -18.5q-27 0 -43.5 1t-34.5 5l-33 107 l32 -9q15 -4 36 -4q14 0 31.5 3t33 10.5t25.5 21.5t10 37q0 31 -19.5 50.5t-50.5 19.5q-23 0 -43 -10.5t-36 -20.5l-45 90l106 111q-92 12 -155.5 38.5t-104.5 62.5t-62.5 78t-32 87t-12.5 88t-2 82z" />
<glyph unicode="&#xc8;" horiz-adv-x="894" d="M72 0v1446h790v-281h-385v-293h357v-276h-357v-317h385v-279h-790zM106 1794h392l127 -227h-308z" />
<glyph unicode="&#xc9;" horiz-adv-x="894" d="M72 0v1446h790v-281h-385v-293h357v-276h-357v-317h385v-279h-790zM287 1567l125 227h391l-211 -227h-305z" />
<glyph unicode="&#xca;" horiz-adv-x="894" d="M72 0v1446h790v-281h-385v-293h357v-276h-357v-317h385v-279h-790zM98 1552l158 224h414l153 -224h-303l-61 93l-56 -93h-305z" />
<glyph unicode="&#xcb;" horiz-adv-x="894" d="M47 1548v228h340v-228h-340zM72 0v1446h790v-281h-385v-293h357v-276h-357v-317h385v-279h-790zM530 1548v228h338v-228h-338z" />
<glyph unicode="&#xcc;" horiz-adv-x="555" d="M-76 1794h391l127 -227h-307zM72 0v1446h409v-1446h-409z" />
<glyph unicode="&#xcd;" horiz-adv-x="555" d="M72 0v1446h409v-1446h-409zM104 1567l125 227h392l-211 -227h-306z" />
<glyph unicode="&#xce;" horiz-adv-x="555" d="M-84 1552l158 224h413l154 -224h-303l-62 93l-55 -93h-305zM72 0v1446h409v-1446h-409z" />
<glyph unicode="&#xcf;" horiz-adv-x="555" d="M-135 1548v228h340v-228h-340zM72 0v1446h409v-1446h-409zM348 1548v228h338v-228h-338z" />
<glyph unicode="&#xd0;" horiz-adv-x="1150" d="M0 684v207h70v555h469q39 0 95 -2t115.5 -11.5t119 -30t106.5 -56.5q43 -35 66.5 -75t34.5 -85t13.5 -93.5t2.5 -97.5v-499q0 -66 -3.5 -124.5t-15.5 -108.5t-36.5 -94t-67.5 -81q-39 -33 -81 -51.5t-90 -26.5t-100.5 -9t-113.5 -1h-514v684h-70zM479 270h90 q66 0 90.5 24.5t24.5 94.5v649q0 29 -2 53.5t-14 41.5q-10 12 -19.5 19t-29 10t-52 4t-88.5 1v-276h123v-207h-123v-414z" />
<glyph unicode="&#xd1;" horiz-adv-x="1150" d="M74 0v1446h375l208 -625l27 -85l18 -59l17 -56l20 -74l-4 899h340v-1446h-383l-227 686l-23 68l-14 44q-6 19 -10 38l-10 47l6 -883h-340zM227 1528q2 37 8.5 77t40.5 81q25 31 52.5 48t53.5 25t46.5 9t30.5 1q20 0 37.5 -2t38 -6t48 -11t70.5 -19l68.5 -17.5t40.5 -5.5 q41 0 51 19.5t14 37.5h115q-2 -25 -7 -66.5t-27.5 -81.5t-67.5 -69.5t-127 -29.5q-41 0 -74 8t-74 22l-81 24q-44 13 -66 13q-37 0 -50.5 -19.5t-17.5 -37.5h-123z" />
<glyph unicode="&#xd2;" horiz-adv-x="1150" d="M55 444v545q0 109 12.5 190t71.5 146q47 53 109.5 82t126 43t118 16t85.5 2q92 0 180 -16t166 -61q59 -35 93 -80t49 -95.5t18 -105.5t3 -111v-553q0 -49 -2 -98t-14 -95t-37.5 -89t-72.5 -80q-82 -61 -182.5 -81.5t-192.5 -20.5q-133 0 -223.5 21.5t-149.5 58t-91 84 t-47.5 98.5t-17.5 103t-2 97zM223 1794h391l127 -227h-307zM465 367q0 -16 2 -36t11 -36t30.5 -27.5t62.5 -11.5q39 0 60.5 10t32 25.5t12.5 36t2 39.5v720q0 16 -2 35t-11.5 34t-32 25.5t-61.5 10.5q-37 0 -58 -9t-31.5 -24.5t-13.5 -35t-3 -40.5v-716z" />
<glyph unicode="&#xd3;" horiz-adv-x="1150" d="M55 444v545q0 109 12.5 190t71.5 146q47 53 109.5 82t126 43t118 16t85.5 2q92 0 180 -16t166 -61q59 -35 93 -80t49 -95.5t18 -105.5t3 -111v-553q0 -49 -2 -98t-14 -95t-37.5 -89t-72.5 -80q-82 -61 -182.5 -81.5t-192.5 -20.5q-133 0 -223.5 21.5t-149.5 58t-91 84 t-47.5 98.5t-17.5 103t-2 97zM403 1567l125 227h392l-211 -227h-306zM465 367q0 -16 2 -36t11 -36t30.5 -27.5t62.5 -11.5q39 0 60.5 10t32 25.5t12.5 36t2 39.5v720q0 16 -2 35t-11.5 34t-32 25.5t-61.5 10.5q-37 0 -58 -9t-31.5 -24.5t-13.5 -35t-3 -40.5v-716z" />
<glyph unicode="&#xd4;" horiz-adv-x="1150" d="M55 444v545q0 109 12.5 190t71.5 146q47 53 109.5 82t126 43t118 16t85.5 2q92 0 180 -16t166 -61q59 -35 93 -80t49 -95.5t18 -105.5t3 -111v-553q0 -49 -2 -98t-14 -95t-37.5 -89t-72.5 -80q-82 -61 -182.5 -81.5t-192.5 -20.5q-133 0 -223.5 21.5t-149.5 58t-91 84 t-47.5 98.5t-17.5 103t-2 97zM215 1552l158 224h413l154 -224h-303l-62 93l-55 -93h-305zM465 367q0 -16 2 -36t11 -36t30.5 -27.5t62.5 -11.5q39 0 60.5 10t32 25.5t12.5 36t2 39.5v720q0 16 -2 35t-11.5 34t-32 25.5t-61.5 10.5q-37 0 -58 -9t-31.5 -24.5t-13.5 -35 t-3 -40.5v-716z" />
<glyph unicode="&#xd5;" horiz-adv-x="1150" d="M55 444v545q0 109 12.5 190t71.5 146q47 53 109.5 82t126 43t118 16t85.5 2q92 0 180 -16t166 -61q59 -35 93 -80t49 -95.5t18 -105.5t3 -111v-553q0 -49 -2 -98t-14 -95t-37.5 -89t-72.5 -80q-82 -61 -182.5 -81.5t-192.5 -20.5q-133 0 -223.5 21.5t-149.5 58t-91 84 t-47.5 98.5t-17.5 103t-2 97zM217 1528q2 37 8 77t41 81q25 31 52.5 48t53 25t46 9t31.5 1q20 0 37.5 -2t38 -6t48 -11t70.5 -19l68.5 -17.5t40.5 -5.5q41 0 51 19.5t14 37.5h115q-2 -25 -7 -66.5t-28 -81.5t-68 -69.5t-127 -29.5q-41 0 -73.5 8t-73.5 22l-81 24 q-44 13 -66 13q-37 0 -50.5 -19.5t-17.5 -37.5h-123zM465 367q0 -16 2 -36t11 -36t30.5 -27.5t62.5 -11.5q39 0 60.5 10t32 25.5t12.5 36t2 39.5v720q0 16 -2 35t-11.5 34t-32 25.5t-61.5 10.5q-37 0 -58 -9t-31.5 -24.5t-13.5 -35t-3 -40.5v-716z" />
<glyph unicode="&#xd6;" horiz-adv-x="1150" d="M55 444v545q0 109 12.5 190t71.5 146q47 53 109.5 82t126 43t118 16t85.5 2q92 0 180 -16t166 -61q59 -35 93 -80t49 -95.5t18 -105.5t3 -111v-553q0 -49 -2 -98t-14 -95t-37.5 -89t-72.5 -80q-82 -61 -182.5 -81.5t-192.5 -20.5q-133 0 -223.5 21.5t-149.5 58t-91 84 t-47.5 98.5t-17.5 103t-2 97zM164 1546v228h340v-228h-340zM465 367q0 -16 2 -36t11 -36t30.5 -27.5t62.5 -11.5q39 0 60.5 10t32 25.5t12.5 36t2 39.5v720q0 16 -2 35t-11.5 34t-32 25.5t-61.5 10.5q-37 0 -58 -9t-31.5 -24.5t-13.5 -35t-3 -40.5v-716zM647 1546v228h338 v-228h-338z" />
<glyph unicode="&#xd7;" horiz-adv-x="1024" d="M74 344l254 252l-254 256l184 182l254 -254l254 254l184 -182l-254 -256l254 -252l-184 -186l-254 252l-254 -252z" />
<glyph unicode="&#xd8;" horiz-adv-x="1150" d="M27 49l82 119q-12 29 -22.5 59.5t-16.5 102.5q-4 41 -4 91v93v537q0 53 8 125.5t56 137t152.5 109.5t297.5 45q82 0 140 -9t101 -22.5t73 -28.5t52 -30l66 95l118 -80l-83 -119q10 -23 17 -42.5t11 -45t6 -64.5t2 -100v-567q0 -117 -9 -186.5t-42 -121.5 q-41 -63 -103.5 -97t-128 -49t-122.5 -18t-84 -3q-88 0 -150.5 8t-105.5 20t-72.5 27.5t-54.5 30.5l-68 -97zM469 373q0 -20 1 -39t3 -25q10 -39 41 -50t61 -11q41 0 64 11t33 29.5t12 40t2 42.5v383l-217 -316v-26v-39zM469 688l217 316v83q0 18 -2 31q-6 27 -18.5 41.5 t-27.5 21.5t-31.5 8t-26.5 1q-37 0 -58.5 -11.5t-34 -28.5t-15.5 -40t-3 -45v-377z" />
<glyph unicode="&#xd9;" horiz-adv-x="1150" d="M63 367v1081h406v-1063q0 -14 2 -34.5t11.5 -39t31 -32t59.5 -13.5q39 0 59.5 12.5t30 31t11.5 39t2 34.5v1065h407v-1057q0 -49 -3 -98t-19.5 -95t-53 -87t-104.5 -74q-31 -16 -103.5 -36.5t-224.5 -20.5q-127 0 -215 19t-145 51t-88 73t-45 84t-16.5 85t-2.5 75z M223 1794h391l127 -227h-307z" />
<glyph unicode="&#xda;" horiz-adv-x="1150" d="M63 367v1081h406v-1063q0 -14 2 -34.5t11.5 -39t31 -32t59.5 -13.5q39 0 59.5 12.5t30 31t11.5 39t2 34.5v1065h407v-1057q0 -49 -3 -98t-19.5 -95t-53 -87t-104.5 -74q-31 -16 -103.5 -36.5t-224.5 -20.5q-127 0 -215 19t-145 51t-88 73t-45 84t-16.5 85t-2.5 75z M403 1567l125 227h392l-211 -227h-306z" />
<glyph unicode="&#xdb;" horiz-adv-x="1150" d="M63 367v1081h406v-1063q0 -14 2 -34.5t11.5 -39t31 -32t59.5 -13.5q39 0 59.5 12.5t30 31t11.5 39t2 34.5v1065h407v-1057q0 -49 -3 -98t-19.5 -95t-53 -87t-104.5 -74q-31 -16 -103.5 -36.5t-224.5 -20.5q-127 0 -215 19t-145 51t-88 73t-45 84t-16.5 85t-2.5 75z M215 1552l158 224h413l154 -224h-303l-62 93l-55 -93h-305z" />
<glyph unicode="&#xdc;" horiz-adv-x="1150" d="M63 367v1081h406v-1063q0 -14 2 -34.5t11.5 -39t31 -32t59.5 -13.5q39 0 59.5 12.5t30 31t11.5 39t2 34.5v1065h407v-1057q0 -49 -3 -98t-19.5 -95t-53 -87t-104.5 -74q-31 -16 -103.5 -36.5t-224.5 -20.5q-127 0 -215 19t-145 51t-88 73t-45 84t-16.5 85t-2.5 75z M160 1552v228h340v-228h-340zM643 1552v228h338v-228h-338z" />
<glyph unicode="&#xdd;" horiz-adv-x="1150" d="M2 1446h401l175 -627l170 627h395l-361 -981v-465h-401v465zM403 1567l125 227h392l-211 -227h-306z" />
<glyph unicode="&#xde;" horiz-adv-x="1110" d="M72 0v1448h405v-242h213q35 0 82 -2t96.5 -17.5t94.5 -48t73 -94.5q12 -25 19.5 -54t11.5 -70t5 -96.5t1 -133.5q0 -127 -18.5 -190.5t-55.5 -108.5q-59 -74 -150 -92t-214 -18h-158v-281h-405zM477 557h103q70 0 86 29.5t16 87.5v149q0 70 -27.5 87.5t-74.5 17.5h-103 v-371z" />
<glyph unicode="&#xdf;" d="M61 0v1104q0 43 7.5 105.5t50.5 121t136 99t265 40.5q102 0 189.5 -14t151 -50t99 -93.5t35.5 -143.5v-159q0 -37 -4 -68t-19.5 -56.5t-44 -46t-75.5 -36.5q55 -18 89 -41t54.5 -52.5t27.5 -68.5t7 -92v-230q0 -49 -5 -106t-34.5 -106.5t-94.5 -82t-183 -32.5h-25 q-12 0 -31.5 1t-51.5 3t-85 6v156q37 -2 62.5 0t43 13t25.5 34.5t8 64.5v322q0 39 -8 60.5t-25.5 30.5t-43 11t-62.5 2v222q49 0 77 13t28 75v131q0 14 -1 32.5t-9.5 35t-27 27.5t-50.5 11q-35 0 -52.5 -10t-26.5 -24.5t-10.5 -30t-1.5 -27.5v-1151h-385z" />
<glyph unicode="&#xe0;" d="M43 270q0 94 16.5 154.5t57.5 99.5t110.5 64.5t175.5 50.5l80 19q31 7 52.5 13.5t37.5 13.5l41 17v66q0 25 -2 39t-6 22.5t-12 16.5q-14 14 -31.5 17t-34.5 3q-61 0 -71.5 -40t-10.5 -113h-358q0 61 2 111t14.5 90t39 73t75.5 62q59 35 143 51t189 16q37 0 101.5 -3 t133.5 -26q80 -25 124 -64.5t64.5 -82.5t23.5 -86t3 -76v-639q0 -61 11.5 -86.5t40.5 -52.5h-439v96l-53 -40q-29 -22 -65.5 -40t-82.5 -30.5t-104 -12.5q-57 0 -100 13.5t-72 31.5q-68 47 -81 109.5t-13 142.5zM430 295q0 -18 1 -31.5t3 -19.5q8 -35 30.5 -47.5t51.5 -12.5 q37 0 56.5 11.5t28.5 27t11 32.5t2 32v237l-96 -38t-56.5 -31.5t-25.5 -36t-6 -51.5v-35v-37zM160 1425h416l159 -251h-309z" />
<glyph unicode="&#xe1;" d="M43 270q0 94 16.5 154.5t57.5 99.5t110.5 64.5t175.5 50.5l80 19q31 7 52.5 13.5t37.5 13.5l41 17v66q0 25 -2 39t-6 22.5t-12 16.5q-14 14 -31.5 17t-34.5 3q-61 0 -71.5 -40t-10.5 -113h-358q0 61 2 111t14.5 90t39 73t75.5 62q59 35 143 51t189 16q37 0 101.5 -3 t133.5 -26q80 -25 124 -64.5t64.5 -82.5t23.5 -86t3 -76v-639q0 -61 11.5 -86.5t40.5 -52.5h-439v96l-53 -40q-29 -22 -65.5 -40t-82.5 -30.5t-104 -12.5q-57 0 -100 13.5t-72 31.5q-68 47 -81 109.5t-13 142.5zM430 295q0 -18 1 -31.5t3 -19.5q8 -35 30.5 -47.5t51.5 -12.5 q37 0 56.5 11.5t28.5 27t11 32.5t2 32v237l-96 -38t-56.5 -31.5t-25.5 -36t-6 -51.5v-35v-37zM393 1169l158 256h415l-268 -256h-305z" />
<glyph unicode="&#xe2;" d="M43 270q0 94 16.5 154.5t57.5 99.5t110.5 64.5t175.5 50.5l80 19q31 7 52.5 13.5t37.5 13.5l41 17v66q0 25 -2 39t-6 22.5t-12 16.5q-14 14 -31.5 17t-34.5 3q-61 0 -71.5 -40t-10.5 -113h-358q0 61 2 111t14.5 90t39 73t75.5 62q59 35 143 51t189 16q37 0 101.5 -3 t133.5 -26q80 -25 124 -64.5t64.5 -82.5t23.5 -86t3 -76v-639q0 -61 11.5 -86.5t40.5 -52.5h-439v96l-53 -40q-29 -22 -65.5 -40t-82.5 -30.5t-104 -12.5q-57 0 -100 13.5t-72 31.5q-68 47 -81 109.5t-13 142.5zM430 295q0 -18 1 -31.5t3 -19.5q8 -35 30.5 -47.5t51.5 -12.5 q37 0 56.5 11.5t28.5 27t11 32.5t2 32v237l-96 -38t-56.5 -31.5t-25.5 -36t-6 -51.5v-35v-37zM178 1176l182 249h389l182 -249h-299l-75 108l-80 -108h-299z" />
<glyph unicode="&#xe3;" d="M43 270q0 94 16.5 154.5t57.5 99.5t110.5 64.5t175.5 50.5l80 19q31 7 52.5 13.5t37.5 13.5l41 17v66q0 25 -2 39t-6 22.5t-12 16.5q-14 14 -31.5 17t-34.5 3q-61 0 -71.5 -40t-10.5 -113h-358q0 61 2 111t14.5 90t39 73t75.5 62q59 35 143 51t189 16q37 0 101.5 -3 t133.5 -26q80 -25 124 -64.5t64.5 -82.5t23.5 -86t3 -76v-639q0 -61 11.5 -86.5t40.5 -52.5h-439v96l-53 -40q-29 -22 -65.5 -40t-82.5 -30.5t-104 -12.5q-57 0 -100 13.5t-72 31.5q-68 47 -81 109.5t-13 142.5zM430 295q0 -18 1 -31.5t3 -19.5q8 -35 30.5 -47.5t51.5 -12.5 q37 0 56.5 11.5t28.5 27t11 32.5t2 32v237l-96 -38t-56.5 -31.5t-25.5 -36t-6 -51.5v-35v-37zM196 1182q2 88 33 136t68.5 71.5t74.5 28.5t54 5q55 0 155 -26l68 -19l40 -10q15 -4 23 -5t19 -1q41 0 51 20.5t14 36.5h113q-2 -35 -7 -77t-34 -82q-31 -45 -78 -65.5 t-102 -20.5q-23 0 -42.5 2t-41 6t-48.5 12l-69 20q-47 16 -65.5 20.5t-34.5 4.5q-37 0 -50.5 -20.5t-19.5 -36.5h-121z" />
<glyph unicode="&#xe4;" d="M43 270q0 94 16.5 154.5t57.5 99.5t110.5 64.5t175.5 50.5l80 19q31 7 52.5 13.5t37.5 13.5l41 17v66q0 25 -2 39t-6 22.5t-12 16.5q-14 14 -31.5 17t-34.5 3q-61 0 -71.5 -40t-10.5 -113h-358q0 61 2 111t14.5 90t39 73t75.5 62q59 35 143 51t189 16q37 0 101.5 -3 t133.5 -26q80 -25 124 -64.5t64.5 -82.5t23.5 -86t3 -76v-639q0 -61 11.5 -86.5t40.5 -52.5h-439v96l-53 -40q-29 -22 -65.5 -40t-82.5 -30.5t-104 -12.5q-57 0 -100 13.5t-72 31.5q-68 47 -81 109.5t-13 142.5zM430 295q0 -18 1 -31.5t3 -19.5q8 -35 30.5 -47.5t51.5 -12.5 q37 0 56.5 11.5t28.5 27t11 32.5t2 32v237l-96 -38t-56.5 -31.5t-25.5 -36t-6 -51.5v-35v-37zM127 1176v249h350v-249h-350zM616 1176v249h352v-249h-352z" />
<glyph unicode="&#xe5;" d="M43 270q0 94 16.5 154.5t57.5 99.5t110.5 64.5t175.5 50.5l80 19q31 7 52.5 13.5t37.5 13.5l41 17v66q0 25 -2 39t-6 22.5t-12 16.5q-14 14 -31.5 17t-34.5 3q-61 0 -71.5 -40t-10.5 -113h-358q0 61 2 111t14.5 90t39 73t75.5 62q59 35 143 51t189 16q37 0 101.5 -3 t133.5 -26q80 -25 124 -64.5t64.5 -82.5t23.5 -86t3 -76v-639q0 -61 11.5 -86.5t40.5 -52.5h-439v96l-53 -40q-29 -22 -65.5 -40t-82.5 -30.5t-104 -12.5q-57 0 -100 13.5t-72 31.5q-68 47 -81 109.5t-13 142.5zM430 295q0 -18 1 -31.5t3 -19.5q8 -35 30.5 -47.5t51.5 -12.5 q37 0 56.5 11.5t28.5 27t11 32.5t2 32v237l-96 -38t-56.5 -31.5t-25.5 -36t-6 -51.5v-35v-37zM399 1217q-12 12 -36.5 50t-24.5 95q0 45 17 85t46 67.5t67 44t78 16.5q43 0 82 -16.5t68 -46t45 -67.5t16 -81t-16 -81t-45 -66.5t-68 -45t-82 -16.5q-59 0 -97 25t-50 37z M481 1364q0 -27 19.5 -46.5t48.5 -19.5q27 0 46 19.5t19 46.5q0 29 -19.5 48.5t-45.5 19.5q-29 0 -48.5 -19.5t-19.5 -48.5z" />
<glyph unicode="&#xe6;" horiz-adv-x="1579" d="M39 264q0 102 11 163.5t47 99.5t100.5 60.5t171.5 45.5q51 12 83.5 19t56 13.5l46.5 13.5l53 17v84q0 10 -1 26.5t-9 32t-26.5 25.5t-51.5 10q-10 0 -28.5 -3t-34.5 -19q-8 -10 -12.5 -18.5t-6.5 -21.5t-2 -37v-60h-358v70q0 28 1 44.5t2 27.5t3 24q12 66 50 109.5 t91.5 71.5t121 40t140.5 12q76 0 129.5 -12t89 -28.5t57.5 -36.5l36 -31l44 37q24 19 59.5 35t88.5 26t133 10q88 0 162 -17.5t125 -49.5q43 -29 68.5 -65t38 -76t15.5 -85t3 -92v-240h-549v-157q0 -16 1 -36t10.5 -36t29 -27.5t53.5 -11.5q10 0 33 3t39 26q14 18 16 42.5 t2 94.5h365v-59v-36q0 -13 -1 -22.5t-1 -17.5q-6 -68 -36 -115t-72 -77.5t-92 -47t-98 -24.5t-89 -10.5t-66 -2.5q-49 0 -98 4.5t-96 12.5q-63 12 -105.5 28.5t-69 35t-43 37t-26.5 32.5q-27 -25 -58.5 -51.5t-72.5 -50t-92 -38t-119 -14.5q-96 0 -149.5 30t-78 74t-29.5 95 t-5 94zM420 315q0 -16 1 -37.5t9 -40t25.5 -31.5t50.5 -13q39 0 59.5 15t29.5 35.5t11 41t2 32.5v209q-72 -27 -109.5 -44t-55 -36.5t-20.5 -49.5t-3 -81zM987 657h184v127q0 10 -1 27.5t-9 34t-26.5 29t-51.5 12.5q-37 0 -56 -12.5t-28.5 -29t-10.5 -32.5t-1 -25v-131z" />
<glyph unicode="&#xe7;" horiz-adv-x="1024" d="M47 324v424q0 29 2 67.5t14.5 79.5t40 81t77.5 70.5t127 50t190 19.5q66 0 123 -6t112 -23q88 -27 135 -67.5t68.5 -83.5t26 -84t4.5 -66v-114h-369v108q0 12 -1 27.5t-9 29t-25.5 22.5t-48.5 9t-47 -9t-24.5 -23.5t-9.5 -28.5t-1 -27v-456q0 -39 14.5 -69t67.5 -30 q14 0 32.5 4t35.5 21q6 8 9 15t5 21.5t2 39.5v67h381q0 -66 -2 -118t-16.5 -95t-44 -78.5t-85.5 -66.5q-68 -35 -128 -44t-115 -14l-39 -47q84 4 136 -27.5t52 -115.5q0 -41 -20.5 -80t-60.5 -69.5t-100 -49t-140 -18.5q-25 0 -41.5 1t-34.5 5l-35 107l32 -9q15 -4 36 -4 q14 0 31.5 3t33 10.5t25.5 21.5t10 37q0 31 -19.5 50.5t-47.5 19.5q-23 0 -44.5 -10.5t-37.5 -20.5l-45 90l108 113q-127 16 -196.5 59t-101.5 94t-37 101.5t-5 85.5z" />
<glyph unicode="&#xe8;" horiz-adv-x="1024" d="M47 350v375q0 82 11.5 153.5t56.5 125t136 84t251 30.5q84 0 167 -10t158 -45q57 -29 89 -65.5t47.5 -76.5t17.5 -81t2 -74v-279h-547v-161q0 -14 1 -33t10.5 -35t27 -27.5t51.5 -11.5q33 0 50.5 9.5t25.5 27.5t9 49t1 74h371q0 -53 -2 -97t-11 -83t-29.5 -73t-57.5 -65 q-25 -20 -56.5 -36.5t-74.5 -26.5t-100.5 -16.5t-133.5 -6.5q-170 0 -265 33t-141 86t-55.5 120.5t-9.5 135.5zM436 662h182v133q0 10 -1 26.5t-10 31.5t-27.5 25.5t-51.5 10.5q-35 0 -53 -10.5t-27.5 -25.5t-10.5 -31.5t-1 -28.5v-131zM140 1425h416l159 -251h-309z" />
<glyph unicode="&#xe9;" horiz-adv-x="1024" d="M47 350v375q0 82 11.5 153.5t56.5 125t136 84t251 30.5q84 0 167 -10t158 -45q57 -29 89 -65.5t47.5 -76.5t17.5 -81t2 -74v-279h-547v-161q0 -14 1 -33t10.5 -35t27 -27.5t51.5 -11.5q33 0 50.5 9.5t25.5 27.5t9 49t1 74h371q0 -53 -2 -97t-11 -83t-29.5 -73t-57.5 -65 q-25 -20 -56.5 -36.5t-74.5 -26.5t-100.5 -16.5t-133.5 -6.5q-170 0 -265 33t-141 86t-55.5 120.5t-9.5 135.5zM436 662h182v133q0 10 -1 26.5t-10 31.5t-27.5 25.5t-51.5 10.5q-35 0 -53 -10.5t-27.5 -25.5t-10.5 -31.5t-1 -28.5v-131zM373 1169l158 256h415l-268 -256 h-305z" />
<glyph unicode="&#xea;" horiz-adv-x="1024" d="M47 350v375q0 82 11.5 153.5t56.5 125t136 84t251 30.5q84 0 167 -10t158 -45q57 -29 89 -65.5t47.5 -76.5t17.5 -81t2 -74v-279h-547v-161q0 -14 1 -33t10.5 -35t27 -27.5t51.5 -11.5q33 0 50.5 9.5t25.5 27.5t9 49t1 74h371q0 -53 -2 -97t-11 -83t-29.5 -73t-57.5 -65 q-25 -20 -56.5 -36.5t-74.5 -26.5t-100.5 -16.5t-133.5 -6.5q-170 0 -265 33t-141 86t-55.5 120.5t-9.5 135.5zM436 662h182v133q0 10 -1 26.5t-10 31.5t-27.5 25.5t-51.5 10.5q-35 0 -53 -10.5t-27.5 -25.5t-10.5 -31.5t-1 -28.5v-131zM158 1176l182 249h389l182 -249h-299 l-75 108l-80 -108h-299z" />
<glyph unicode="&#xeb;" horiz-adv-x="1024" d="M47 350v375q0 82 11.5 153.5t56.5 125t136 84t251 30.5q84 0 167 -10t158 -45q57 -29 89 -65.5t47.5 -76.5t17.5 -81t2 -74v-279h-547v-161q0 -14 1 -33t10.5 -35t27 -27.5t51.5 -11.5q33 0 50.5 9.5t25.5 27.5t9 49t1 74h371q0 -53 -2 -97t-11 -83t-29.5 -73t-57.5 -65 q-25 -20 -56.5 -36.5t-74.5 -26.5t-100.5 -16.5t-133.5 -6.5q-170 0 -265 33t-141 86t-55.5 120.5t-9.5 135.5zM436 662h182v133q0 10 -1 26.5t-10 31.5t-27.5 25.5t-51.5 10.5q-35 0 -53 -10.5t-27.5 -25.5t-10.5 -31.5t-1 -28.5v-131zM115 1176v249h350v-249h-350z M604 1176v249h352v-249h-352z" />
<glyph unicode="&#xec;" horiz-adv-x="512" d="M449 1092v-1092h-388v1092h388zM-137 1425h416l159 -251h-309z" />
<glyph unicode="&#xed;" horiz-adv-x="512" d="M449 1092v-1092h-388v1092h388zM94 1169l158 256h415l-268 -256h-305z" />
<glyph unicode="&#xee;" horiz-adv-x="512" d="M449 1092v-1092h-388v1092h388zM-118 1176l182 249h389l182 -249h-299l-75 108l-80 -108h-299z" />
<glyph unicode="&#xef;" horiz-adv-x="512" d="M449 1092v-1092h-388v1092h388zM-161 1176v249h350v-249h-350zM328 1176v249h352v-249h-352z" />
<glyph unicode="&#xf0;" d="M51 330v440q0 92 15.5 148.5t68.5 101.5q61 53 137 74.5t154 21.5q86 0 131 -24.5t86 -71.5q-10 59 -33.5 108.5t-56.5 88.5l-285 -60l-51 127l232 51q-16 16 -29.5 25.5t-48.5 38.5l317 100q12 -12 20.5 -19t17.5 -17l23 -22q13 -13 33 -36l181 39l53 -133l-139 -29 q16 -18 34.5 -48t34 -63.5t27.5 -68.5t18 -66q12 -57 17.5 -134t5.5 -136v-418q0 -41 -2 -83t-14.5 -83t-39 -77.5t-75.5 -65.5q-39 -25 -86 -37t-91 -18.5t-83 -7.5t-64 -1q-150 0 -247 19.5t-155.5 61.5t-82 110t-23.5 164zM434 338q0 -18 2 -37.5t11.5 -37t30 -29 t57.5 -11.5t56 11.5t28.5 29t10.5 38t1 40.5v418q0 12 -2 30.5t-11.5 36t-29 28.5t-56.5 11t-57 -11t-29.5 -26.5t-10.5 -33t-1 -29.5v-428z" />
<glyph unicode="&#xf1;" d="M61 0v1092h388v-109l32 37q20 23 51 44t74 35.5t101 14.5q72 0 135 -25.5t104 -82.5q41 -53 48 -121t7 -142v-743h-389v780q0 12 -1 29.5t-8 34t-23.5 28t-44.5 11.5q-33 0 -50.5 -11.5t-25.5 -28t-9 -33.5t-1 -30v-780h-388zM174 1182q2 88 33 136t68.5 71.5t74.5 28.5 t54 5q55 0 155 -26l68 -19l40 -10q15 -4 23 -5t19 -1q41 0 51 20.5t14 36.5h113q-2 -35 -7 -77t-34 -82q-31 -45 -78 -65.5t-102 -20.5q-23 0 -42.5 2t-41 6t-48.5 12l-69 20q-47 16 -65.5 20.5t-34.5 4.5q-37 0 -50.5 -20.5t-19.5 -36.5h-121z" />
<glyph unicode="&#xf2;" d="M51 330v440q0 35 3 81t23.5 92t65.5 86t127 63q49 14 114 21t134 7q186 0 286.5 -34.5t146.5 -88t54.5 -116t8.5 -115.5v-418q0 -41 -2 -83t-14.5 -83t-39 -77.5t-75.5 -65.5q-39 -25 -85 -37t-91 -18.5t-84 -7.5t-64 -1q-78 0 -136 4.5t-101 12.5t-75 19.5t-57 25.5 q-49 27 -76.5 60.5t-42 71.5t-17.5 79t-3 82zM434 338q0 -16 2 -35.5t11.5 -37t30 -30t57.5 -12.5t56 11.5t28.5 30t10.5 39t1 38.5v418q0 14 -2 32.5t-11.5 35t-30 27.5t-55.5 11q-37 0 -56 -11t-28.5 -26.5t-11.5 -33t-2 -29.5v-428zM137 1425h416l159 -251h-309z" />
<glyph unicode="&#xf3;" d="M51 330v440q0 35 3 81t23.5 92t65.5 86t127 63q49 14 114 21t134 7q186 0 286.5 -34.5t146.5 -88t54.5 -116t8.5 -115.5v-418q0 -41 -2 -83t-14.5 -83t-39 -77.5t-75.5 -65.5q-39 -25 -85 -37t-91 -18.5t-84 -7.5t-64 -1q-78 0 -136 4.5t-101 12.5t-75 19.5t-57 25.5 q-49 27 -76.5 60.5t-42 71.5t-17.5 79t-3 82zM434 338q0 -16 2 -35.5t11.5 -37t30 -30t57.5 -12.5t56 11.5t28.5 30t10.5 39t1 38.5v418q0 14 -2 32.5t-11.5 35t-30 27.5t-55.5 11q-37 0 -56 -11t-28.5 -26.5t-11.5 -33t-2 -29.5v-428zM371 1169l158 256h415l-268 -256h-305 z" />
<glyph unicode="&#xf4;" d="M51 330v440q0 35 3 81t23.5 92t65.5 86t127 63q49 14 114 21t134 7q186 0 286.5 -34.5t146.5 -88t54.5 -116t8.5 -115.5v-418q0 -41 -2 -83t-14.5 -83t-39 -77.5t-75.5 -65.5q-39 -25 -85 -37t-91 -18.5t-84 -7.5t-64 -1q-78 0 -136 4.5t-101 12.5t-75 19.5t-57 25.5 q-49 27 -76.5 60.5t-42 71.5t-17.5 79t-3 82zM434 338q0 -16 2 -35.5t11.5 -37t30 -30t57.5 -12.5t56 11.5t28.5 30t10.5 39t1 38.5v418q0 14 -2 32.5t-11.5 35t-30 27.5t-55.5 11q-37 0 -56 -11t-28.5 -26.5t-11.5 -33t-2 -29.5v-428zM156 1176l182 249h389l182 -249h-299 l-75 108l-80 -108h-299z" />
<glyph unicode="&#xf5;" d="M51 330v440q0 35 3 81t23.5 92t65.5 86t127 63q49 14 114 21t134 7q186 0 286.5 -34.5t146.5 -88t54.5 -116t8.5 -115.5v-418q0 -41 -2 -83t-14.5 -83t-39 -77.5t-75.5 -65.5q-39 -25 -85 -37t-91 -18.5t-84 -7.5t-64 -1q-78 0 -136 4.5t-101 12.5t-75 19.5t-57 25.5 q-49 27 -76.5 60.5t-42 71.5t-17.5 79t-3 82zM434 338q0 -16 2 -35.5t11.5 -37t30 -30t57.5 -12.5t56 11.5t28.5 30t10.5 39t1 38.5v418q0 14 -2 32.5t-11.5 35t-30 27.5t-55.5 11q-37 0 -56 -11t-28.5 -26.5t-11.5 -33t-2 -29.5v-428zM174 1182q2 88 33 136t68.5 71.5 t74.5 28.5t54 5q55 0 155 -26l68 -19l40 -10q15 -4 23 -5t19 -1q41 0 51 20.5t14 36.5h113q-2 -35 -7 -77t-34 -82q-31 -45 -78 -65.5t-102 -20.5q-23 0 -42.5 2t-41 6t-48.5 12l-69 20q-47 16 -65.5 20.5t-34.5 4.5q-37 0 -50.5 -20.5t-19.5 -36.5h-121z" />
<glyph unicode="&#xf6;" d="M51 330v440q0 35 3 81t23.5 92t65.5 86t127 63q49 14 114 21t134 7q186 0 286.5 -34.5t146.5 -88t54.5 -116t8.5 -115.5v-418q0 -41 -2 -83t-14.5 -83t-39 -77.5t-75.5 -65.5q-39 -25 -85 -37t-91 -18.5t-84 -7.5t-64 -1q-78 0 -136 4.5t-101 12.5t-75 19.5t-57 25.5 q-49 27 -76.5 60.5t-42 71.5t-17.5 79t-3 82zM434 338q0 -16 2 -35.5t11.5 -37t30 -30t57.5 -12.5t56 11.5t28.5 30t10.5 39t1 38.5v418q0 14 -2 32.5t-11.5 35t-30 27.5t-55.5 11q-37 0 -56 -11t-28.5 -26.5t-11.5 -33t-2 -29.5v-428zM111 1178v249h350v-249h-350z M600 1178v249h352v-249h-352z" />
<glyph unicode="&#xf7;" horiz-adv-x="1024" d="M2 465v260h1022v-260h-1022zM348 225q0 68 47 118t119 50t118 -51t46 -119q0 -29 -11.5 -57.5t-33 -51t-52 -37t-69.5 -14.5q-66 0 -115 45t-49 117zM348 958q0 74 50.5 121t113.5 47q72 0 119 -49t47 -119q0 -72 -51.5 -116.5t-116.5 -44.5q-61 0 -111.5 44.5 t-50.5 116.5z" />
<glyph unicode="&#xf8;" d="M16 61l70 86q-8 18 -14 34t-10.5 36.5t-6.5 48t-2 70.5v409q0 94 21.5 167t105.5 126q53 33 134 53.5t204 20.5q72 0 124 -6t91 -15.5t71 -23.5l62 -29l72 80l94 -80l-67 -82q10 -18 18 -35.5t14.5 -40t9.5 -53t3 -77.5v-359q0 -63 -4.5 -115.5t-18.5 -94.5t-43 -75.5 t-78 -60.5q-63 -35 -149 -50t-174 -15q-78 0 -134.5 7t-98.5 19t-72.5 26.5l-57.5 28.5l-69 -79zM426 293q0 -16 1 -25.5t2 -15.5t3 -12q4 -18 23.5 -37t72.5 -19q41 0 63.5 13.5t33 32t12.5 40t2 39.5v277l-213 -248v-45zM426 535l213 243q0 20 -1 43t-11.5 42.5t-32 31.5 t-59.5 12q-41 0 -62.5 -12t-32 -29.5t-12.5 -38t-2 -36.5v-256z" />
<glyph unicode="&#xf9;" d="M63 322v770h386v-793q0 -14 1 -32.5t9 -36t24.5 -29t46.5 -11.5q31 0 47.5 11.5t24.5 28t10 35t2 34.5v793h387v-1092h-387v111q-16 -20 -38.5 -44t-54.5 -44.5t-76 -34t-105 -13.5q-104 0 -159.5 42t-82 98.5t-31 115t-4.5 91.5zM137 1425h416l159 -251h-309z" />
<glyph unicode="&#xfa;" d="M63 322v770h386v-793q0 -14 1 -32.5t9 -36t24.5 -29t46.5 -11.5q31 0 47.5 11.5t24.5 28t10 35t2 34.5v793h387v-1092h-387v111q-16 -20 -38.5 -44t-54.5 -44.5t-76 -34t-105 -13.5q-104 0 -159.5 42t-82 98.5t-31 115t-4.5 91.5zM371 1169l158 256h415l-268 -256h-305z " />
<glyph unicode="&#xfb;" d="M63 322v770h386v-793q0 -14 1 -32.5t9 -36t24.5 -29t46.5 -11.5q31 0 47.5 11.5t24.5 28t10 35t2 34.5v793h387v-1092h-387v111q-16 -20 -38.5 -44t-54.5 -44.5t-76 -34t-105 -13.5q-104 0 -159.5 42t-82 98.5t-31 115t-4.5 91.5zM156 1176l182 249h389l182 -249h-299 l-75 108l-80 -108h-299z" />
<glyph unicode="&#xfc;" d="M63 322v770h386v-793q0 -14 1 -32.5t9 -36t24.5 -29t46.5 -11.5q31 0 47.5 11.5t24.5 28t10 35t2 34.5v793h387v-1092h-387v111q-16 -20 -38.5 -44t-54.5 -44.5t-76 -34t-105 -13.5q-104 0 -159.5 42t-82 98.5t-31 115t-4.5 91.5zM107 1176v249h350v-249h-350zM596 1176 v249h352v-249h-352z" />
<glyph unicode="&#xfd;" horiz-adv-x="1024" d="M0 1090h385l131 -662l127 662h379l-303 -1078q-18 -63 -33.5 -111t-31 -85t-32 -66t-38.5 -53q-41 -43 -84 -66.5t-87 -34t-88 -12.5t-85 -2h-170l10 240h83q32 0 52.5 3t33.5 9t27 16q23 16 38.5 45t15.5 42zM352 1169l158 256h415l-268 -256h-305z" />
<glyph unicode="&#xfe;" d="M61 -344v1790h388v-485q14 29 28.5 51t44.5 45q29 20 58.5 32.5t56.5 17.5t46 6t30 1q94 0 157 -29q55 -25 84 -59.5t43.5 -72.5t16.5 -74.5t2 -65.5v-496q0 -55 -4 -105t-27 -95q-25 -53 -62.5 -82t-76.5 -42t-74 -15.5t-51 -2.5q-68 0 -115 14.5t-77.5 36t-50 47 t-32.5 46.5v-463h-385zM446 309q0 -10 1.5 -27.5t10.5 -34t26.5 -27.5t52.5 -11t53 10t27.5 25.5t10.5 34t1 32.5v463q0 14 -1 31.5t-10.5 33t-28 25.5t-50.5 10q-35 0 -53.5 -11t-27.5 -26.5t-10.5 -34t-1.5 -32.5v-461z" />
<glyph unicode="&#xff;" horiz-adv-x="1024" d="M0 1090h385l131 -662l127 662h379l-303 -1078q-18 -63 -33.5 -111t-31 -85t-32 -66t-38.5 -53q-41 -43 -84 -66.5t-87 -34t-88 -12.5t-85 -2h-170l10 240h83q32 0 52.5 3t33.5 9t27 16q23 16 38.5 45t15.5 42zM95 1176v249h350v-249h-350zM584 1176v249h352v-249h-352z " />
<glyph unicode="&#x131;" horiz-adv-x="512" d="M449 1092v-1092h-388v1092h388z" />
<glyph unicode="&#x152;" horiz-adv-x="1492" d="M57 451v598q0 106 10.5 180t59.5 133q31 35 67.5 56.5t75.5 32.5t75 15t67 4q59 0 102 -8t73.5 -20t51 -25.5l35.5 -23.5v55h782v-287h-377v-287h348v-278h-348v-317h377v-279h-784v61q-10 -10 -27.5 -24t-46.5 -26.5t-70 -21.5t-98 -9q-96 0 -173 26.5t-128 87.5 q-23 29 -37 61.5t-22.5 74.5t-10.5 95.5t-2 125.5zM469 328q0 -16 1 -36t10 -37t29.5 -29.5t57.5 -12.5q41 0 63.5 13.5t33 31.5t12.5 39.5t2 40.5v764q0 18 -2 39.5t-12.5 41t-33 32t-63.5 12.5q-35 0 -55 -12.5t-29.5 -31t-11.5 -40t-2 -39.5v-776z" />
<glyph unicode="&#x153;" horiz-adv-x="1579" d="M51 358v398q0 27 2 60.5t12.5 69.5t32 70.5t62.5 65.5q35 27 78 44t85 26.5t81.5 12.5t68.5 3q70 0 122 -11.5t91 -27.5t65.5 -35.5t47.5 -36.5l42 37q24 20 61.5 38t91 30t128.5 12q31 0 70 -3t80 -12t82 -25.5t76 -43.5q70 -53 87 -120.5t17 -157.5v-265h-547v-159 q0 -16 1 -36t9.5 -36t25.5 -28.5t50 -12.5q35 0 54.5 10.5t28.5 32t10 52t1 71.5h367q0 -72 -2 -126t-16.5 -96t-46 -75t-89.5 -59q-59 -29 -121.5 -39.5t-121.5 -10.5q-80 0 -136.5 12.5t-95.5 30t-64.5 38t-41.5 36.5q-16 -16 -42 -36.5t-64 -40t-91 -33t-125 -13.5 q-160 0 -247 42t-127 102.5t-46 128t-6 116.5zM430 322q0 -12 1 -30t9.5 -34t25.5 -28.5t50 -12.5t50.5 11.5t25.5 27.5t9 34.5t1 33.5v444q0 12 -1 29.5t-9 33t-25.5 25.5t-50.5 10t-50 -10t-25.5 -24.5t-9.5 -31t-1 -30.5v-448zM987 657h180v125q0 12 -1 29.5t-10 33 t-28.5 26t-54.5 10.5q-33 0 -50 -11.5t-25.5 -27t-9.5 -31.5t-1 -29v-125z" />
<glyph unicode="&#x178;" horiz-adv-x="1150" d="M2 1446h401l175 -627l170 627h395l-361 -981v-465h-401v465zM164 1548v228h340v-228h-340zM647 1548v228h338v-228h-338z" />
<glyph unicode="&#x2c6;" horiz-adv-x="555" d="M-98 1176l182 249h389l182 -249h-299l-75 108l-80 -108h-299z" />
<glyph unicode="&#x2da;" horiz-adv-x="555" d="M129 1217q-12 12 -36.5 50t-24.5 95q0 45 17 85t46 67.5t67 44t78 16.5q43 0 82 -16.5t68 -46t45 -67.5t16 -81t-16 -81t-45 -66.5t-68 -45t-82 -16.5q-59 0 -97 25t-50 37zM211 1364q0 -27 19.5 -46.5t48.5 -19.5q27 0 46 19.5t19 46.5q0 29 -19.5 48.5t-45.5 19.5 q-29 0 -48.5 -19.5t-19.5 -48.5z" />
<glyph unicode="&#x2dc;" horiz-adv-x="555" d="M-78 1182q2 88 33 136t68.5 71.5t74.5 28.5t54 5q55 0 155 -26l68 -19l40 -10q15 -4 23 -5t19 -1q41 0 51 20.5t14 36.5h113q-2 -35 -7 -77t-34 -82q-31 -45 -78 -65.5t-102 -20.5q-23 0 -42.5 2t-41 6t-48.5 12l-69 20q-47 16 -65.5 20.5t-34.5 4.5q-37 0 -50.5 -20.5 t-19.5 -36.5h-121z" />
<glyph unicode="&#x2000;" horiz-adv-x="950" />
<glyph unicode="&#x2001;" horiz-adv-x="1902" />
<glyph unicode="&#x2002;" horiz-adv-x="950" />
<glyph unicode="&#x2003;" horiz-adv-x="1902" />
<glyph unicode="&#x2004;" horiz-adv-x="632" />
<glyph unicode="&#x2005;" horiz-adv-x="475" />
<glyph unicode="&#x2006;" horiz-adv-x="315" />
<glyph unicode="&#x2007;" horiz-adv-x="315" />
<glyph unicode="&#x2008;" horiz-adv-x="237" />
<glyph unicode="&#x2009;" horiz-adv-x="378" />
<glyph unicode="&#x200a;" horiz-adv-x="104" />
<glyph unicode="&#x2010;" horiz-adv-x="681" d="M33 590v264h618v-264h-618z" />
<glyph unicode="&#x2011;" horiz-adv-x="681" d="M33 590v264h618v-264h-618z" />
<glyph unicode="&#x2013;" d="M33 588v266h997v-266h-997z" />
<glyph unicode="&#x2014;" horiz-adv-x="1193" d="M35 590v264h1124v-264h-1124z" />
<glyph unicode="&#x2018;" horiz-adv-x="512" d="M78 803v332l184 311h131l-106 -311h143v-332h-352z" />
<glyph unicode="&#x2019;" horiz-adv-x="512" d="M76 1108v338h358v-338l-178 -315h-129l94 315h-145z" />
<glyph unicode="&#x201a;" horiz-adv-x="512" d="M76 0v338h358v-338l-178 -315h-129l94 315h-145z" />
<glyph unicode="&#x201c;" horiz-adv-x="937" d="M70 797v331l190 318h131l-108 -318h147v-331h-360zM502 797v331l196 318h136l-115 -318h145v-331h-362z" />
<glyph unicode="&#x201d;" horiz-adv-x="937" d="M70 1114v334h362v-334l-176 -315h-137l106 315h-155zM502 1114v334h362v-334l-182 -315h-137l108 315h-151z" />
<glyph unicode="&#x201e;" horiz-adv-x="937" d="M70 0v336h360v-336l-194 -315h-136l115 315h-145zM502 0v336h360v-336l-188 -315h-133l108 315h-147z" />
<glyph unicode="&#x2022;" horiz-adv-x="681" d="M25 725q0 61 24.5 118.5t67.5 100.5t101 69.5t128 26.5q63 0 120.5 -22.5t100.5 -64.5t67.5 -101t24.5 -131q0 -49 -16 -105.5t-54 -103.5t-98.5 -78t-146.5 -31q-72 0 -131 27t-101 72t-64.5 103.5t-22.5 119.5z" />
<glyph unicode="&#x2026;" horiz-adv-x="2048" d="M162 0v336h356v-336h-356zM844 0v336h356v-336h-356zM1526 0v336h356v-336h-356z" />
<glyph unicode="&#x202f;" horiz-adv-x="378" />
<glyph unicode="&#x2039;" horiz-adv-x="382" d="M23 451v301l323 264v-318l-125 -98l125 -102v-312z" />
<glyph unicode="&#x203a;" horiz-adv-x="382" d="M31 178v314l125 102l-125 104v316l327 -271v-297z" />
<glyph unicode="&#x205f;" horiz-adv-x="475" />
<glyph unicode="&#x2122;" horiz-adv-x="1409" d="M2 1309v137h586v-137h-205v-543h-172v543h-209zM643 766v680h217l156 -492l145 492h219v-680h-168l9 362l10 138l-27 -109l-117 -391h-151l-121 393l-29 105l13 -136l10 -362h-166z" />
</font>
</defs>
</svg>
